<?xml version="1.0" encoding="UTF-8"?>
<svg version="1.1" xmlns="http://www.w3.org/2000/svg" width="512" height="512">
<path d="M0 0 C1.56965091 1.19877163 3.12567896 2.41532156 4.68066406 3.63305664 C5.42574219 4.19379883 6.17082031 4.75454102 6.93847656 5.33227539 C25.31543371 20.10080168 37.93985988 45.59667761 40.68066406 68.63305664 C42.78302281 95.83542682 38.38354578 122.99620121 20.68066406 144.63305664 C18.39317721 147.26539076 16.07340148 149.8548385 13.69628906 152.40649414 C11.8852662 154.40704265 10.25828726 156.44635107 8.68066406 158.63305664 C9.35226562 158.72458008 10.02386719 158.81610352 10.71582031 158.91040039 C14.46230716 159.82357571 17.70901099 161.44483251 21.11816406 163.19555664 C22.16834717 163.73128296 22.16834717 163.73128296 23.23974609 164.27783203 C25.39258891 165.38534844 27.53762252 166.50670695 29.68066406 167.63305664 C30.32374512 167.96789062 30.96682617 168.30272461 31.62939453 168.64770508 C50.56678913 178.60114798 50.56678913 178.60114798 54.92285156 187.03930664 C56.69499002 193.10477021 56.72049722 200.13711641 54.24316406 206.00805664 C51.14239618 211.23787289 46.16996967 214.56404391 40.41113281 216.32836914 C30.52778796 217.95539964 23.29743355 212.90402749 15.25097656 207.81665039 C-17.6270339 187.38414306 -58.38275493 181.66216633 -95.93408203 190.25683594 C-105.4492024 192.57286211 -114.39227701 195.60244475 -123.31933594 199.63305664 C-124.4653125 200.14481445 -125.61128906 200.65657227 -126.79199219 201.18383789 C-139.59024955 207.22946341 -151.24988698 215.19063238 -161.49902344 224.95336914 C-163.31933594 226.63305664 -163.31933594 226.63305664 -165.31933594 227.63305664 C-165.87663061 229.39659943 -165.87663061 229.39659943 -166.17871094 231.54321289 C-166.32163574 232.36055908 -166.46456055 233.17790527 -166.61181641 234.02001953 C-166.76279785 234.90294678 -166.9137793 235.78587402 -167.06933594 236.69555664 C-171.1358651 258.55363917 -180.69048632 278.44786921 -197.31933594 293.63305664 C-193.77334733 296.62155735 -189.76650123 298.3307809 -185.56933594 300.19555664 C-179.31337865 303.0534842 -173.39026642 306.21805158 -167.56933594 309.88305664 C-166.91481445 310.29499268 -166.26029297 310.70692871 -165.5859375 311.13134766 C-157.50714218 316.31990243 -152.99199189 320.6114952 -150.38183594 330.00805664 C-150.27742238 336.06404281 -151.95073217 341.30136134 -155.00683594 346.50805664 C-160.83247301 351.86134476 -166.42291 353.3806808 -174.31542969 353.07446289 C-180.45327764 352.17254245 -185.1054753 349.03467967 -190.26855469 345.76586914 C-224.1897868 324.31997331 -264.54622933 318.71574339 -303.58496094 327.12084961 C-331.71619621 333.52045973 -356.45046146 347.93892013 -377.31933594 367.63305664 C-378.05667969 368.30594727 -378.79402344 368.97883789 -379.55371094 369.67211914 C-393.73031324 383.09464685 -403.82270838 400.75874467 -411.31933594 418.63305664 C-411.63773437 419.31368164 -411.95613281 419.99430664 -412.28417969 420.69555664 C-414.97886842 426.85484518 -415.54598157 433.48186607 -413.62792969 439.97290039 C-411.52222387 444.70413061 -408.96255777 447.1632578 -404.31933594 449.63305664 C-400.76477967 450.81790873 -397.93286231 450.7668056 -394.1789093 450.77781677 C-393.44695113 450.78134362 -392.71499296 450.78487046 -391.96085423 450.78850418 C-389.5013216 450.79920233 -387.04182768 450.80287414 -384.58227539 450.80664062 C-382.8214349 450.81294518 -381.060596 450.81971088 -379.29975891 450.8269043 C-375.50364323 450.84158304 -371.70753375 450.85330436 -367.91140175 450.8628521 C-361.90625239 450.87829694 -355.90115585 450.90224713 -349.89604187 450.92774963 C-332.81817971 450.9989689 -315.74028709 451.05869115 -298.66235352 451.10986328 C-289.23352152 451.13819108 -279.80474188 451.17358734 -270.37596482 451.21651703 C-264.40958986 451.24325543 -258.44327414 451.26118183 -252.47685111 451.27255428 C-248.75838848 451.28169951 -245.03999756 451.29907082 -241.32157707 451.31873322 C-239.6011226 451.32618809 -237.88064971 451.33028853 -236.16017914 451.33072853 C-233.80487179 451.33181698 -231.44992595 451.34511737 -229.09468079 451.36131287 C-227.77856969 451.36554481 -226.46245859 451.36977674 -225.10646534 451.37413692 C-217.92010436 451.86545643 -211.50685799 453.40603569 -206.31933594 458.63305664 C-202.37623711 464.42821703 -200.72049069 470.19142778 -202.00683594 477.13305664 C-203.37904831 482.54011864 -205.57858186 486.21931535 -209.94968891 489.76927948 C-213.92101697 491.96585095 -217.0671311 492.19385812 -221.48368835 492.14099121 C-222.69255139 492.15035115 -222.69255139 492.15035115 -223.92583591 492.15990019 C-226.61809393 492.1758158 -229.30944474 492.16323156 -232.00170898 492.15063477 C-233.93546577 492.15605674 -235.86921842 492.16317982 -237.80296326 492.171875 C-243.05121609 492.19010834 -248.29915431 492.18303907 -253.54741263 492.17035866 C-259.04625016 492.16022386 -264.54506094 492.16962635 -270.04389954 492.17590332 C-279.28346584 492.18318137 -288.52290428 492.17359103 -297.76245117 492.15454102 C-308.42792915 492.13280423 -319.09310086 492.13979985 -329.75857133 492.16184664 C-338.9256939 492.18003457 -348.09272458 492.18254141 -357.25985938 492.17209196 C-362.73025863 492.16587154 -368.20051427 492.16498076 -373.67090416 492.17823792 C-378.81988942 492.18984399 -383.96848273 492.18168396 -389.11742592 492.15866089 C-391.00110856 492.15339776 -392.88482452 492.15484622 -394.76849365 492.16371155 C-404.66281172 492.20596274 -413.24320832 492.10551137 -422.31933594 487.63305664 C-423.12143336 487.25522285 -423.92353079 486.87738907 -424.7499342 486.48810577 C-438.79661816 479.61895327 -449.10072806 466.13593201 -454.31933594 451.63305664 C-458.91548167 436.35046605 -457.3345046 420.22631362 -451.31933594 405.63305664 C-450.93382568 404.66408447 -450.93382568 404.66408447 -450.54052734 403.67553711 C-442.17333501 382.80635207 -430.87420145 364.72379709 -416.31933594 347.63305664 C-415.30033203 346.42842773 -415.30033203 346.42842773 -414.26074219 345.19946289 C-409.94259683 340.20792255 -405.36858419 335.86929034 -400.31933594 331.63305664 C-399.37316406 330.7990332 -398.42699219 329.96500977 -397.45214844 329.10571289 C-380.60193067 314.33021763 -361.1448748 302.86952378 -340.31933594 294.63305664 C-340.31933594 293.97305664 -340.31933594 293.31305664 -340.31933594 292.63305664 C-341.26808594 291.72555664 -342.21683594 290.81805664 -343.19433594 289.88305664 C-360.81669977 272.61742082 -370.2150887 247.71771949 -370.61206055 223.33154297 C-370.78040367 193.44336453 -361.796584 168.32135316 -340.98291016 146.29223633 C-333.20194954 138.53183006 -324.20680539 132.3860835 -314.31933594 127.63305664 C-313.45050781 127.19477539 -312.58167969 126.75649414 -311.68652344 126.30493164 C-287.47812951 114.58891592 -259.42326232 113.83266268 -234.11816406 122.3762207 C-207.86133989 131.78664801 -188.46793977 150.34781206 -175.31933594 174.63305664 C-174.61726346 176.28512094 -173.93381126 177.9464499 -173.31933594 179.63305664 C-172.71089844 179.2321582 -172.10246094 178.83125977 -171.47558594 178.41821289 C-158.94794218 170.29366745 -146.2043691 163.16537454 -132.31933594 157.63305664 C-133.55683594 156.20993164 -133.55683594 156.20993164 -134.81933594 154.75805664 C-135.98745131 153.38428716 -137.15398036 152.00916801 -138.31933594 150.63305664 C-138.94582031 149.90731445 -139.57230469 149.18157227 -140.21777344 148.43383789 C-149.70098067 137.09522054 -155.85319305 124.61465563 -160.31933594 110.63305664 C-160.83173828 109.07844727 -160.83173828 109.07844727 -161.35449219 107.49243164 C-168.51161563 80.99443045 -162.74322654 52.63138843 -149.38183594 29.25805664 C-146.10952823 24.0557015 -142.23950001 19.35471175 -138.31933594 14.63305664 C-137.36800781 13.38588867 -137.36800781 13.38588867 -136.39746094 12.11352539 C-132.6328196 7.62001552 -127.93051037 4.21815204 -123.31933594 0.63305664 C-122.124375 -0.30280273 -122.124375 -0.30280273 -120.90527344 -1.25756836 C-85.69481408 -27.40045123 -34.71916694 -25.77883671 0 0 Z M-85.31933594 25.63305664 C-86.24488281 26.03395508 -87.17042969 26.43485352 -88.12402344 26.84790039 C-103.2229831 34.22628719 -114.72172654 47.8884699 -120.31933594 63.63305664 C-123.86773039 76.0897647 -124.32312301 91.56298961 -119.31933594 103.63305664 C-118.866875 104.7377832 -118.41441406 105.84250977 -117.94824219 106.98071289 C-110.78473271 122.76791964 -98.99881557 133.39267047 -83.25292969 140.59008789 C-70.14255061 145.25116807 -53.28859628 146.00961479 -40.31933594 140.63305664 C-39.21460938 140.1805957 -38.10988281 139.72813477 -36.97167969 139.26196289 C-21.16430913 132.089304 -10.48937593 120.27990304 -3.36230469 104.46899414 C1.88199043 90.2092254 1.8654882 72.55375799 -4.31933594 58.63305664 C-4.72023438 57.70750977 -5.12113281 56.78196289 -5.53417969 55.82836914 C-12.96813529 40.61569477 -26.56631671 29.42652239 -42.31933594 23.63305664 C-55.90788346 19.5087371 -72.32183115 19.85839922 -85.31933594 25.63305664 Z M-313.31933594 177.63305664 C-314.13917969 178.40649414 -314.13917969 178.40649414 -314.97558594 179.19555664 C-318.76643815 183.06706528 -321.11907497 187.72812058 -323.56933594 192.50805664 C-323.91109863 193.16813721 -324.25286133 193.82821777 -324.60498047 194.50830078 C-331.41908077 208.35888482 -331.50731304 225.96030669 -326.63964844 240.46118164 C-319.29498971 258.1057464 -306.76218126 270.22312611 -289.31933594 277.63305664 C-274.93462265 282.98224668 -258.51922184 282.04406164 -244.31933594 276.63305664 C-227.77270826 268.94713813 -215.73990835 255.65018351 -209.31933594 238.63305664 C-203.76413873 222.63897238 -206.53924234 205.60385158 -213.74902344 190.67211914 C-219.87345535 179.27305687 -228.6907556 170.35951765 -240.31933594 164.63305664 C-241.25519531 164.17157227 -242.19105469 163.71008789 -243.15527344 163.23461914 C-267.60743356 152.13166979 -295.04100694 158.51111245 -313.31933594 177.63305664 Z " fill="white" transform="translate(456.3193359375,20.366943359375)"/>
<path d="M0 0 C4.69184657 4.65695825 5.83302874 9.60453152 6.03826904 15.98840332 C6.03764075 18.48523769 6.01533943 20.9821325 5.97479248 23.4786377 C5.9673184 24.81240993 5.96163099 26.14619326 5.9576416 27.47998047 C5.94247657 30.96544503 5.90327667 34.45022715 5.85882568 37.9354248 C5.81767342 41.50181856 5.79958834 45.06832419 5.77947998 48.6348877 C5.7367711 55.61433209 5.66863331 62.59332699 5.58416748 69.5723877 C6.26353363 69.56572586 6.94289978 69.55906403 7.64285278 69.55220032 C14.74873089 69.48554724 21.85451937 69.44046304 28.96063232 69.40759277 C31.60845551 69.39255751 34.25625401 69.37212394 36.9039917 69.34606934 C40.721925 69.30945508 44.53952741 69.29260804 48.35760498 69.27941895 C49.53092377 69.26393509 50.70424255 69.24845123 51.91311646 69.23249817 C60.06167878 69.23085019 67.33606439 70.07893588 74.45916748 74.2598877 C79.94157235 80.22603418 81.20842688 85.74826366 80.90447998 93.80285645 C80.19190224 99.96404693 77.18289889 103.61533974 72.58416748 107.5723877 C68.30892335 110.07282613 65.24072602 110.94369408 60.30340576 110.91296387 C59.08259308 110.91273727 57.8617804 110.91251068 56.60397339 110.91227722 C55.30064056 110.89679337 53.99730774 110.88130951 52.65447998 110.86535645 C51.29542511 110.85975473 49.93636414 110.85548735 48.57730103 110.85249329 C45.01632693 110.84108964 41.45572533 110.81166198 37.89489746 110.77838135 C34.25491371 110.74758313 30.61486923 110.73396722 26.97479248 110.71887207 C19.84443262 110.68678725 12.71432449 110.63564595 5.58416748 110.5723877 C5.59416023 111.69872116 5.59416023 111.69872116 5.60435486 112.84780884 C5.66457316 119.9390915 5.71019618 127.03028496 5.739604 134.12175179 C5.75523139 137.7671923 5.77641553 141.41242076 5.81048584 145.05773926 C5.84318465 148.57852119 5.86104249 152.09909971 5.86879921 155.62002182 C5.8770048 157.61081405 5.90040746 159.60152494 5.92405701 161.5921936 C5.9242836 162.81300629 5.92451019 164.03381897 5.92474365 165.29162598 C5.9347364 166.89712814 5.9347364 166.89712814 5.94493103 168.5350647 C5.21320928 174.69554097 2.08600316 178.52073558 -2.41583252 182.5723877 C-6.44544383 185.25879524 -9.49886121 184.93982659 -14.22833252 184.9473877 C-15.02303955 184.97187988 -15.81774658 184.99637207 -16.63653564 185.02160645 C-22.05250366 185.0484847 -25.13666781 184.18171355 -29.41583252 180.5723877 C-33.26904907 175.46947929 -34.54240412 171.95961314 -34.52935791 165.63220215 C-34.52924461 163.80064323 -34.52924461 163.80064323 -34.52912903 161.93208313 C-34.52396774 160.61326645 -34.51880646 159.29444977 -34.51348877 157.93566895 C-34.51162332 156.5723221 -34.51020002 155.20897459 -34.50920105 153.84562683 C-34.50538584 150.26010278 -34.49556407 146.67461935 -34.48449707 143.08911133 C-34.47426153 139.4292455 -34.46969884 135.76937309 -34.46466064 132.10949707 C-34.4539409 124.93044211 -34.43687645 117.7514206 -34.41583252 110.5723877 C-35.54216599 110.58238045 -35.54216599 110.58238045 -36.69125366 110.59257507 C-43.78253633 110.65279337 -50.87372978 110.69841639 -57.96519661 110.72782421 C-61.61063712 110.74345161 -65.25586559 110.76463575 -68.90118408 110.79870605 C-72.42196601 110.83140487 -75.94254453 110.84926271 -79.46346664 110.85701942 C-81.45425887 110.86522502 -83.44496976 110.88862768 -85.43563843 110.91227722 C-86.65645111 110.91250381 -87.87726379 110.91273041 -89.1350708 110.91296387 C-90.20540558 110.9196257 -91.27574036 110.92628754 -92.37850952 110.93315125 C-98.47448614 110.20909056 -102.49219214 107.13229408 -106.41583252 102.5723877 C-110.32041229 97.05211974 -110.16822009 91.07883021 -109.41583252 84.5723877 C-107.92254094 79.15920572 -105.12021448 75.78885611 -100.58770752 72.5802002 C-93.07943119 69.09614391 -85.49597532 69.3063355 -77.38458252 69.3770752 C-76.15292358 69.37990509 -74.92126465 69.38273499 -73.65228271 69.38565063 C-69.7400315 69.39679568 -65.8280139 69.4218902 -61.91583252 69.4473877 C-59.25437754 69.45855804 -56.59292475 69.46654936 -53.93145752 69.47473145 C-47.42617023 69.49671646 -40.92101807 69.53013752 -34.41583252 69.5723877 C-34.42471497 68.83846802 -34.43359741 68.10454834 -34.44274902 67.34838867 C-34.52316198 60.40495115 -34.58393201 53.46158395 -34.62308121 46.51779938 C-34.64388567 42.94855251 -34.6720702 39.37969296 -34.71759033 35.81066895 C-34.76130652 32.36118303 -34.78502323 28.91206778 -34.79534149 25.46232605 C-34.80624257 23.51699588 -34.83742718 21.57181317 -34.86901855 19.62670898 C-34.87082432 12.45059143 -34.39673701 7.62136404 -30.41583252 1.5723877 C-21.90731357 -6.55472903 -9.32260015 -7.88128075 0 0 Z " fill="white" transform="translate(431.41583251953125,327.4276123046875)"/>
</svg>
