<?xml version="1.0" encoding="UTF-8"?>
<svg version="1.1" xmlns="http://www.w3.org/2000/svg" width="64" height="64">
<path d="M0 0 C3.56764285 1.51376081 5.83706287 3.60513129 8.546875 6.3515625 C9.39121094 7.20234375 10.23554687 8.053125 11.10546875 8.9296875 C12.41451172 10.26386719 12.41451172 10.26386719 13.75 11.625 C14.63816406 12.5221875 15.52632812 13.419375 16.44140625 14.34375 C18.63216969 16.55807004 20.81812763 18.77692435 23 21 C21.48968674 24.53816053 19.42406644 26.83366147 16.71875 29.546875 C15.45611328 30.81337891 15.45611328 30.81337891 14.16796875 32.10546875 C12.84732422 33.41451172 12.84732422 33.41451172 11.5 34.75 C10.61957031 35.63816406 9.73914062 36.52632812 8.83203125 37.44140625 C7.99027344 38.28058594 7.14851563 39.11976562 6.28125 39.984375 C5.12206055 41.14018066 5.12206055 41.14018066 3.93945312 42.31933594 C2 44 2 44 0 44 C-1.0735426 35.5309417 -1.0735426 35.5309417 1.55859375 31.77734375 C3.30390105 30.0671533 5.06500295 28.49073753 7 27 C4.69 26.67 2.38 26.34 0 26 C0 23.36 0 20.72 0 18 C3.465 17.505 3.465 17.505 7 17 C6.4946875 16.61070313 5.989375 16.22140625 5.46875 15.8203125 C0.22543216 11.30523325 0.22543216 11.30523325 -0.46484375 7.30859375 C-0.44025032 4.83871109 -0.31050597 2.44954713 0 0 Z " fill="#ffff" transform="translate(32,10)"/>
<path d="M0 0 C2.64 0 5.28 0 8 0 C8 2.64 8 5.28 8 8 C5.36 8 2.72 8 0 8 C0 5.36 0 2.72 0 0 Z " fill="#ffff" transform="translate(20,28)"/>
<path d="M0 0 C1.98 0 3.96 0 6 0 C6 2.64 6 5.28 6 8 C4.02 8 2.04 8 0 8 C0 5.36 0 2.72 0 0 Z " fill="#ffff" transform="translate(9,28)"/>
</svg>
