<?xml version="1.0" encoding="UTF-8"?>
<svg version="1.1" xmlns="http://www.w3.org/2000/svg" width="512" height="512">
<path d="M0 0 C1.15963712 -0.00445668 1.15963712 -0.00445668 2.34270126 -0.0090034 C4.92955377 -0.01766511 7.51635986 -0.01919651 10.10322571 -0.02069092 C11.95963642 -0.02532091 13.81604618 -0.03034582 15.67245483 -0.03573608 C20.71399137 -0.04884536 25.75551459 -0.05530228 30.7970655 -0.05974674 C33.94886755 -0.06268009 37.10066598 -0.06678542 40.2524662 -0.07125092 C50.11960638 -0.08492252 59.98673827 -0.09459059 69.85388726 -0.09845281 C81.23294146 -0.10293161 92.61187542 -0.12047273 103.99089307 -0.1494534 C112.79362759 -0.17109213 121.59632833 -0.18115827 130.39908916 -0.18249393 C135.65316792 -0.18354046 140.90713361 -0.189416 146.16118431 -0.20731354 C151.10651606 -0.22383188 156.05165018 -0.22593145 160.99699974 -0.21717453 C162.80693594 -0.21640615 164.61688293 -0.22072053 166.42679214 -0.23063278 C181.06353225 -0.30605926 192.6458514 1.10148596 203.87788391 11.20294189 C212.68073989 20.44896225 215.76683285 32.6151913 215.49897766 45.03106689 C214.18251457 61.66447359 205.4356119 72.51838377 194.74946594 84.44659424 C192.1998534 87.33227317 189.83533692 90.35596272 187.45210266 93.37872314 C184.5517291 97.02093293 181.59085441 100.61158464 178.62788391 104.20294189 C178.02726135 104.93110107 177.42663879 105.65926025 176.80781555 106.40948486 C175.57191506 107.90735764 174.33582912 109.40507741 173.0995636 110.90264893 C170.14781211 114.47955984 167.20050258 118.0601252 164.25288391 121.64044189 C163.08624008 123.05712737 161.91957338 124.47379401 160.75288391 125.89044189 C160.17538391 126.59169189 159.59788391 127.29294189 159.00288391 128.01544189 C152.58621724 135.80710856 146.16955058 143.59877523 139.75288391 151.39044189 C139.17498108 152.09241699 138.59707825 152.79439209 138.00166321 153.51763916 C136.84000163 154.92775328 135.67741023 156.33710194 134.51387024 157.7456665 C131.51236801 161.38172156 128.53037412 165.03147486 125.57710266 168.70684814 C107.66235941 190.92160782 107.66235941 190.92160782 94.25288391 193.14044189 C83.12342806 193.84707401 73.20683039 193.30713873 64.31147766 186.05841064 C56.52825474 178.80686899 49.90992211 170.40843596 43.25288391 162.14044189 C41.85878252 160.4306949 40.46291361 158.72238777 39.06538391 157.01544189 C38.32288391 156.10794189 37.58038391 155.20044189 36.81538391 154.26544189 C31.91718567 148.28744915 26.99824717 142.32646622 22.08345032 136.36212158 C19.13920803 132.78882139 16.19608752 129.21459761 13.25288391 125.64044189 C12.08622295 124.22377053 10.91955628 122.80710387 9.75288391 121.39044189 C7.41955058 118.55710856 5.08621724 115.72377523 2.75288391 112.89044189 C1.88627136 111.83820435 1.88627136 111.83820435 1.00215149 110.76470947 C-0.16227925 109.35065339 -1.32650515 107.93642861 -2.49052429 106.52203369 C-5.43972802 102.93900082 -8.39264039 99.35914005 -11.35258484 95.78497314 C-14.27864713 92.24979434 -17.19433899 88.70636268 -20.09965515 85.15411377 C-21.18021221 83.83336176 -22.26282646 82.51428958 -23.34770203 81.19708252 C-33.72358364 68.56272826 -41.61562953 55.93176852 -41.02836609 38.92559814 C-39.78062869 26.56953193 -35.05829565 16.47668748 -26.02836609 7.89825439 C-18.16888697 1.84214891 -9.70394034 -0.01171243 0 0 Z " fill="#000000" transform="translate(168.7471160888672,169.85955810546875)"/>
</svg>
