<?xml version="1.0" encoding="UTF-8"?>
<svg version="1.1" xmlns="http://www.w3.org/2000/svg" width="64" height="64">
<path d="M0 0 C0.91007812 0.00902344 1.82015625 0.01804687 2.7578125 0.02734375 C3.80582031 0.04474609 3.80582031 0.04474609 4.875 0.0625 C4.875 1.3825 4.875 2.7025 4.875 4.0625 C3.080625 4.18625 3.080625 4.18625 1.25 4.3125 C-2.17588099 5.10496357 -3.00315827 5.87948251 -4.9921875 8.8671875 C-6.48216781 11.89705176 -7.86130272 14.93197719 -9.125 18.0625 C-8.29355469 18.00449219 -7.46210938 17.94648437 -6.60546875 17.88671875 C-4.97544922 17.81904297 -4.97544922 17.81904297 -3.3125 17.75 C-2.23355469 17.69199219 -1.15460937 17.63398437 -0.04296875 17.57421875 C2.875 18.0625 2.875 18.0625 4.69921875 20.45703125 C5.08722656 21.31683594 5.47523437 22.17664063 5.875 23.0625 C6.205 23.7225 6.535 24.3825 6.875 25.0625 C10.835 25.0625 14.795 25.0625 18.875 25.0625 C20.195 22.7525 21.515 20.4425 22.875 18.0625 C26.835 18.0625 30.795 18.0625 34.875 18.0625 C32.14540901 10.38391872 32.14540901 10.38391872 26.6953125 4.8203125 C24.28463458 4.2018564 24.28463458 4.2018564 20.875 4.0625 C20.875 2.7425 20.875 1.4225 20.875 0.0625 C22.45679615 -0.04617302 24.04077153 -0.12339827 25.625 -0.1875 C26.50671875 -0.23390625 27.3884375 -0.2803125 28.296875 -0.328125 C31.73682733 0.1930799 32.70742854 1.3846461 34.875 4.0625 C42.18335183 14.47187267 42.73694944 27.74401175 40.875 40.0625 C38.33226278 42.60523722 37.43060561 42.3151488 33.90625 42.32128906 C32.87177734 42.32759338 31.83730469 42.33389771 30.77148438 42.34039307 C29.09022461 42.33432037 29.09022461 42.33432037 27.375 42.328125 C25.65506836 42.33099518 25.65506836 42.33099518 23.90039062 42.33392334 C21.47265402 42.33528622 19.04491016 42.33158267 16.6171875 42.32324219 C12.89045927 42.31254438 9.16421314 42.32313431 5.4375 42.3359375 C3.08333226 42.33461592 0.72916483 42.33205357 -1.625 42.328125 C-2.74583984 42.33217346 -3.86667969 42.33622192 -5.02148438 42.34039307 C-6.57319336 42.33093658 -6.57319336 42.33093658 -8.15625 42.32128906 C-9.06955078 42.31969788 -9.98285156 42.31810669 -10.92382812 42.31646729 C-13.125 42.0625 -13.125 42.0625 -15.125 40.0625 C-17.53848254 25.85124903 -15.34499276 12.84779082 -7.125 1.0625 C-4.60024538 -0.19987731 -2.81299534 -0.03606404 0 0 Z " fill="#FFFFFF" transform="translate(19.125,17.9375)"/>
<path d="M0 0 C1.32 0 2.64 0 4 0 C5.23060421 2.46120841 5.2057723 4.25776866 5.31640625 7.0078125 C5.37924805 8.48701172 5.37924805 8.48701172 5.44335938 9.99609375 C5.48267578 11.02863281 5.52199219 12.06117187 5.5625 13.125 C5.60568359 14.16527344 5.64886719 15.20554687 5.69335938 16.27734375 C5.7996288 18.85142528 5.90166583 21.42560508 6 24 C7.32 24 8.64 24 10 24 C9.69762101 27.52775489 8.97019149 29.03808865 6.75 31.875 C4 34 4 34 1.5 34.125 C-1.86392694 32.61123288 -3.74658696 30.91618158 -6 28 C-5.8125 25.1875 -5.8125 25.1875 -5 23 C-3.68 23.66 -2.36 24.32 -1 25 C-0.67 16.75 -0.34 8.5 0 0 Z " fill="#FFFFFF" transform="translate(30,4)"/>
</svg>
