<?xml version="1.0" encoding="UTF-8"?>
<svg version="1.1" xmlns="http://www.w3.org/2000/svg" width="512" height="512">
<path d="M0 0 C0.73048244 -0.00350607 1.46096487 -0.00701215 2.21358314 -0.01062447 C4.65653559 -0.01991382 7.09924837 -0.01502156 9.54221058 -0.01015663 C11.31336578 -0.01389414 13.08451933 -0.01849606 14.85567027 -0.02388728 C19.71938313 -0.03612036 24.58302722 -0.03585644 29.44675195 -0.03349853 C34.69368034 -0.03309043 39.94058666 -0.04412881 45.18750477 -0.05361366 C55.46634493 -0.07022663 65.74516215 -0.07572336 76.02401461 -0.07683842 C84.37996538 -0.07778881 92.73590858 -0.08189865 101.09185696 -0.08823967 C124.78485302 -0.10585334 148.47783096 -0.11507841 172.17083361 -0.11357872 C173.4481312 -0.11349881 174.7254288 -0.1134189 176.04143238 -0.11333656 C177.3202905 -0.1132548 178.59914861 -0.11317304 179.91676001 -0.1130888 C200.63992326 -0.112276 221.36301381 -0.13141197 242.08615603 -0.1596133 C263.3668343 -0.1883447 284.64747712 -0.20215343 305.92817527 -0.20042574 C317.87470304 -0.1997619 329.82115461 -0.20525155 341.76766491 -0.22678185 C351.93991099 -0.24499704 362.11204633 -0.24933818 372.28430166 -0.235763 C377.47262216 -0.22923495 382.66073023 -0.22911038 387.84903049 -0.2464695 C392.60324555 -0.26221237 397.35707994 -0.25932405 402.11128578 -0.24190123 C403.82662361 -0.23883402 405.54198993 -0.24245318 407.25729414 -0.25362138 C423.85123074 -0.35446469 437.19349319 3.30185313 449.64421558 14.75726891 C458.08397261 23.54259079 463.70166888 35.61003921 463.71119118 47.86909771 C463.71702337 49.16572442 463.72285556 50.46235114 463.72886449 51.79826957 C463.72523181 53.2249769 463.72140747 54.65168376 463.71741199 56.07839012 C463.72043405 57.60348262 463.7243238 59.1285736 463.72900456 60.65366191 C463.73928651 64.83714882 463.73710223 69.02055004 463.73282397 73.20404398 C463.73035709 77.71881956 463.73937048 82.23357449 463.74686146 86.74834251 C463.75961185 95.59072864 463.7614017 104.4330844 463.75906119 113.27547816 C463.75727814 120.46344452 463.75902742 127.65140166 463.76328564 134.83936691 C463.76388083 135.86241491 463.76447601 136.88546291 463.76508924 137.93951237 C463.76630099 140.01785432 463.76751513 142.09619627 463.76873162 144.17453822 C463.77960862 163.66644845 463.77744399 183.15834139 463.77134677 202.6502526 C463.76617834 220.47775371 463.77743083 238.30520017 463.79644499 256.13269047 C463.81582259 274.44142645 463.82407947 292.75013658 463.82032174 311.05888289 C463.81840947 321.33641813 463.82089975 331.61390685 463.83503628 341.89143372 C463.8469501 350.64153727 463.84835499 359.39156568 463.83624611 368.14167026 C463.83035725 372.60466886 463.82925819 377.06753004 463.84124851 381.53051949 C463.85210663 385.61966928 463.84900483 389.7085669 463.83498683 393.7977049 C463.83233969 395.27343758 463.83470698 396.74919003 463.84272269 398.22490332 C463.91860898 413.24359455 460.50417499 426.38450857 450.07390308 437.70648766 C436.03462689 451.16927183 419.12184252 453.60901899 400.45671558 454.25726891 C400.03712574 455.36521812 400.03712574 455.36521812 399.60905933 456.49555016 C390.68965284 479.06652414 374.96902426 495.24149977 353.33171558 505.88226891 C338.00052007 512.39561142 323.54855121 512.83713774 307.12859058 512.77484703 C304.70886789 512.78027726 302.28914852 512.78740494 299.86943531 512.79608727 C294.01608799 512.81234035 288.16297201 512.81009037 282.309618 512.7984367 C277.54658106 512.78935163 272.7836015 512.78820011 268.02055836 512.79253197 C267.33905617 512.7931449 266.65755399 512.79375783 265.95540023 512.79438934 C264.57034046 512.79566842 263.1852807 512.79696528 261.80022097 512.7982797 C248.85483758 512.80964796 235.90956806 512.79663107 222.96420336 512.77507824 C211.89003591 512.75721065 200.81603626 512.76031582 189.74187183 512.77875328 C176.83841288 512.80022672 163.93505335 512.80854968 151.03157902 512.79630423 C149.6520103 512.79503022 148.27244156 512.79377273 146.89287281 512.79253197 C146.21434466 512.79191487 145.53581651 512.79129776 144.8367269 512.79066196 C140.08710709 512.7872284 135.33755109 512.792994 130.58794117 512.80245018 C124.17894552 512.81407092 117.77026433 512.80586957 111.36130238 512.78287315 C109.02013131 512.77761921 106.67893343 512.7790424 104.33777332 512.78792381 C88.14078565 512.84366723 73.35617222 511.855273 58.58171558 504.50726891 C57.5233147 503.99510826 57.5233147 503.99510826 56.44353199 503.47260094 C50.45432291 500.46906138 45.43646203 496.73525383 40.45671558 492.25726891 C39.86116871 491.80222984 39.26562183 491.34719078 38.65202808 490.87836266 C26.8966475 481.80450898 19.71460153 467.80643655 14.45671558 454.25726891 C13.41515308 454.23148766 12.37359058 454.20570641 11.30046558 454.17914391 C-2.9924817 453.67654585 -16.72638457 451.99913905 -28.54328442 443.25726891 C-29.49074535 442.58051109 -29.49074535 442.58051109 -30.45734692 441.89008141 C-39.73181191 434.65845011 -46.62490573 422.83266494 -48.54328442 411.25726891 C-48.84049717 406.28275871 -48.82229674 401.3108775 -48.81070995 396.32935143 C-48.81444955 394.80482088 -48.8190523 393.28029224 -48.8244406 391.75576663 C-48.83664778 387.57840436 -48.83641283 383.40112232 -48.83405185 379.2237463 C-48.8336431 374.71371864 -48.84468832 370.2037165 -48.85416698 365.69370079 C-48.8707654 356.86214734 -48.87627601 348.03062059 -48.87739174 339.19905284 C-48.87834276 332.01875493 -48.88245573 324.83846582 -48.88879299 317.6581707 C-48.90640218 297.29133387 -48.91563236 276.9245181 -48.91413204 256.5576736 C-48.91401218 254.91140492 -48.91401218 254.91140492 -48.91388988 253.23187828 C-48.91380812 252.13302255 -48.91372636 251.03416682 -48.91364212 249.90201244 C-48.9128293 232.09531108 -48.93196695 214.28869432 -48.96016662 196.48201743 C-48.98890732 178.18905944 -49.00270626 159.89614271 -49.00097907 141.60316157 C-49.00031558 131.33673768 -49.00578982 121.07040248 -49.02733517 110.80399895 C-49.04556254 102.06274563 -49.04988149 93.32162122 -49.03631632 84.5803571 C-49.02979457 80.12313813 -49.02964075 75.66616635 -49.04702282 71.20897102 C-49.06279374 67.12277752 -49.05984922 63.0370264 -49.04245456 58.95084342 C-49.03939348 57.47846764 -49.04298322 56.00605851 -49.05417471 54.53372207 C-49.16700071 38.62767687 -44.88269235 25.85096146 -34.04328442 14.06976891 C-24.89834119 5.28453601 -12.70201467 0.01379661 0 0 Z M-24.79328442 31.56976891 C-38.40232816 52.46937179 -30.54328442 78.25079715 -30.54328442 102.25726891 C126.53671558 102.25726891 283.61671558 102.25726891 445.45671558 102.25726891 C450.10503612 62.66976044 450.10503612 62.66976044 436.16765308 27.93695641 C426.18962254 18.141173 415.50810505 17.67300973 402.22478199 17.74933434 C400.47435774 17.74472097 398.72393737 17.73836513 396.97352505 17.73042536 C392.18105118 17.71376878 387.38889703 17.72196171 382.5964222 17.73437023 C377.42114913 17.74343343 372.24593043 17.72944469 367.07066822 17.71845055 C356.93926207 17.70067433 346.80797452 17.70450134 336.67656374 17.71610111 C328.44175176 17.72513867 320.206973 17.72635803 311.97215748 17.72200584 C310.79964644 17.72139291 309.6271354 17.72077998 308.41909373 17.72014847 C306.03707837 17.71886956 303.65506302 17.71757271 301.27304769 17.71625811 C278.94263698 17.70485493 256.61229199 17.71796192 234.28189206 17.73945957 C215.12594096 17.7573303 195.97008681 17.75422612 176.81413746 17.73578453 C154.56303213 17.71437321 132.31198437 17.70595355 110.06087017 17.71823359 C107.68767135 17.71950777 105.31447253 17.72076525 102.94127369 17.72200584 C101.18983506 17.7229315 101.18983506 17.7229315 99.40301383 17.72387585 C91.17914009 17.72732796 82.9553029 17.72150339 74.73143482 17.71208763 C64.70777865 17.70086339 54.68424775 17.70391674 44.66060591 17.72521061 C39.54745464 17.7357152 34.43451217 17.7398528 29.3213625 17.726614 C24.63828859 17.71467221 19.95561654 17.72128221 15.27257895 17.74252421 C13.58092512 17.74698268 11.88923716 17.744741 10.19760537 17.73502105 C-4.98877224 17.65447315 -14.10708658 20.58673224 -24.79328442 31.56976891 Z M-30.54328442 120.25726891 C-30.62578442 167.75664391 -30.70828442 215.25601891 -30.79328442 264.19476891 C-30.82970043 279.2006649 -30.86611645 294.2065609 -30.90363598 309.66718102 C-30.91701254 323.10175712 -30.91701254 323.10175712 -30.92505932 336.5363369 C-30.92879051 342.52683852 -30.9434675 348.51719104 -30.96558666 354.50765038 C-30.99106376 361.4177541 -31.00262454 368.32771474 -30.99706422 375.23786578 C-30.9946564 378.77210408 -30.99845105 382.30602267 -31.02014494 385.84020221 C-31.04003172 389.62820235 -31.03524814 393.41540223 -31.02430248 397.20342064 C-31.03595314 398.30137239 -31.0476038 399.39932413 -31.05960751 400.53054714 C-30.97532206 411.3784743 -26.98427316 419.41983404 -19.54328442 427.25726891 C-10.71245699 434.77843972 0.2917156 435.78336838 11.45671558 435.25726891 C11.4219109 434.37168297 11.38710621 433.48609703 11.35124683 432.57367516 C10.78630493 406.72085734 19.18742761 384.19807151 37.01921558 365.25726891 C57.218109 345.60759012 82.0704915 341.79422194 109.17473316 341.85321617 C111.55312895 341.84750509 113.93152199 341.84053798 116.30991077 341.83241844 C122.73567797 341.81455262 129.16130811 341.81564318 135.58709264 341.82136083 C139.60988619 341.8244356 143.63266044 341.82145046 147.65545177 341.81688309 C148.32583477 341.81613467 148.99621776 341.81538624 149.68691539 341.81461514 C151.04934449 341.81308347 152.41177358 341.81154512 153.77420267 341.81000017 C166.51642793 341.79631019 179.25859159 341.80168785 192.00081541 341.81318539 C203.62178316 341.82311177 215.24259155 341.81018118 226.86353473 341.78625119 C238.83655793 341.76178466 250.80950714 341.75227094 262.78255481 341.75890392 C269.4882267 341.76237974 276.19375825 341.75993215 282.89941311 341.74265289 C289.20906012 341.72710213 295.5184047 341.73122928 301.82804012 341.74995804 C304.13170536 341.75362162 306.43539342 341.75060135 308.73903751 341.74007225 C335.98754952 341.62512468 359.64456322 347.44986724 379.76921558 367.00726891 C396.48015094 383.92970077 403.6291043 407.03875604 403.5084734 430.33148766 C403.4943186 431.97344437 403.47595666 433.61536392 403.45671558 435.25726891 C415.43567049 436.0342822 426.29422959 434.12339693 435.58952808 426.10492516 C443.24108128 418.53340913 445.78162658 410.21679847 445.8439579 399.55672359 C445.83085091 397.91563075 445.83085091 397.91563075 445.81747913 396.24138451 C445.82133121 394.47001625 445.82133121 394.47001625 445.82526112 392.66286278 C445.82934482 389.40076382 445.82000428 386.13902683 445.80493377 382.87697057 C445.79178268 379.29935482 445.79622096 375.72175164 445.79838753 372.14411831 C445.79997904 365.20726293 445.78616094 358.27052456 445.76688354 351.3336992 C445.74524359 343.30564755 445.74289711 335.27766571 445.74052906 327.24957848 C445.72479208 306.06462347 445.68290857 284.87969442 445.64421558 263.69476891 C445.58234058 216.36039391 445.52046558 169.02601891 445.45671558 120.25726891 C288.37671558 120.25726891 131.29671558 120.25726891 -30.54328442 120.25726891 Z M46.45671558 381.25726891 C45.86374683 381.82961266 45.27077808 382.40195641 44.65984058 382.99164391 C34.79305462 393.28280776 29.58135525 408.31173706 28.45671558 422.25726891 C28.40386402 422.89406578 28.35101246 423.53086266 28.29655933 424.18695641 C27.58257433 440.63965441 33.42618048 456.44771109 43.45671558 469.25726891 C44.2572234 470.30527672 44.2572234 470.30527672 45.07390308 471.37445641 C55.32092529 483.9748617 71.87787377 492.79493244 88.05476439 494.53705871 C90.69020512 494.64189915 93.31103969 494.66241007 95.9484911 494.64494896 C96.94439862 494.6503345 97.94030615 494.65572003 98.9663927 494.66126877 C102.27164584 494.67546673 105.57649386 494.66846477 108.88176441 494.66132164 C111.26458525 494.66702951 113.64740335 494.67399538 116.03021717 494.68211937 C121.81201766 494.69816503 127.59369319 494.70016043 133.37551121 494.69490647 C138.07956384 494.69085124 142.78358448 494.69232431 147.48763561 494.69765472 C148.15929125 494.69840315 148.83094688 494.69915157 149.52295571 494.69992267 C150.88780661 494.70145429 152.25265749 494.70299263 153.61750837 494.70453764 C166.39396569 494.71824029 179.17036165 494.71284107 191.94681754 494.70135242 C203.60880165 494.69142551 215.27062697 494.70435526 226.93258659 494.72828662 C238.93601063 494.75273116 250.93936088 494.76227218 262.94280928 494.75563389 C269.67022761 494.75215312 276.39750606 494.75463685 283.12490749 494.77188492 C289.45420389 494.78740481 295.78319834 494.7833423 302.11248302 494.76457977 C304.42708118 494.76090769 306.74170195 494.76396174 309.05627918 494.77446556 C331.67680612 494.86923304 350.1701029 490.74536998 367.02165699 474.70844078 C378.4710379 463.13050268 385.15729621 447.37006908 386.45671558 431.25726891 C386.50956715 430.62047203 386.56241871 429.98367516 386.61687183 429.32758141 C387.35516501 412.31473855 380.80327898 394.90453591 369.45671558 382.25726891 C368.50925465 381.17252281 368.50925465 381.17252281 367.54265308 380.06586266 C357.08214547 368.82557175 341.13757379 359.90064275 325.44573998 359.16269815 C322.91171927 359.11921262 320.37945078 359.10958388 317.84505177 359.11009789 C316.87131056 359.1064212 315.89756936 359.10274451 314.89432085 359.09895641 C311.62816713 359.08793475 308.36204525 359.08407824 305.09587574 359.08026695 C302.75497302 359.074001 300.4140713 359.06735408 298.07317066 359.06035423 C290.3807135 359.0393216 282.68825617 359.02895043 274.99577808 359.01898766 C272.34476047 359.01493936 269.69374296 359.01082242 267.04272556 359.00663757 C256.01078657 358.98962601 244.97884855 358.97513506 233.94689846 358.96788883 C231.08607577 358.96597914 228.22525309 358.96405879 225.36443043 358.96210289 C224.65344505 358.96161915 223.94245967 358.96113541 223.20992927 358.96063701 C211.70991355 358.95234877 200.21000225 358.92703201 188.71003206 358.89452221 C176.8842195 358.86136593 165.05845983 358.84343223 153.23260057 358.84024459 C146.60062888 358.83808705 139.96879189 358.82900098 133.33686161 358.80378342 C127.09056447 358.78041652 120.84453994 358.77630421 114.59821033 358.7865448 C112.31466608 358.78703822 110.03110801 358.78077535 107.74760532 358.76698875 C83.28038481 358.62762169 64.00631755 363.27700186 46.45671558 381.25726891 Z " fill="#000000" transform="translate(48.54328441619873,-0.25726890563964844)"/>
<path d="M0 0 C0.85376221 -0.00524185 1.70752441 -0.0104837 2.5871582 -0.0158844 C4.37873251 -0.02226153 6.17034892 -0.02102403 7.96191406 -0.01245117 C10.68110541 -0.0039263 13.39820203 -0.03278563 16.1171875 -0.06445312 C17.86979105 -0.0660653 19.62239826 -0.0654873 21.375 -0.0625 C22.57539917 -0.07935097 22.57539917 -0.07935097 23.80004883 -0.09654236 C31.87781981 0.00172903 39.06721596 3.01550748 45.03955078 8.49316406 C48.53396558 12.60777278 50.76025725 17.4900966 53.125 22.30859375 C53.66576172 23.37851563 54.20652344 24.4484375 54.76367188 25.55078125 C56.08581997 28.17167659 57.39312551 30.79890198 58.6875 33.43359375 C59.3673999 33.44817627 60.0472998 33.46275879 60.74780273 33.4777832 C63.87406282 33.55295795 66.99933482 33.64938607 70.125 33.74609375 C71.72891602 33.77993164 71.72891602 33.77993164 73.36523438 33.81445312 C81.97147747 34.10395977 89.80782225 35.07328225 96.5 40.93359375 C97.56154297 41.8153125 97.56154297 41.8153125 98.64453125 42.71484375 C104.22856955 50.14599224 105.2779747 58.69223804 105.18920898 67.72900391 C105.19731346 69.33369789 105.19731346 69.33369789 105.20558167 70.97080994 C105.21798692 74.47171553 105.20163419 77.9717856 105.18359375 81.47265625 C105.18374891 83.92402184 105.18524061 86.37538767 105.18800354 88.82675171 C105.18938379 93.9490654 105.17688992 99.07109781 105.15405273 104.19335938 C105.12563965 110.7445622 105.12841886 117.29529917 105.14114285 123.84653664 C105.14811097 128.90300445 105.1402982 133.95936538 105.12788582 139.01581955 C105.12338449 141.43104009 105.12302293 143.84627215 105.12695122 146.26149368 C105.12987526 149.64022451 105.11329963 153.01832206 105.09155273 156.39697266 C105.09830521 157.87941216 105.09830521 157.87941216 105.10519409 159.39179993 C105.00665301 168.64880058 103.07006497 175.88555855 96.65625 182.70703125 C90.82412111 187.82171572 84.4236133 189.55235915 76.80697632 189.57403564 C75.60429108 189.57974579 74.40160583 189.58545593 73.16247559 189.59133911 C71.18785339 189.5930159 71.18785339 189.5930159 69.17333984 189.59472656 C67.77027252 189.59935698 66.36720646 189.60438194 64.96414185 189.60977173 C61.1539119 189.6228795 57.34369957 189.62933796 53.5334506 189.63378239 C51.15002043 189.6367168 48.76659503 189.64082239 46.38316727 189.64528656 C38.91766774 189.65895958 31.45217917 189.66862619 23.98666799 189.67248845 C15.38488173 189.67696355 6.78325483 189.6944867 -1.818483 189.72348905 C-8.47684222 189.74515493 -15.13515678 189.75519541 -21.79355085 189.75652957 C-25.76551214 189.75757444 -29.73732359 189.76341371 -33.70924759 189.78134918 C-37.45050711 189.79791414 -41.19150556 189.7999449 -44.93278885 189.79121017 C-46.94664673 189.79008129 -48.96049626 189.80373491 -50.9743042 189.81796265 C-61.29400803 189.77083915 -69.95500069 188.7122345 -77.62109375 181.40234375 C-82.26008624 176.00268505 -84.42676248 169.86773798 -84.45294189 162.79914856 C-84.45865204 161.87268524 -84.46436218 160.94622192 -84.47024536 159.99168396 C-84.47136322 158.98227249 -84.47248108 157.97286102 -84.47363281 156.93286133 C-84.47859772 155.86408752 -84.48356262 154.79531372 -84.48867798 153.69415283 C-84.50329205 150.15547035 -84.51010096 146.61683272 -84.515625 143.078125 C-84.52137779 140.61675516 -84.52713551 138.15538532 -84.53289795 135.6940155 C-84.54340629 130.52997631 -84.54924982 125.36595268 -84.55273438 120.2019043 C-84.55821373 113.59562442 -84.58223079 106.98955121 -84.61070633 100.38333607 C-84.62936279 95.29686388 -84.63453996 90.21044112 -84.63607025 85.12393761 C-84.63909132 82.68916382 -84.64710136 80.25439078 -84.66025543 77.81965065 C-84.6773757 74.40670857 -84.67542062 70.99426684 -84.66894531 67.58129883 C-84.6781601 66.58200851 -84.68737488 65.5827182 -84.6968689 64.55314636 C-84.64180383 55.2533239 -82.72525154 48.01373416 -76.28125 41.16015625 C-70.54344376 36.12819125 -64.15635728 34.39586503 -56.671875 34.1171875 C-55.06699219 34.0543457 -55.06699219 34.0543457 -53.4296875 33.99023438 C-52.31851563 33.95091797 -51.20734375 33.91160156 -50.0625 33.87109375 C-48.93585938 33.82791016 -47.80921875 33.78472656 -46.6484375 33.74023438 C-43.86991046 33.6342736 -41.09129609 33.53220233 -38.3125 33.43359375 C-37.99087891 32.77351318 -37.66925781 32.11343262 -37.33789062 31.43334961 C-35.84809106 28.40301015 -34.33065054 25.38732314 -32.8125 22.37109375 C-32.3071875 21.33275391 -31.801875 20.29441406 -31.28125 19.22460938 C-27.14113609 11.07376012 -22.91644922 5.00903613 -14.13476562 1.77685547 C-9.37370985 0.28158677 -4.96420165 -0.01821032 0 0 Z M-12.3125 22.43359375 C-13.94143915 24.9018439 -13.94143915 24.9018439 -15.125 27.55859375 C-15.54394531 28.42742187 -15.96289062 29.29625 -16.39453125 30.19140625 C-17.43879465 32.33827131 -17.43879465 32.33827131 -17.3125 34.43359375 C0.8375 34.43359375 18.9875 34.43359375 37.6875 34.43359375 C35.88012331 28.98820359 35.88012331 28.98820359 33.25 24.18359375 C32.83878906 23.5184375 32.42757812 22.85328125 32.00390625 22.16796875 C30.62613919 20.15623021 30.62613919 20.15623021 27.6875 18.43359375 C25.06069537 18.21392421 22.54239001 18.10562142 19.9140625 18.09765625 C19.15330414 18.09099945 18.39254578 18.08434265 17.60873413 18.07748413 C15.99992285 18.06736452 14.39106964 18.0626669 12.78222656 18.06298828 C10.32806693 18.05862145 7.87571567 18.02231591 5.421875 17.984375 C3.85677697 17.97850526 2.29167041 17.97453692 0.7265625 17.97265625 C-0.00380219 17.95828522 -0.73416687 17.94391418 -1.48666382 17.92910767 C-6.39310116 17.97281997 -8.87386822 18.9433044 -12.3125 22.43359375 Z M-65.60620117 57.10180664 C-66.67110879 60.61751097 -66.61757286 64.10230958 -66.61328125 67.7421875 C-66.61756638 68.545923 -66.6218515 69.34965851 -66.62626648 70.17774963 C-66.63199992 71.87475647 -66.6325173 73.57178787 -66.62817383 75.26879883 C-66.62501516 77.85866419 -66.64847969 80.44738526 -66.67382812 83.03710938 C-66.67610143 84.68880065 -66.67680447 86.34049498 -66.67578125 87.9921875 C-66.684991 88.76316269 -66.69420074 89.53413788 -66.70368958 90.32847595 C-66.66481385 94.86889058 -66.14729124 97.8334132 -63.3125 101.43359375 C-60.08646455 103.04661148 -56.56539962 102.55412974 -53.0234375 102.53125 C-52.20501373 102.52983505 -51.38658997 102.5284201 -50.54336548 102.52696228 C-47.92470675 102.52135665 -45.30613296 102.50880323 -42.6875 102.49609375 C-40.91406373 102.49107947 -39.14062613 102.48651644 -37.3671875 102.48242188 C-33.01559218 102.47138539 -28.6640605 102.454117 -24.3125 102.43359375 C-24.12856689 101.81798584 -23.94463379 101.20237793 -23.75512695 100.56811523 C-23.50206787 99.75930908 -23.24900879 98.95050293 -22.98828125 98.1171875 C-22.74247314 97.31595459 -22.49666504 96.51472168 -22.2434082 95.68920898 C-20.39979861 91.22209411 -17.0755688 89.17300289 -12.66552734 87.32348633 C-8.52314969 86.22410038 -4.74236005 86.12793444 -0.4765625 86.1328125 C0.36162018 86.12852737 1.19980286 86.12424225 2.06338501 86.11982727 C3.83000794 86.11410542 5.59665442 86.11356783 7.36328125 86.11791992 C10.0472897 86.12107587 12.73019036 86.09760839 15.4140625 86.07226562 C17.13801946 86.0699918 18.86197935 86.06928952 20.5859375 86.0703125 C21.37890228 86.06110275 22.17186707 86.05189301 22.98886108 86.04240417 C29.8349474 86.0984513 35.45800939 87.30103752 40.5625 92.18359375 C42.79009908 95.59050999 43.65936399 98.5248244 44.6875 102.43359375 C49.88359458 102.5078128 55.07937983 102.56222821 60.27587891 102.59838867 C62.04318619 102.61346477 63.81045614 102.63392897 65.57763672 102.65991211 C68.11955995 102.69634777 70.66098806 102.71333169 73.203125 102.7265625 C73.99180969 102.74204636 74.78049438 102.75753021 75.59307861 102.77348328 C78.8602867 102.77448309 81.25003219 102.66950956 84.15527344 101.1027832 C87.53613081 97.41971726 86.88238232 92.70418512 86.92578125 88.00390625 C86.93788887 86.76288651 86.93788887 86.76288651 86.95024109 85.49679565 C86.96406427 83.74674566 86.97479432 81.99666891 86.98266602 80.24658203 C86.9998921 77.57532594 87.04379394 74.90530372 87.08789062 72.234375 C87.09801701 70.53256117 87.10653328 68.83073683 87.11328125 67.12890625 C87.13954338 65.93492722 87.13954338 65.93492722 87.16633606 64.71682739 C87.15107076 60.7996084 86.95518205 58.86747107 84.84838867 55.45263672 C81.43519128 52.26348946 78.5659753 52.30627892 74.08340454 52.29315186 C72.91693893 52.28744171 71.75047333 52.28173157 70.54866028 52.27584839 C68.62699287 52.2741716 68.62699287 52.2741716 66.66650391 52.27246094 C65.30473191 52.26783202 63.94296121 52.26280726 62.58119202 52.25741577 C58.88073923 52.24429777 55.18030458 52.23784811 51.47983217 52.23340511 C49.16797294 52.23047371 46.85611867 52.22636879 44.54426193 52.22190094 C37.31103146 52.20822822 30.07781231 52.19856019 22.8445698 52.19469905 C14.49458381 52.19021726 6.14476143 52.17266292 -2.2051748 52.14369845 C-8.65961587 52.1220861 -15.11401089 52.11199503 -21.56848776 52.11065793 C-25.42349323 52.10960967 -29.27834485 52.10369745 -33.13331223 52.08583832 C-36.75963703 52.06936502 -40.38569221 52.06719836 -44.01204109 52.07597733 C-45.9755817 52.07711533 -47.93911333 52.06339262 -49.90260315 52.04922485 C-51.0747084 52.05479401 -52.24681366 52.06036316 -53.45443726 52.06610107 C-54.47096563 52.06463451 -55.48749401 52.06316795 -56.53482628 52.06165695 C-60.37771879 52.57622896 -63.21250544 54.01516333 -65.60620117 57.10180664 Z M-6.3125 103.43359375 C-6.3125 109.04359375 -6.3125 114.65359375 -6.3125 120.43359375 C4.5775 120.43359375 15.4675 120.43359375 26.6875 120.43359375 C26.6875 114.82359375 26.6875 109.21359375 26.6875 103.43359375 C15.7975 103.43359375 4.9075 103.43359375 -6.3125 103.43359375 Z M-66.3125 119.43359375 C-66.38141872 125.75114272 -66.44113911 132.06738422 -66.47729492 138.38500977 C-66.49236915 140.53349226 -66.51283189 142.68194405 -66.53881836 144.83032227 C-66.57526114 147.92081283 -66.59224019 151.01089606 -66.60546875 154.1015625 C-66.62095261 155.06007614 -66.63643646 156.01858978 -66.65238953 157.00614929 C-66.67504907 163.73684651 -66.67504907 163.73684651 -63.3125 169.43359375 C-60.03639671 171.50618637 -57.42609284 171.68652667 -53.58815002 171.69429016 C-51.83638962 171.70491737 -51.83638962 171.70491737 -50.04924011 171.71575928 C-48.77172379 171.71328186 -47.49420746 171.71080444 -46.17797852 171.70825195 C-44.81605754 171.71260019 -43.45413901 171.71778371 -42.09222412 171.72373962 C-38.39593458 171.73712888 -34.6997473 171.73770839 -31.00343823 171.73517632 C-27.91692276 171.73410657 -24.83042797 171.73899008 -21.74391693 171.74378175 C-14.46199333 171.75487665 -7.18012132 171.75531442 0.10180664 171.74926758 C7.61245197 171.74322668 15.12291002 171.75554168 22.6335234 171.77683765 C29.08374712 171.794454 35.53391122 171.80045496 41.9841581 171.7971999 C45.83578303 171.79538697 49.68727435 171.79802418 53.53887749 171.81191444 C57.16112863 171.82448882 60.78308782 171.82255262 64.40533447 171.80950356 C66.3664679 171.80600995 68.32761022 171.8173186 70.28871155 171.82907104 C71.45937164 171.82205673 72.63003174 171.81504242 73.83616638 171.80781555 C75.35901072 171.80806716 75.35901072 171.80806716 76.91261959 171.80832386 C80.16149836 171.36958326 82.0425774 170.33830332 84.6875 168.43359375 C86.64591451 165.56615046 86.93381483 163.27763362 86.91455078 159.84863281 C86.91439972 158.9480011 86.91424866 158.04736938 86.91409302 157.1194458 C86.90377045 156.15577087 86.89344788 155.19209595 86.8828125 154.19921875 C86.8799826 153.20605652 86.87715271 152.21289429 86.87423706 151.18963623 C86.86305143 148.02083231 86.83794962 144.8523121 86.8125 141.68359375 C86.80246812 139.53385825 86.79334263 137.38411832 86.78515625 135.234375 C86.76481986 129.96725095 86.72566772 124.70073955 86.6875 119.43359375 C72.8275 119.76359375 58.9675 120.09359375 44.6875 120.43359375 C43.6975 123.73359375 42.7075 127.03359375 41.6875 130.43359375 C37.44125764 135.06585814 32.96796031 137.02103272 26.70001221 137.62515259 C24.53973226 137.71226117 22.38858622 137.73702006 20.2265625 137.734375 C19.04155655 137.74080269 19.04155655 137.74080269 17.83261108 137.74736023 C16.17031812 137.75307261 14.50800018 137.75362675 12.84570312 137.74926758 C10.32638114 137.74611114 7.80823945 137.76959239 5.2890625 137.79492188 C-13.55562295 137.87073658 -13.55562295 137.87073658 -20.25 131.74609375 C-22.3125 128.43359375 -22.3125 128.43359375 -24.3125 120.43359375 C-38.1725 120.10359375 -52.0325 119.77359375 -66.3125 119.43359375 Z " fill="#000000" transform="translate(126.3125,135.56640625)"/>
<path d="M0 0 C2.18135854 -0.00337296 4.36271524 -0.00822957 6.54406738 -0.01449585 C11.10329175 -0.02184442 15.66202445 -0.01122642 20.22119141 0.01220703 C26.04504795 0.04069301 31.86775213 0.02427827 37.69156647 -0.00565529 C42.19224624 -0.02378257 46.69265591 -0.01794527 51.19334412 -0.00501633 C53.33979939 -0.00169734 55.48627973 -0.00571592 57.63270569 -0.01741409 C80.50278566 -0.11472465 80.50278566 -0.11472465 88.59020996 7.40390015 C94.16027525 13.21981854 95.89428297 18.6749473 96.15625 26.6015625 C96.02236759 32.60714497 95.15598476 36.75372713 91.71875 41.6640625 C91.161875 42.5509375 90.605 43.4378125 90.03125 44.3515625 C82.71787879 51.66493371 74.6254785 52.81202312 64.75683594 52.82519531 C63.4168026 52.83264267 63.4168026 52.83264267 62.04969788 52.84024048 C59.10083234 52.85481808 56.15202062 52.86165703 53.203125 52.8671875 C51.14674885 52.87294289 49.09037272 52.87870057 47.03399658 52.88446045 C42.72334545 52.89495814 38.41271289 52.90080876 34.10205078 52.90429688 C28.59324355 52.90977676 23.08468407 52.93379933 17.57595444 52.96226883 C13.32758886 52.98094339 9.07928236 52.98610339 4.83087921 52.98763275 C2.80081072 52.99064929 0.77074302 52.99864388 -1.25928497 53.01181793 C-4.10696464 53.02897808 -6.95404664 53.02697384 -9.80175781 53.02050781 C-10.63116379 53.0297226 -11.46056976 53.03893738 -12.31510925 53.0484314 C-20.96276603 52.9872883 -28.17886803 50.76243967 -34.484375 44.734375 C-40.0797369 38.28754499 -42.04599507 31.98027043 -41.6328125 23.48828125 C-40.6063822 15.24262451 -37.00535443 9.44876519 -30.54138184 4.27017212 C-21.36060551 -1.33616132 -10.36413856 -0.05648528 0 0 Z M-23.28125 23.6640625 C-23.42649779 27.80362445 -23.09232048 29.79048933 -20.25306702 32.84854126 C-16.36384037 35.22451984 -13.02740357 35.21138964 -8.60717773 35.14990234 C-7.31361862 35.15559738 -7.31361862 35.15559738 -5.993927 35.16140747 C-3.15052632 35.16880183 -0.30815322 35.14744794 2.53515625 35.125 C4.51382833 35.122615 6.4925027 35.12171037 8.47117615 35.1222229 C12.61463633 35.1190969 16.75775001 35.10254567 20.90112305 35.07568359 C26.21311282 35.04168197 31.52472235 35.03405579 36.8368082 35.03557396 C40.92115409 35.03503024 45.0054168 35.02406317 49.08973503 35.00957108 C51.0485566 35.00320593 53.0073876 34.99926484 54.96621895 34.99778366 C57.70233354 34.99344893 60.4380444 34.9759448 63.17407227 34.95458984 C63.98405167 34.95549622 64.79403107 34.95640259 65.6285553 34.95733643 C71.005579 34.94080581 71.005579 34.94080581 75.71875 32.6640625 C78.06424674 29.14581739 78.29866403 27.80630556 77.71875 23.6640625 C75.74221725 21.00676407 74.1420551 19.01128296 70.81971741 18.20078659 C68.4922396 18.01263962 66.21194478 17.98844698 63.87695312 18.01708984 C62.99667953 18.00832825 62.11640594 17.99956665 61.2094574 17.99053955 C58.30580039 17.96857077 55.40367191 17.98308924 52.5 18 C50.47887887 17.99663114 48.45775971 17.99177794 46.43664551 17.98550415 C42.2031727 17.97813623 37.97022779 17.98883593 33.73681641 18.01220703 C28.31249218 18.04069453 22.88940488 18.02429015 17.46512604 17.99434471 C13.29232477 17.9762697 9.11981636 17.98203075 4.94700623 17.99498367 C2.94713698 17.99831711 0.94724107 17.99423281 -1.05259705 17.98258591 C-3.84893123 17.96987397 -6.64326762 17.98925867 -9.43945312 18.01708984 C-10.67708153 18.00190811 -10.67708153 18.00190811 -11.93971252 17.98641968 C-17.35338242 18.08615108 -19.92753032 19.06329805 -23.28125 23.6640625 Z " fill="#000000" transform="translate(382.28125,33.3359375)"/>
<path d="M0 0 C0.81897505 -0.00297112 1.63795009 -0.00594224 2.48174256 -0.0090034 C5.24159731 -0.01771435 8.00140881 -0.01920067 10.76127625 -0.02069092 C12.73372999 -0.0253174 14.70618284 -0.03034183 16.67863464 -0.03573608 C22.04851504 -0.04887856 27.41838293 -0.05530866 32.78827691 -0.05974674 C36.14086785 -0.06267454 39.49345533 -0.06677878 42.84604454 -0.07125092 C53.32881286 -0.08493081 63.81157334 -0.09459501 74.29434997 -0.09845281 C86.40756771 -0.1029347 98.52067268 -0.12048669 110.63385612 -0.1494534 C119.98846428 -0.1710492 129.34304067 -0.18115597 138.6976735 -0.18249393 C144.28865939 -0.18354348 149.87953933 -0.18948312 155.47049904 -0.20731354 C160.72930836 -0.22375784 165.98793169 -0.22596744 171.24675751 -0.21717453 C173.17812026 -0.2164022 175.10949287 -0.22077261 177.04083061 -0.23063278 C179.67539276 -0.24329544 182.30929056 -0.23750655 184.94384766 -0.22705078 C185.70999982 -0.23510719 186.47615198 -0.24316359 187.26552087 -0.25146413 C191.74568165 -0.2098162 194.58477856 0.40163877 198.16239929 3.14044189 C200.26341524 5.81446219 200.16086905 7.18328874 200.03739929 10.64044189 C199.04369488 14.61525953 198.42290792 15.73485099 195.16239929 18.14044189 C192.30298613 18.53325334 189.82885441 18.68113101 186.97039795 18.64837646 C185.72099612 18.65773641 185.72099612 18.65773641 184.44635385 18.66728544 C181.65097625 18.68326008 178.85646524 18.67059383 176.06108093 18.65802002 C174.05877167 18.66343919 172.0564664 18.6705607 170.0541687 18.67926025 C164.61199553 18.69752197 159.1701251 18.69041394 153.72794652 18.67774391 C148.03677242 18.66762963 142.34562456 18.67700535 136.65444946 18.68328857 C127.0952844 18.69057015 117.53624287 18.68096448 107.97709656 18.66192627 C96.92187121 18.64016284 85.86694099 18.64720311 74.81172282 18.66923189 C65.32541725 18.68737874 55.83920059 18.6899475 46.35288328 18.67947721 C40.68479191 18.67323758 35.01683928 18.67241952 29.34875679 18.68562317 C24.01925011 18.69717035 18.69012416 18.6891764 13.36065865 18.66604614 C11.40350477 18.66075276 9.4463189 18.66228355 7.4891777 18.6710968 C4.81947932 18.68201116 2.15100448 18.66833864 -0.51861572 18.64837646 C-1.29507649 18.65729935 -2.07153726 18.66622224 -2.87152714 18.67541552 C-6.5693135 18.62170223 -8.66645987 18.2491378 -11.81823063 16.24736786 C-13.83760071 14.14044189 -13.83760071 14.14044189 -14.46650696 11.92169189 C-14.28653182 5.73901672 -14.28653182 5.73901672 -11.96260071 2.64044189 C-7.98013741 -0.17070867 -4.73567059 -0.00530945 0 0 Z " fill="#000000" transform="translate(269.8376007080078,186.85955810546875)"/>
<path d="M0 0 C6.38260922 3.93732387 11.17305165 9.5658959 13.46948242 16.72412109 C14.80613903 22.4024229 14.6804102 28.10915152 14.67578125 33.9140625 C14.68006638 35.10929535 14.6843515 36.3045282 14.68876648 37.53598022 C14.69448871 40.0523007 14.69502566 42.56863772 14.69067383 45.08496094 C14.68750459 48.93192633 14.71103269 52.778129 14.73632812 56.625 C14.73860041 59.07551987 14.73930495 61.52604179 14.73828125 63.9765625 C14.747491 65.12355621 14.75670074 66.27054993 14.76618958 67.45230103 C14.73333744 73.12140523 14.69013673 77.46757484 11.375 82.3125 C8.73055365 84.48472379 7.34512982 84.31143321 3.875 84.1875 C-0.17859087 83.17410228 -1.2738373 82.73701958 -3.625 79.3125 C-4.1204779 75.71799134 -4.00031183 72.182084 -3.875 68.5625 C-3.85695312 67.57894531 -3.83890625 66.59539062 -3.8203125 65.58203125 C-3.77325241 63.15843659 -3.70151086 60.73534375 -3.625 58.3125 C-9.235 58.3125 -14.845 58.3125 -20.625 58.3125 C-20.57859375 59.78203125 -20.5321875 61.2515625 -20.484375 62.765625 C-20.44685517 64.69789635 -20.41045524 66.63018967 -20.375 68.5625 C-20.32472656 70.01462891 -20.32472656 70.01462891 -20.2734375 71.49609375 C-20.17463962 78.65894014 -20.17463962 78.65894014 -22.42578125 81.92578125 C-25.55109053 83.89644696 -27.94541463 84.24794587 -31.625 84.3125 C-34.8438212 83.02497152 -36.21133706 82.15449414 -37.74554443 79.03167725 C-38.67262121 76.16526061 -38.87859788 73.93556919 -38.88378906 70.93066406 C-38.89009338 69.87897034 -38.89639771 68.82727661 -38.90289307 67.74371338 C-38.8988446 66.61656921 -38.89479614 65.48942505 -38.890625 64.328125 C-38.89253845 63.15795837 -38.8944519 61.98779175 -38.89642334 60.78216553 C-38.8977833 58.30757431 -38.89410007 55.83297591 -38.88574219 53.35839844 C-38.87507876 49.59032941 -38.88562434 45.82274134 -38.8984375 42.0546875 C-38.89711512 39.64583229 -38.89455111 37.23697737 -38.890625 34.828125 C-38.89467346 33.70907776 -38.89872192 32.59003052 -38.90289307 31.43707275 C-38.84325834 21.36947292 -38.22552384 12.87780042 -30.76171875 5.4609375 C-22.48102145 -2.1180058 -10.65331402 -5.03129744 0 0 Z M-18 18.0625 C-21.20821051 22.50463762 -20.74784606 27.26699998 -20.6875 32.5625 C-20.666875 35.12 -20.64625 37.6775 -20.625 40.3125 C-15.015 40.3125 -9.405 40.3125 -3.625 40.3125 C-3.563125 37.610625 -3.50125 34.90875 -3.4375 32.125 C-3.41018799 31.28300049 -3.38287598 30.44100098 -3.35473633 29.57348633 C-3.30377382 24.96329711 -3.6912865 22.08441735 -6.625 18.3125 C-8.55667398 15.96436266 -8.55667398 15.96436266 -12 15.9375 C-15.62509083 16.00279025 -15.62509083 16.00279025 -18 18.0625 Z " fill="#000000" transform="translate(148.625,385.6875)"/>
<path d="M0 0 C1.20205078 -0.00644531 2.40410156 -0.01289063 3.64257812 -0.01953125 C5.51526367 0.00947266 5.51526367 0.00947266 7.42578125 0.0390625 C8.65490234 0.01972656 9.88402344 0.00039063 11.15039062 -0.01953125 C19.87823179 0.02701724 26.99940965 1.40680085 33.64086914 7.37329102 C38.96488209 12.93441604 40.86910916 18.95160464 41.23828125 26.5390625 C40.98928832 34.76620391 37.93316762 40.89815341 32.05078125 46.6015625 C25.95525924 51.44145264 19.59211267 52.82897958 11.9140625 52.73046875 C10.45286987 52.71608765 10.45286987 52.71608765 8.9621582 52.70141602 C8.22827881 52.68908936 7.49439941 52.6767627 6.73828125 52.6640625 C6.75922852 53.48608154 6.78017578 54.30810059 6.80175781 55.1550293 C6.88501434 58.88708214 6.93697372 62.61893944 6.98828125 66.3515625 C7.02179688 67.64513672 7.0553125 68.93871094 7.08984375 70.27148438 C7.10273438 71.51865234 7.115625 72.76582031 7.12890625 74.05078125 C7.14985352 75.19764404 7.17080078 76.34450684 7.19238281 77.52612305 C6.64213024 81.32848665 5.39556934 82.94531459 2.73828125 85.6640625 C-0.11496312 87.09068469 -2.09626424 86.97440118 -5.26171875 86.6640625 C-7.96162537 84.86412476 -9.80360525 83.5802895 -11.26171875 80.6640625 C-11.37973653 78.32199576 -11.43161933 75.97651763 -11.45458984 73.6315918 C-11.46276733 72.90781342 -11.47094482 72.18403503 -11.47937012 71.43832397 C-11.50422288 69.03831817 -11.52073981 66.63837151 -11.53515625 64.23828125 C-11.54047993 63.41891397 -11.5458036 62.5995467 -11.5512886 61.75535011 C-11.57801981 57.41837118 -11.59739468 53.08142102 -11.61181641 48.74438477 C-11.62846361 44.26506922 -11.67324131 39.78648953 -11.72418785 35.3074522 C-11.75784675 31.86303362 -11.76939228 28.41878999 -11.77504349 24.97422218 C-11.78175988 23.32318308 -11.79699221 21.67215564 -11.8209343 20.02127647 C-11.85256178 17.70848033 -11.85262745 15.39767248 -11.84521484 13.0847168 C-11.8533017 11.76948532 -11.86138855 10.45425385 -11.86972046 9.09916687 C-10.67012759 2.32167489 -6.51119131 0.03389984 0 0 Z M6.73828125 18.6640625 C6.73828125 23.9440625 6.73828125 29.2240625 6.73828125 34.6640625 C14.27180124 35.13765819 14.27180124 35.13765819 20.73828125 31.6640625 C23.0835106 28.77893272 23.0835106 28.77893272 22.61328125 25.1640625 C22.06473778 21.70169758 22.06473778 21.70169758 20.04296875 19.95703125 C17.16090721 18.34014588 15.27028503 18.35934808 11.98828125 18.4765625 C10.25578125 18.5384375 8.52328125 18.6003125 6.73828125 18.6640625 Z " fill="#000000" transform="translate(258.26171875,383.3359375)"/>
<path d="M0 0 C1.25039062 -0.00644531 2.50078125 -0.01289063 3.7890625 -0.01953125 C5.74585938 0.00947266 5.74585938 0.00947266 7.7421875 0.0390625 C9.02351563 0.01972656 10.30484375 0.00039063 11.625 -0.01953125 C20.5367769 0.02612334 27.69169342 1.31312503 34.51757812 7.34277344 C39.58306931 12.52090261 41.69340563 19.01819617 41.9921875 26.1640625 C41.64573242 34.13252924 39.04885003 40.13550628 33.58203125 45.9375 C27.4899371 51.29079148 20.77419308 52.82258064 12.8046875 52.7265625 C11.82886719 52.71753906 10.85304687 52.70851563 9.84765625 52.69921875 C8.74357422 52.68181641 8.74357422 52.68181641 7.6171875 52.6640625 C7.63289795 53.45578857 7.6486084 54.24751465 7.66479492 55.06323242 C7.72725449 58.65926945 7.76621385 62.2551922 7.8046875 65.8515625 C7.82982422 67.09744141 7.85496094 68.34332031 7.88085938 69.62695312 C7.89052734 70.82900391 7.90019531 72.03105469 7.91015625 73.26953125 C7.9258667 74.37449951 7.94157715 75.47946777 7.95776367 76.61791992 C7.57393306 80.05093394 6.63517007 81.89115565 4.6171875 84.6640625 C1.9431672 86.76507845 0.57434065 86.66253226 -2.8828125 86.5390625 C-6.83488016 85.55104559 -7.96092964 84.87539652 -10.3828125 81.6640625 C-10.77792622 79.07166877 -10.93085057 76.90252112 -10.90039062 74.31274414 C-10.9073999 73.57892014 -10.91440918 72.84509613 -10.92163086 72.08903503 C-10.93921338 69.66704283 -10.92758695 67.24622252 -10.9140625 64.82421875 C-10.91675765 63.13797278 -10.92064027 61.45172833 -10.92565918 59.76548767 C-10.93155479 56.23226111 -10.92299062 52.69943925 -10.90429688 49.16625977 C-10.88152445 44.64217125 -10.89461865 40.11903282 -10.91858673 35.59497929 C-10.93305815 32.11275609 -10.92843233 28.63075719 -10.91807556 25.14852715 C-10.91541107 23.48079757 -10.9186683 21.8130475 -10.92799377 20.14534187 C-10.93818 17.8112733 -10.92263079 15.47873062 -10.90039062 13.14477539 C-10.90848755 12.45837982 -10.91658447 11.77198425 -10.92492676 11.06478882 C-10.86368263 7.58664164 -10.40877173 5.70519124 -8.53530884 2.73695374 C-5.64936538 -0.04225977 -3.9644505 0.01977987 0 0 Z M7.6171875 18.6640625 C7.6171875 23.9440625 7.6171875 29.2240625 7.6171875 34.6640625 C15.16957781 35.16518095 15.16957781 35.16518095 21.6171875 31.6640625 C23.56382382 29.0980419 23.62489486 27.85289276 23.4921875 24.6015625 C22.45411616 21.11660873 21.71681182 20.45028669 18.6171875 18.6640625 C15.79888867 18.30305716 15.79888867 18.30305716 12.8671875 18.4765625 C11.1346875 18.5384375 9.4021875 18.6003125 7.6171875 18.6640625 Z " fill="#000000" transform="translate(189.3828125,383.3359375)"/>
<path d="M0 0 C1.82965553 -0.01691895 1.82965553 -0.01691895 3.6962738 -0.03417969 C5.04495477 -0.02640275 6.39363339 -0.01821009 7.74230957 -0.00964355 C9.16497006 -0.01506466 10.58762493 -0.02218726 12.01026917 -0.03088379 C15.87188793 -0.04912181 19.73307932 -0.0420479 23.59470558 -0.02936745 C27.63541442 -0.01924215 31.6760866 -0.02863181 35.71679688 -0.03491211 C42.50254895 -0.04218991 49.2881269 -0.03259743 56.07385254 -0.0135498 C63.91972861 0.00821931 71.76518891 0.00116802 79.6110549 -0.02085543 C86.34663499 -0.03900574 93.08208991 -0.04156959 99.81768656 -0.03110075 C103.8408836 -0.02486374 107.8638852 -0.02403574 111.8870697 -0.0372467 C115.66946823 -0.04879936 119.4513306 -0.04079087 123.23367119 -0.01766968 C124.62200976 -0.01237936 126.01039343 -0.01390198 127.39871407 -0.02272034 C129.29321815 -0.03364467 131.18782081 -0.01751815 133.08227539 0 C134.67287151 0.00226215 134.67287151 0.00226215 136.29560089 0.00457001 C139.75378583 0.63859092 140.91459027 1.75466814 143.0411377 4.50793457 C144.09704252 8.37958561 144.41596293 10.57087147 142.9161377 14.32043457 C140.17421164 17.5193483 137.43326137 18.38000972 133.27184391 18.76241016 C132.25921199 18.76446303 131.24658007 18.7665159 130.20326233 18.76863098 C128.45160767 18.77925819 128.45160767 18.77925819 126.66456604 18.7901001 C125.39221603 18.78762268 124.11986603 18.78514526 122.80895996 18.78259277 C121.448514 18.78694243 120.0880705 18.79212643 118.72763062 18.79808044 C115.03959724 18.81145421 111.35166645 18.81205095 107.66361356 18.80951715 C104.58211283 18.80844637 101.50063276 18.81333351 98.41913646 18.81812257 C91.14818296 18.82921205 83.87728111 18.82965825 76.60632324 18.8236084 C69.11101379 18.81756768 61.61589202 18.8298833 54.12061459 18.85117847 C47.67969682 18.86880365 41.23883875 18.8747944 34.79789776 18.87154073 C30.95352158 18.86972924 27.1092793 18.87235053 23.264925 18.88625526 C19.64922362 18.89884405 16.0338145 18.8968798 12.41811752 18.88384438 C10.46314988 18.88035684 8.50817328 18.89164873 6.55323792 18.90341187 C-4.22378469 18.83883466 -4.22378469 18.83883466 -8.9588623 15.50793457 C-11.13108609 12.86348822 -10.95779551 11.47806439 -10.8338623 8.00793457 C-9.26114891 1.71708097 -6.30052278 0.00896063 0 0 Z " fill="#000000" transform="translate(325.9588623046875,255.4920654296875)"/>
<path d="M0 0 C1.02342499 -0.00426498 2.04684998 -0.00852997 3.10128784 -0.01292419 C4.22343689 -0.01247101 5.34558594 -0.01201782 6.5017395 -0.0115509 C7.68408173 -0.01490952 8.86642395 -0.01826813 10.08459473 -0.02172852 C13.32846098 -0.02960784 16.57228885 -0.03290652 19.81616354 -0.0335443 C21.84325656 -0.03425503 23.87034288 -0.03638978 25.89743423 -0.03904152 C32.97061845 -0.04829425 40.04378381 -0.05237653 47.11697388 -0.05158997 C53.70790719 -0.05098932 60.29875861 -0.06153862 66.88967121 -0.07733363 C72.55006415 -0.09041476 78.21043035 -0.09577362 83.87083828 -0.09513456 C87.25073253 -0.09487972 90.63055402 -0.09772303 94.0104332 -0.10831261 C97.78104226 -0.11808976 101.55143966 -0.11524328 105.322052 -0.10920715 C106.99920288 -0.11763641 106.99920288 -0.11763641 108.7102356 -0.12623596 C109.73930023 -0.12204147 110.76836487 -0.11784698 111.82861328 -0.11352539 C112.71977781 -0.11407016 113.61094234 -0.11461493 114.52911186 -0.1151762 C118.2637221 0.25482272 121.09794757 1.25542817 123.85379028 3.82121277 C125.57691057 7.1767628 125.56337117 9.41388642 125.04129028 13.13371277 C123.27592468 15.81692505 123.27592468 15.81692505 120.04129028 18.13371277 C115.96163458 18.88444289 111.92529778 18.80607738 107.78713989 18.76481628 C105.9229969 18.77554924 105.9229969 18.77554924 104.02119446 18.78649902 C100.61995473 18.80049805 97.22023827 18.7920922 93.81912303 18.77240872 C90.2575547 18.75600464 86.69603542 18.76483738 83.13444519 18.76992798 C77.15494255 18.77444642 71.17575299 18.75859347 65.19631958 18.7306366 C58.28481117 18.69857083 51.3738669 18.69860669 44.46231836 18.71585137 C37.8099415 18.73171739 31.15777134 18.72498348 24.50540352 18.70791435 C21.67570043 18.70104468 18.84616307 18.70207528 16.01646233 18.7094593 C12.06610491 18.71854597 8.11632695 18.69458441 4.16604614 18.66716003 C2.99138794 18.67368591 1.81672974 18.68021179 0.60647583 18.68693542 C-0.46880875 18.67421097 -1.54409332 18.66148651 -2.65196228 18.64837646 C-3.58569703 18.64556954 -4.51943178 18.64276262 -5.48146152 18.63987064 C-8.71130784 17.97993994 -9.91470492 16.66420212 -11.95870972 14.13371277 C-12.69219145 11.07034788 -12.53240852 8.22373406 -11.95870972 5.13371277 C-8.69753414 0.63553956 -5.32571694 0.01002355 0 0 Z " fill="#000000" transform="translate(267.9587097167969,220.8662872314453)"/>
<path d="M0 0 C1.0094165 -0.0112793 2.01883301 -0.02255859 3.05883789 -0.03417969 C4.16026123 -0.02608276 5.26168457 -0.01798584 6.39648438 -0.00964355 C7.56107178 -0.01665283 8.72565918 -0.02366211 9.92553711 -0.03088379 C13.78067771 -0.04850975 17.63508612 -0.03682384 21.49023438 -0.02331543 C24.1653739 -0.026009 26.84049107 -0.02988396 29.515625 -0.03491211 C35.12442987 -0.0421874 40.733024 -0.03260414 46.34179688 -0.0135498 C52.82441344 0.008219 59.30652679 0.00116752 65.78913116 -0.02085543 C71.35700027 -0.03901302 76.92471797 -0.04156609 82.49260712 -0.03110075 C85.81719107 -0.02486765 89.14148689 -0.02559741 92.46606445 -0.0372467 C96.17238595 -0.04738291 99.87773545 -0.03195028 103.58398438 -0.00964355 C104.68540771 -0.01774048 105.78683105 -0.0258374 106.92163086 -0.03417969 C108.43575562 -0.01726074 108.43575562 -0.01726074 109.98046875 0 C110.85650757 0.0015081 111.73254639 0.0030162 112.63513184 0.00457001 C115.7741496 0.6754836 116.98853962 2.05607691 118.99023438 4.50793457 C119.72342839 7.57009782 119.56927656 10.41970958 118.99023438 13.50793457 C117.11402824 16.00954275 115.75132134 17.12739109 112.99023438 18.50793457 C111.4558004 18.60660995 109.91715638 18.64297699 108.37956238 18.64837646 C107.40799698 18.65408661 106.43643158 18.65979675 105.4354248 18.66567993 C104.36578491 18.66679779 103.29614502 18.66791565 102.1940918 18.66906738 C100.50857964 18.67651474 100.50857964 18.67651474 98.78901672 18.68411255 C95.05790604 18.69876205 91.32683788 18.70554091 87.59570312 18.71105957 C85.00979104 18.71680883 82.42387897 18.72256659 79.83796692 18.72833252 C75.10424614 18.73750491 70.37054244 18.74380192 65.6368143 18.74682927 C58.67120648 18.75130843 51.70579505 18.76884861 44.74024695 18.79782987 C38.70677028 18.82206108 32.67338642 18.8297741 26.63985634 18.83150482 C24.07338708 18.83453585 21.50691874 18.84257943 18.94048119 18.85569 C15.35168905 18.87271401 11.7633765 18.87087884 8.17456055 18.86437988 C6.57920975 18.87820206 6.57920975 18.87820206 4.95162964 18.89230347 C-4.13480746 18.84066829 -4.13480746 18.84066829 -8.00976562 15.50793457 C-9.15969928 13.20806726 -9.24145853 11.69324369 -9.32226562 9.13293457 C-9.35964844 8.3620752 -9.39703125 7.59121582 -9.43554688 6.79699707 C-8.47991569 1.65938354 -4.84666872 0.00834355 0 0 Z " fill="#000000" transform="translate(265.009765625,289.4920654296875)"/>
<path d="M0 0 C2.72850823 0.06984981 4.24429837 0.19387922 6.46484375 1.8125 C8.06650728 3.64782797 9.41135011 5.52686711 10.75 7.5625 C11.31074219 8.3771875 11.87148438 9.191875 12.44921875 10.03125 C13.91440027 12.18974586 15.34463948 14.36475536 16.75 16.5625 C19.72874034 13.74122611 22.07548603 10.83105585 24.375 7.4375 C26.07828092 4.93092501 27.60646972 2.70603028 29.75 0.5625 C33.98560704 -0.14070889 37.61320552 -0.17641641 41.25 2.1875 C43.16972521 5.22706491 43.75 6.93972256 43.75 10.5625 C42.17272853 15.03013196 39.88531368 18.60979948 36.55078125 21.953125 C24.34592511 34.94227055 25.45491223 49.70699118 25.79614258 66.52636719 C25.81204437 67.48291702 25.82794617 68.43946686 25.84432983 69.42500305 C25.88219813 71.24605751 25.94108834 73.06683066 26.02383423 74.88639832 C26.18437452 80.95120841 26.18437452 80.95120841 23.95532227 84.08813477 C20.84032223 86.17066385 18.47758334 86.4971038 14.75 86.5625 C11.66265362 85.32756145 10.22208146 84.41395963 8.60620117 81.49951172 C7.43436247 77.47977416 7.68035754 73.84932088 7.86328125 69.6953125 C8.41928476 47.50612921 8.14054302 32.922961 -6.7722168 15.52636719 C-8.73691256 12.91542836 -9.31373231 10.81775037 -9.25 7.5625 C-7.06171247 2.97751661 -5.21244779 0.27480592 0 0 Z " fill="#000000" transform="translate(358.25,383.4375)"/>
<path d="M0 0 C0.52851562 0.36996094 1.05703125 0.73992188 1.6015625 1.12109375 C2.4884375 1.67796875 3.3753125 2.23484375 4.2890625 2.80859375 C9.5892658 8.10879705 12.68778477 14.81576269 12.8515625 22.30859375 C12.70479239 30.44766373 10.14333237 36.46729402 4.5703125 42.39453125 C-1.08612846 47.35514019 -7.71562419 49.4609317 -15.1875 49.3359375 C-21.99461344 48.67446888 -28.48184399 45.90315361 -33.3984375 41.12109375 C-39.40678965 33.16703171 -40.31850164 26.00913936 -39.3984375 16.12109375 C-36.86589885 7.59223042 -31.70749784 2.75929396 -24.3359375 -1.75390625 C-16.75996612 -4.61632078 -6.91699241 -4.25321448 0 0 Z M-21.3984375 20.12109375 C-22.14858945 23.16417666 -22.14858945 23.16417666 -21.3984375 26.12109375 C-19.46203208 28.77468637 -18.01985127 29.88208845 -14.9609375 31.05859375 C-11.5513321 31.14175486 -10.06061479 30.20766514 -7.3984375 28.12109375 C-5.65149758 25.73890294 -5.37567477 24.57634842 -5.5234375 21.62109375 C-6.62284888 18.47991838 -7.70703015 17.08509371 -10.3984375 15.12109375 C-15.83110578 14.08079557 -18.18410646 15.77229293 -21.3984375 20.12109375 Z " fill="#000000" transform="translate(73.3984375,36.87890625)"/>
<path d="M0 0 C5.83280315 3.40007409 10.60348491 8.31131935 13.02734375 14.7265625 C14.65151836 22.32394123 14.7716899 30.58583303 10.62109375 37.3359375 C10.25113281 37.86445312 9.88117188 38.39296875 9.5 38.9375 C8.943125 39.824375 8.38625 40.71125 7.8125 41.625 C2.13839622 47.29910378 -4.36382484 49.66175499 -12.25 50.1875 C-20.10868227 50.02500845 -26.07800699 47.26131614 -31.7734375 41.90625 C-36.93247193 36.02355011 -38.87414648 29.1493241 -38.78515625 21.4453125 C-38.05265732 15.00333562 -35.15296017 8.46121127 -30.5 3.9375 C-21.3478105 -2.5785619 -10.66030238 -4.94884662 0 0 Z M-19.5 19.9375 C-20.75331017 23.19610644 -20.73279906 24.41063898 -19.3125 27.625 C-17.41619967 30.04441767 -16.43118128 31.07538786 -13.5 31.9375 C-10.30830587 31.77791529 -8.77522616 31.13834071 -6.1875 29.25 C-4.29589614 27.00344359 -4.29589614 27.00344359 -3.9375 24 C-4.69942251 19.85175523 -6.13655511 18.42352449 -9.5 15.9375 C-14.35972396 15.04489764 -16.59839316 15.96122396 -19.5 19.9375 Z " fill="#000000" transform="translate(208.5,36.0625)"/>
<path d="M0 0 C6.28820294 3.67586247 10.77788024 8.65083786 13.0234375 15.64453125 C14.6770443 23.60081972 14.17298207 30.57978975 10.109375 37.6796875 C5.33557826 44.37690719 -0.42301581 48.33922751 -8.5 49.9375 C-16.09088425 50.79453532 -23.34281635 48.89815109 -29.6171875 44.4296875 C-34.84154258 39.60893067 -37.96330986 34.08163315 -38.87890625 27.01171875 C-39.2167812 18.43405467 -36.99514786 12.7536085 -32.375 5.6875 C-23.46390683 -2.83615433 -11.42808858 -5.18050401 0 0 Z M-18.4375 18 C-20.82041984 20.82588909 -20.82041984 20.82588909 -20.625 24.5 C-19.29172189 28.57390532 -18.27130118 29.92613937 -14.5 31.9375 C-10.56658433 32.01777379 -9.02956425 31.3991714 -6.0625 28.8125 C-4.21150237 25.95202436 -4.21150237 25.95202436 -4.5 22.3125 C-5.23633888 18.96931714 -5.23633888 18.96931714 -7.1875 17 C-11.69964918 14.92685038 -14.37080376 15.14466009 -18.4375 18 Z " fill="#000000" transform="translate(140.5,36.0625)"/>
<path d="M0 0 C0.77085937 -0.04898437 1.54171875 -0.09796875 2.3359375 -0.1484375 C5.783616 0.63993949 6.71507082 2.47339347 8.625 5.375 C9.10601807 8.36799622 9.10601807 8.36799622 9.07910156 11.72583008 C9.07864838 13.61722466 9.07864838 13.61722466 9.07818604 15.54682922 C9.05776265 16.9127364 9.03689872 18.27863705 9.015625 19.64453125 C9.00815885 21.04985243 9.00246768 22.45518407 8.99847412 23.86051941 C8.98324686 27.54821836 8.94399146 31.23528091 8.8996582 34.92272949 C8.8586419 38.68993522 8.84044962 42.45724442 8.8203125 46.22460938 C8.77749324 53.60836214 8.70927861 60.99159169 8.625 68.375 C9.45354492 68.35179687 10.28208984 68.32859375 11.13574219 68.3046875 C12.76237793 68.27761719 12.76237793 68.27761719 14.421875 68.25 C15.49791992 68.22679687 16.57396484 68.20359375 17.68261719 68.1796875 C20.625 68.375 20.625 68.375 23.875 70.375 C26.30788481 74.54565967 26.30924771 76.58526601 25.625 81.375 C23.75484906 83.80619623 22.34361655 85.01569173 19.625 86.375 C3.19084444 87.60052994 3.19084444 87.60052994 -3.375 82.375 C-8.24878213 77.37296045 -9.62197953 72.71445689 -9.6496582 65.828125 C-9.65919022 64.52327148 -9.66872223 63.21841797 -9.67854309 61.87402344 C-9.67828167 60.45768202 -9.67734468 59.04134058 -9.67578125 57.625 C-9.67967101 56.16438679 -9.68400626 54.7037747 -9.68876648 53.24316406 C-9.69621501 50.18681159 -9.69594697 47.13057468 -9.69067383 44.07421875 C-9.68487488 40.16349223 -9.70182662 36.25323866 -9.7250185 32.34259033 C-9.73976952 29.32793426 -9.74062581 26.31339182 -9.73750877 23.29870605 C-9.7380211 21.85704612 -9.74324224 20.41537968 -9.75332069 18.97375488 C-9.76569561 16.95649855 -9.75694401 14.9391463 -9.74731445 12.921875 C-9.74794388 11.77557617 -9.7485733 10.62927734 -9.7492218 9.44824219 C-9.33137073 6.01670093 -8.42600047 4.13230618 -6.375 1.375 C-4.08773777 0.23136888 -2.54647573 0.10998068 0 0 Z " fill="#000000" transform="translate(324.375,383.625)"/>
<path d="M0 0 C0.97751724 -0.00428513 1.95503448 -0.00857025 2.96217346 -0.01298523 C5.02563707 -0.01871779 7.08912089 -0.01923672 9.15258789 -0.01489258 C12.30194719 -0.01173325 15.45036615 -0.03520333 18.59960938 -0.06054688 C20.60807174 -0.0628201 22.61653661 -0.06352325 24.625 -0.0625 C25.56266708 -0.07170975 26.50033417 -0.08091949 27.46641541 -0.09040833 C32.69293732 -0.05359576 36.35858673 0.37210449 40.87890625 3.30078125 C43.05113004 5.9452276 42.87783946 7.33065143 42.75390625 10.80078125 C41.77865373 14.70179134 40.96276466 15.82860274 37.87890625 18.30078125 C35.48864746 18.80871582 35.48864746 18.80871582 32.80664062 18.81835938 C31.79879517 18.83096802 30.79094971 18.84357666 29.75256348 18.85656738 C28.67019409 18.84847046 27.58782471 18.84037354 26.47265625 18.83203125 C25.35580444 18.83585815 24.23895264 18.83968506 23.08825684 18.84362793 C20.72793679 18.84634881 18.36758668 18.83897545 16.00732422 18.82226562 C12.3922205 18.80086009 8.77910432 18.82206303 5.1640625 18.84765625 C2.87108936 18.84501301 0.57811745 18.83988811 -1.71484375 18.83203125 C-3.33839783 18.84417664 -3.33839783 18.84417664 -4.99475098 18.85656738 C-6.00259644 18.84395874 -7.01044189 18.8313501 -8.04882812 18.81835938 C-8.93389038 18.815177 -9.81895264 18.81199463 -10.73083496 18.80871582 C-13.92186458 18.13061592 -15.10974484 16.82134669 -17.12109375 14.30078125 C-18.17699858 10.42913021 -18.49591899 8.23784435 -16.99609375 4.48828125 C-12.52884755 -0.72350598 -6.3444625 -0.0061535 0 0 Z " fill="#000000" transform="translate(427.12109375,220.69921875)"/>
<path d="M0 0 C0.94785873 -0.00637985 1.89571747 -0.0127597 2.87229919 -0.01933289 C4.40516319 -0.02100212 4.40516319 -0.02100212 5.96899414 -0.02270508 C7.02067276 -0.02603348 8.07235138 -0.02936188 9.15589905 -0.03279114 C11.38094648 -0.03785559 13.6060015 -0.04019961 15.83105469 -0.04003906 C19.23718762 -0.04222544 22.64299666 -0.06038613 26.04907227 -0.0793457 C28.20987845 -0.08227972 30.37068617 -0.08426446 32.53149414 -0.08520508 C34.06132179 -0.09598335 34.06132179 -0.09598335 35.62205505 -0.10697937 C37.0485714 -0.10236443 37.0485714 -0.10236443 38.50390625 -0.09765625 C39.33869003 -0.09908127 40.17347382 -0.10050629 41.03355408 -0.10197449 C43.59570061 0.17548222 45.15285903 0.7547113 47.31665039 2.14526367 C49.42877543 5.31345123 49.64821503 7.27745619 49.87524414 11.01245117 C48.9322 14.61316518 47.27172721 15.89906827 44.31665039 18.14526367 C40.57050079 18.89873818 36.87758751 18.84598383 33.06665039 18.80932617 C31.97578125 18.8141098 30.88491211 18.81889343 29.76098633 18.82382202 C27.45791174 18.8272198 25.15478884 18.8180261 22.85180664 18.79711914 C19.32857622 18.77035427 15.80853183 18.79687369 12.28540039 18.82885742 C10.04581003 18.82555331 7.80622165 18.81914704 5.56665039 18.80932617 C4.51445312 18.81944733 3.46225586 18.82956848 2.37817383 18.83999634 C-4.92438204 18.7230927 -4.92438204 18.7230927 -8.84936523 15.73486328 C-11.66959349 11.75267996 -11.29174905 9.93640928 -10.68334961 5.14526367 C-8.14770178 0.43620342 -5.05583021 0.02310801 0 0 Z " fill="#000000" transform="translate(266.683349609375,152.854736328125)"/>
<path d="M0 0 C0.73714737 -0.00619858 1.47429474 -0.01239716 2.23377991 -0.01878357 C3.78954755 -0.02587268 5.3453912 -0.02272341 6.90112305 -0.01000977 C9.274704 0.00384524 11.64433083 -0.03020427 14.01757812 -0.06835938 C15.53255304 -0.06931078 17.04753287 -0.06745057 18.5625 -0.0625 C19.26785385 -0.07575821 19.9732077 -0.08901642 20.69993591 -0.10267639 C24.55166794 -0.03034653 26.23679466 0.47924111 29.29907227 2.88696289 C31.34765625 5.56640625 31.34765625 5.56640625 31.91015625 9.06640625 C31.26015557 13.1108549 30.30760246 14.77090149 27.34765625 17.56640625 C21.88811832 19.49896592 15.61357945 18.75092173 9.91015625 18.75390625 C8.68232422 18.76615234 7.45449219 18.77839844 6.18945312 18.79101562 C5.00544922 18.79294922 3.82144531 18.79488281 2.6015625 18.796875 C1.52205322 18.80098389 0.44254395 18.80509277 -0.66967773 18.80932617 C-4.49657776 18.49764855 -7.37136685 17.5334457 -10.4375 15.21875 C-12.00331928 13.08903438 -12.08541372 11.75591646 -12.08984375 9.12890625 C-12.10917969 8.36707031 -12.12851563 7.60523438 -12.1484375 6.8203125 C-10.7340849 0.39447432 -5.68777521 -0.03988054 0 0 Z " fill="#000000" transform="translate(267.65234375,255.43359375)"/>
</svg>
