<?xml version="1.0" encoding="UTF-8"?>
<svg id="Layer_2" data-name="Layer 2" xmlns="http://www.w3.org/2000/svg" xmlns:xlink="http://www.w3.org/1999/xlink" viewBox="0 0 629.64 629.64">
  <defs>
    <style>
      .cls-1 {
        fill: url(#linear-gradient-3);
      }

      .cls-1, .cls-2, .cls-3 {
        fill-rule: evenodd;
      }

      .cls-4 {
        fill: url(#linear-gradient-5);
      }

      .cls-2 {
        fill: url(#linear-gradient-2);
      }

      .cls-3 {
        fill: url(#linear-gradient-4);
      }

      .cls-5 {
        fill: url(#linear-gradient);
      }

      .cls-6 {
        fill: #cab0ff;
      }
    </style>
    <linearGradient id="linear-gradient" x1="252.78" y1="-10892.64" x2="508.33" y2="-11130.86" gradientTransform="translate(0 -10679.45) scale(1 -1)" gradientUnits="userSpaceOnUse">
      <stop offset="0" stop-color="#935cff"/>
      <stop offset="1" stop-color="#fff"/>
    </linearGradient>
    <linearGradient id="linear-gradient-2" x1="453.14" y1="-10904.46" x2="451.34" y2="-10880.48" xlink:href="#linear-gradient"/>
    <linearGradient id="linear-gradient-3" x1="483.71" y1="-10903.77" x2="481.91" y2="-10879.77" xlink:href="#linear-gradient"/>
    <linearGradient id="linear-gradient-4" x1="468.32" y1="-10907.18" x2="465.99" y2="-10876.32" xlink:href="#linear-gradient"/>
    <linearGradient id="linear-gradient-5" x1="445.52" y1="-10781.73" x2="531.82" y2="-10922.39" xlink:href="#linear-gradient"/>
  </defs>
  <g id="Layer_1-2" data-name="Layer 1">
    <g>
      <rect width="629.64" height="629.64"/>
      <g>
        <path class="cls-6" d="M489.69,237.96c1.04-1.45-.02-3.44-1.8-3.44l-48.22.66c-.26,0-.52.05-.74.16-.28.12-.38.43-.29.73l14.45,51.38c.16.57.92.69,1.24.22l35.37-49.71h-.02Z"/>
        <path class="cls-5" d="M190.26,148.71c-1.75,0-2.78,1.99-1.76,3.41l151.59,214.57c.52.74.54,1.73,0,2.47l-24.72,35.74c-.86,1.23-2.68,1.24-3.58,0l-179.04-255.27c-.41-.57-1.07-.92-1.78-.92h-48.65c-1.76,0-2.8,1.99-1.78,3.41l231.52,327.9c.85,1.21,2.66,1.21,3.53,0l134.94-189.68-14.99-53.28c-.21.14-.4.31-.55.52l-64.49,90.85c-.86,1.23-2.68,1.23-3.56,0l-93.43-133.06c-1-1.43,0-3.41,1.76-3.41l147.51-.21-12.09-43.03h-220.42v-.02Z"/>
        <path class="cls-2" d="M458.93,203.57c-.95-1.09-2.59-1.19-3.7-.24l-9.92,8.7c-.1.09-.19.16-.26.26-.93,1.09-.83,2.73.24,3.7l9.92,8.7c1.09.93,2.73.83,3.7-.24.95-1.09.83-2.73-.24-3.7l-7.69-6.73,7.69-6.73c1.09-.95,1.19-2.59.24-3.7v-.03l.02.02Z"/>
        <path class="cls-1" d="M490.21,212.27c-.09-.1-.17-.19-.26-.26l-9.92-8.7c-1.09-.93-2.73-.83-3.7.24-.95,1.09-.83,2.73.24,3.7l7.69,6.73-7.69,6.73c-1.09.95-1.19,2.59-.24,3.7.95,1.09,2.59,1.21,3.7.24l9.92-8.7c1.09-.95,1.21-2.59.24-3.7v.03l.02-.02Z"/>
        <path class="cls-3" d="M470.72,199.28c-1.4-.33-2.82.54-3.15,1.95l-5.69,24.33c-.33,1.4.54,2.82,1.95,3.15,1.4.33,2.82-.54,3.15-1.95l5.69-24.33c.33-1.4-.54-2.82-1.95-3.15Z"/>
        <path class="cls-4" d="M547.41,148.71h-134l12.65,43.4h97.42l25.69-40.14c.9-1.41-.1-3.26-1.78-3.26h.02Z"/>
      </g>
    </g>
  </g>
</svg>