<?xml version="1.0" encoding="UTF-8"?>
<svg version="1.1" xmlns="http://www.w3.org/2000/svg" width="512" height="512">
<path d="M0 0 C1.67434113 0.0316777 1.67434113 0.0316777 3.38250732 0.06399536 C20.42827149 0.39509363 37.46432305 0.89003469 54.5 1.5625 C55.50951721 1.6000238 56.51903442 1.63754761 57.55914307 1.6762085 C87.30124614 2.80047624 87.30124614 2.80047624 93.875 9.625 C98.57865317 15.91092181 99.035718 22.32998831 99.4375 29.9375 C99.48068359 30.63939453 99.52386719 31.34128906 99.56835938 32.06445312 C100.00021854 39.91332208 99.91325299 47.76735054 99.875 55.625 C105.22836903 55.58048134 110.58059928 55.51027232 115.93334961 55.41748047 C117.74966305 55.38946535 119.566094 55.36815526 121.38256836 55.35400391 C134.86453898 55.35516111 134.86453898 55.35516111 147.69018555 51.57128906 C157.36897865 47.37920033 169.20254607 49.01813873 178.83984375 52.3671875 C193.2009341 58.31863035 200.90946423 67.6117747 206.875 81.625 C211.09330016 92.1238804 209.73270533 105.23222669 205.875 115.625 C200.4376678 126.65590957 192.38820649 135.74206003 180.875 140.625 C179.885 140.625 178.895 140.625 177.875 140.625 C177.875 202.005 177.875 263.385 177.875 326.625 C183.155 326.955 188.435 327.285 193.875 327.625 C200.17231715 329.22032035 203.30500989 331.16501513 206.875 336.625 C208.87271077 342.35947555 209.48906751 347.9987215 209.984375 354.03125 C210.11051178 355.53625061 210.11051178 355.53625061 210.23919678 357.07165527 C211.03672772 367.3909252 211.17824394 377.68582971 211.13574219 388.03173828 C211.1250027 391.12422265 211.13573342 394.21612647 211.1484375 397.30859375 C211.15700067 407.62190775 210.86614466 417.87338933 210.046875 428.15625 C209.97776917 429.09158569 209.90866333 430.02692139 209.83746338 430.99060059 C209.21272908 437.95246853 208.07973728 444.02454065 203.4375 449.5 C198.88611015 453.27432329 194.93533518 454.07672436 189.125 454.6875 C188.46628906 454.76548828 187.80757813 454.84347656 187.12890625 454.92382812 C184.71329608 455.19396568 182.29655147 455.41440202 179.875 455.625 C178.87428467 455.71547607 177.87356934 455.80595215 176.8425293 455.89916992 C163.41462988 456.92628515 149.94874246 456.81230244 136.48999023 456.81030273 C133.64487254 456.81022215 130.79991817 456.81706896 127.95483398 456.83081055 C112.90989698 456.90221783 97.93433515 456.74763642 82.91796875 455.73828125 C81.74720291 455.66054977 80.57643707 455.5828183 79.37019348 455.50273132 C60.65202062 454.09574205 60.65202062 454.09574205 54.25 448.35546875 C51.3212312 444.66954665 50.59909963 440.68930369 50.2421875 436.08984375 C50.11650391 434.50333008 50.11650391 434.50333008 49.98828125 432.88476562 C49.90964844 431.78841797 49.83101563 430.69207031 49.75 429.5625 C49.66363281 428.49322266 49.57726562 427.42394531 49.48828125 426.32226562 C48.93278224 419.0258302 48.875 412.00300417 48.875 404.625 C36.005 404.625 23.135 404.625 9.875 404.625 C11.62312131 411.41953622 13.4198156 418.13470658 15.39257812 424.8581543 C16.04204232 427.14176982 16.65481769 429.43617291 17.22851562 431.73999023 C19.94997964 442.93246818 19.94997964 442.93246818 25.875 452.625 C31.54081424 455.78220809 37.6136451 456.37318711 43.98242188 456.89770508 C49.85799676 457.39812726 55.15183289 458.97538199 59.875 462.625 C60.74580383 464.6594696 60.74580383 464.6594696 60.875 466.625 C55.05923356 474.2165663 43.44236835 475.37982796 34.5625 476.75 C33.00390259 476.99810425 33.00390259 476.99810425 31.41381836 477.2512207 C-14.16813931 484.25984 -88.42079111 492.3727503 -130.125 469.625 C-132.125 467.625 -132.125 467.625 -132.25 465 C-132.20875 464.21625 -132.1675 463.4325 -132.125 462.625 C-125.87401303 458.70407244 -119.52700975 456.80315974 -112.375 455.3125 C-111.55926514 455.14137695 -110.74353027 454.97025391 -109.90307617 454.79394531 C-105.58023127 453.94343365 -101.5536755 453.43213832 -97.125 453.625 C-96.85768066 452.33408447 -96.59036133 451.04316895 -96.31494141 449.71313477 C-95.21278643 444.76286058 -93.71620428 440.01313118 -92.0859375 435.21484375 C-91.83239502 434.45723755 -91.57885254 433.69963135 -91.31762695 432.91906738 C-90.38339206 430.13187273 -89.4412517 427.34733287 -88.5 424.5625 C-86.39625 418.313125 -84.2925 412.06375 -82.125 405.625 C-98.955 405.295 -115.785 404.965 -133.125 404.625 C-133.785 407.595 -134.445 410.565 -135.125 413.625 C-136.23676119 416.3737429 -137.35025224 418.93565842 -138.6875 421.5625 C-139.03756104 422.2534375 -139.38762207 422.944375 -139.74829102 423.65625 C-143.01968574 429.85300566 -147.06022525 434.77853451 -152.125 439.625 C-152.81078125 440.33011719 -153.4965625 441.03523438 -154.203125 441.76171875 C-167.57565707 454.76279159 -184.4286182 458.15994373 -202.5 458.0625 C-203.80710937 458.08248047 -205.11421875 458.10246094 -206.4609375 458.12304688 C-225.16248169 458.11377032 -241.13512013 451.62329573 -254.3984375 438.515625 C-268.69947747 423.354064 -274.03767015 406.35305987 -273.46875 385.82421875 C-272.85491094 373.79955007 -268.97276977 362.56074856 -262.125 352.625 C-261.41435552 352.07740713 -260.70371103 351.52981426 -259.97153187 350.96562767 C-255.27564883 347.01965351 -253.0103766 343.76408883 -252.29913902 337.707798 C-251.88244608 331.29333968 -251.99139945 324.87913142 -252.07495117 318.45556641 C-252.0741752 315.98097814 -252.06938121 313.50638837 -252.06088257 311.03181458 C-252.05119613 305.7140519 -252.06861754 300.39744314 -252.11049461 295.07991409 C-252.17073647 287.37892021 -252.17706197 279.67859152 -252.16986076 271.97739927 C-252.15923672 259.46360831 -252.1857077 246.95019801 -252.23852539 234.43652344 C-252.28955065 222.31576598 -252.33314294 210.19505754 -252.35961914 198.07421875 C-252.36125827 197.32792094 -252.3628974 196.58162313 -252.3645862 195.81271024 C-252.38204352 187.65443654 -252.39453304 179.49617248 -252.39913654 171.33788109 C-252.39974461 170.26040839 -252.39974461 170.26040839 -252.40036497 169.16116857 C-252.40186665 166.2884811 -252.40323244 163.41579392 -252.40387575 160.54310612 C-252.40575816 152.15633521 -252.42312509 143.76996572 -252.469389 135.38331614 C-252.50119586 129.49519307 -252.51357135 123.60713345 -252.51919174 117.71892357 C-252.52502643 115.31154203 -252.53776814 112.90416539 -252.55807304 110.49686241 C-252.69237052 94.08002805 -252.50662433 80.60607867 -241.125 67.625 C-231.07030935 58.27554817 -219.71386568 55.28598493 -206.28125 55.4296875 C-205.27155151 55.4325174 -204.26185303 55.43534729 -203.22155762 55.43826294 C-200.02258033 55.4493847 -196.8238915 55.47447437 -193.625 55.5 C-191.44531657 55.51004015 -189.26562871 55.51916418 -187.0859375 55.52734375 C-181.76552795 55.54929775 -176.44528459 55.58269482 -171.125 55.625 C-171.12696381 54.78887177 -171.12696381 54.78887177 -171.12896729 53.93585205 C-171.13423213 51.35827711 -171.13743775 48.78070331 -171.140625 46.203125 C-171.14271973 45.32672363 -171.14481445 44.45032227 -171.14697266 43.54736328 C-171.17292754 15.4382254 -171.17292754 15.4382254 -163.0625 7.25 C-153.99140396 0.42285226 -139.06706348 1.99701549 -128.1875 1.5625 C-127.22468109 1.52175354 -126.26186218 1.48100708 -125.26986694 1.43902588 C-108.83067973 0.74557349 -92.3879055 0.3165775 -75.9375 0 C-74.88354034 -0.0205545 -73.82958069 -0.04110901 -72.74368286 -0.06228638 C-48.49143107 -0.52067163 -24.2516133 -0.46475693 0 0 Z " fill="#D0D9FD" transform="translate(287.125,15.375)"/>
<path d="M0 0 C9.50198994 6.98771769 16.79573299 17.71281154 19.0625 29.5 C20.64867537 45.8317316 17.37784453 57.60729837 8.0234375 70.859375 C3.32041195 75.66928749 -2.49285097 80.02805556 -8.7265625 82.671875 C-9.7165625 82.671875 -10.7065625 82.671875 -11.7265625 82.671875 C-11.7265625 144.051875 -11.7265625 205.431875 -11.7265625 268.671875 C-6.4465625 269.001875 -1.1665625 269.331875 4.2734375 269.671875 C10.57075465 271.26719535 13.70344739 273.21189013 17.2734375 278.671875 C19.27114827 284.40635055 19.88750501 290.0455965 20.3828125 296.078125 C20.50894928 297.58312561 20.50894928 297.58312561 20.63763428 299.11853027 C21.43516522 309.4378002 21.57668144 319.73270471 21.53417969 330.07861328 C21.5234402 333.17109765 21.53417092 336.26300147 21.546875 339.35546875 C21.55543817 349.66878275 21.26458216 359.92026433 20.4453125 370.203125 C20.37620667 371.13846069 20.30710083 372.07379639 20.23590088 373.03747559 C19.61116658 379.99934353 18.47817478 386.07141565 13.8359375 391.546875 C9.28454765 395.32119829 5.33377268 396.12359936 -0.4765625 396.734375 C-1.13527344 396.81236328 -1.79398437 396.89035156 -2.47265625 396.97070312 C-4.88826642 397.24084068 -7.30501103 397.46127702 -9.7265625 397.671875 C-10.72727783 397.76235107 -11.72799316 397.85282715 -12.7590332 397.94604492 C-26.18693262 398.97316015 -39.65282004 398.85917744 -53.11157227 398.85717773 C-55.95668996 398.85709715 -58.80164433 398.86394396 -61.64672852 398.87768555 C-76.69166552 398.94909283 -91.66722735 398.79451142 -106.68359375 397.78515625 C-107.85435959 397.70742477 -109.02512543 397.6296933 -110.23136902 397.54960632 C-128.94954188 396.14261705 -128.94954188 396.14261705 -135.3515625 390.40234375 C-138.2803313 386.71642165 -139.00246287 382.73617869 -139.359375 378.13671875 C-139.48505859 376.55020508 -139.48505859 376.55020508 -139.61328125 374.93164062 C-139.69191406 373.83529297 -139.77054687 372.73894531 -139.8515625 371.609375 C-139.93792969 370.54009766 -140.02429688 369.47082031 -140.11328125 368.36914062 C-140.66878026 361.0727052 -140.7265625 354.04987917 -140.7265625 346.671875 C-153.5965625 346.671875 -166.4665625 346.671875 -179.7265625 346.671875 C-177.97844119 353.46641122 -176.1817469 360.18158158 -174.20898438 366.9050293 C-173.55952018 369.18864482 -172.94674481 371.48304791 -172.37304688 373.78686523 C-169.65158286 384.97934318 -169.65158286 384.97934318 -163.7265625 394.671875 C-158.06074826 397.82908309 -151.9879174 398.42006211 -145.61914062 398.94458008 C-139.74356574 399.44500226 -134.44972961 401.02225699 -129.7265625 404.671875 C-128.85575867 406.7063446 -128.85575867 406.7063446 -128.7265625 408.671875 C-134.54232894 416.2634413 -146.15919415 417.42670296 -155.0390625 418.796875 C-156.59765991 419.04497925 -156.59765991 419.04497925 -158.18774414 419.2980957 C-203.76970181 426.306715 -278.02235361 434.4196253 -319.7265625 411.671875 C-321.7265625 409.671875 -321.7265625 409.671875 -321.8515625 407.046875 C-321.8103125 406.263125 -321.7690625 405.479375 -321.7265625 404.671875 C-315.47557553 400.75094744 -309.12857225 398.85003474 -301.9765625 397.359375 C-301.16082764 397.18825195 -300.34509277 397.01712891 -299.50463867 396.84082031 C-295.18179377 395.99030865 -291.155238 395.47901332 -286.7265625 395.671875 C-286.45924316 394.38095947 -286.19192383 393.09004395 -285.91650391 391.76000977 C-284.81434893 386.80973558 -283.31776678 382.06000618 -281.6875 377.26171875 C-281.43395752 376.50411255 -281.18041504 375.74650635 -280.91918945 374.96594238 C-279.98495456 372.17874773 -279.0428142 369.39420787 -278.1015625 366.609375 C-275.9978125 360.36 -273.8940625 354.110625 -271.7265625 347.671875 C-288.5565625 347.341875 -305.3865625 347.011875 -322.7265625 346.671875 C-323.3865625 349.641875 -324.0465625 352.611875 -324.7265625 355.671875 C-325.83832369 358.4206179 -326.95181474 360.98253342 -328.2890625 363.609375 C-328.63912354 364.3003125 -328.98918457 364.99125 -329.34985352 365.703125 C-332.62124824 371.89988066 -336.66178775 376.82540951 -341.7265625 381.671875 C-342.41234375 382.37699219 -343.098125 383.08210938 -343.8046875 383.80859375 C-357.17721957 396.80966659 -374.0301807 400.20681873 -392.1015625 400.109375 C-393.40867187 400.12935547 -394.71578125 400.14933594 -396.0625 400.16992188 C-414.76404419 400.16064532 -430.73668263 393.67017073 -444 380.5625 C-458.30103997 365.400939 -463.63923265 348.39993487 -463.0703125 327.87109375 C-462.45647344 315.84642507 -458.57433227 304.60762356 -451.7265625 294.671875 C-451.01591802 294.12428213 -450.30527353 293.57668926 -449.57309437 293.01250267 C-444.87721133 289.06652851 -442.6119391 285.81096383 -441.90070152 279.754673 C-441.48400858 273.34021468 -441.59296195 266.92600642 -441.67651367 260.50244141 C-441.6757377 258.02785314 -441.67094371 255.55326337 -441.66244507 253.07868958 C-441.65275863 247.7609269 -441.67018004 242.44431814 -441.71205711 237.12678909 C-441.77229897 229.42579521 -441.77862447 221.72546652 -441.77142326 214.02427427 C-441.76079922 201.51048331 -441.7872702 188.99707301 -441.84008789 176.48339844 C-441.89111315 164.36264098 -441.93470544 152.24193254 -441.96118164 140.12109375 C-441.96282077 139.37479594 -441.9644599 138.62849813 -441.9661487 137.85958524 C-441.98360602 129.70131154 -441.99609554 121.54304748 -442.00069904 113.38475609 C-442.00130711 112.30728339 -442.00130711 112.30728339 -442.00192747 111.20804357 C-442.00342915 108.3353561 -442.00479494 105.46266892 -442.00543825 102.58998112 C-442.00732066 94.20321021 -442.02468759 85.81684072 -442.0709515 77.43019114 C-442.10275836 71.54206807 -442.11513385 65.65400845 -442.12075424 59.76579857 C-442.12658893 57.35841703 -442.13933064 54.95104039 -442.15963554 52.54373741 C-442.29393302 36.12690305 -442.10818683 22.65295367 -430.7265625 9.671875 C-420.67187185 0.32242317 -409.31542818 -2.66714007 -395.8828125 -2.5234375 C-394.87311401 -2.5206076 -393.86341553 -2.51777771 -392.82312012 -2.51486206 C-389.62414283 -2.5037403 -386.425454 -2.47865063 -383.2265625 -2.453125 C-381.04687907 -2.44308485 -378.86719121 -2.43396082 -376.6875 -2.42578125 C-371.36698917 -2.40553578 -366.04709561 -2.36637164 -360.7265625 -2.328125 C-360.7265625 4.931875 -360.7265625 12.191875 -360.7265625 19.671875 C-365.35171875 19.71054688 -365.35171875 19.71054688 -370.0703125 19.75 C-373.07561141 19.78847566 -376.08074196 19.83361815 -379.0859375 19.87939453 C-381.16528202 19.90751999 -383.24473179 19.92877621 -385.32421875 19.94287109 C-388.32346142 19.96441738 -391.32144995 20.01112776 -394.3203125 20.0625 C-395.24146851 20.06372864 -396.16262451 20.06495728 -397.11169434 20.06622314 C-403.89261954 20.21811364 -409.61888105 21.60378185 -414.56640625 26.48828125 C-414.92863281 27.06449219 -415.29085937 27.64070313 -415.6640625 28.234375 C-416.23447266 29.10255859 -416.23447266 29.10255859 -416.81640625 29.98828125 C-418.41619351 32.94754439 -418.85298228 35.42920018 -418.8652277 38.72671795 C-418.87070214 39.55477245 -418.87617659 40.38282695 -418.88181692 41.23597401 C-418.88279503 42.14549929 -418.88377314 43.05502456 -418.88478088 43.99211121 C-418.88971886 44.95839284 -418.89465684 45.92467447 -418.89974445 46.92023736 C-418.91515637 50.17232769 -418.92349008 53.42439821 -418.93188477 56.67651367 C-418.94146038 59.00205155 -418.95147028 61.32758767 -418.96188354 63.65312195 C-418.98897292 69.97917765 -419.00996064 76.30524084 -419.02988553 82.63132262 C-419.0495095 88.56884557 -419.07366527 94.50634858 -419.09780776 100.44385461 C-419.14548292 112.20531401 -419.18874731 123.96678535 -419.22924805 135.72827148 C-419.26860336 147.1543877 -419.31002967 158.58049332 -419.35424805 170.0065918 C-419.35697232 170.71073458 -419.35969659 171.41487737 -419.36250342 172.14035781 C-419.3761829 175.67278686 -419.38990317 179.20521575 -419.40364373 182.73764455 C-419.51760731 212.04903226 -419.62434361 241.36044399 -419.7265625 270.671875 C-419.11409007 270.46309031 -418.50161764 270.25430561 -417.87058544 270.03919411 C-417.064218 269.76680601 -416.25785055 269.49441792 -415.42704773 269.21377563 C-414.6289503 268.94311594 -413.83085287 268.67245625 -413.00857067 268.39359474 C-396.98959486 263.32735035 -377.09088517 265.47355412 -361.7265625 271.671875 C-361.08299693 272.02321335 -360.43943135 272.37455171 -359.77636379 272.73653668 C-357.56566245 273.74529479 -356.14780227 273.92327102 -353.73442936 273.92635059 C-352.94578466 273.93218279 -352.15713995 273.93801498 -351.34459692 273.94402391 C-350.48419552 273.94024458 -349.62379412 273.93646526 -348.73731995 273.93257141 C-347.35928622 273.93830973 -347.35928622 273.93830973 -345.95341343 273.94416398 C-342.86805438 273.95450148 -339.78288117 273.95050039 -336.69750977 273.9465332 C-334.48831001 273.95087925 -332.27911177 273.95606203 -330.06991577 273.96202087 C-324.06379318 273.97543339 -318.05773344 273.97598705 -312.05159879 273.97345757 C-307.04144244 273.97238943 -302.03129889 273.97726719 -297.02114528 273.982063 C-284.52770846 273.99380109 -272.03430221 273.99292863 -259.54086524 273.98650619 C-248.69039686 273.98133663 -237.84001826 273.99259307 -226.98956764 274.01160441 C-215.84862014 274.03097511 -204.70770536 274.03894861 -193.56673855 274.03548115 C-187.3118053 274.03366555 -181.05695427 274.0363321 -174.80203438 274.05019569 C-168.921046 274.0627423 -163.04023768 274.06085993 -157.15925217 274.04778481 C-154.99890902 274.04541259 -152.83855333 274.04817666 -150.67822456 274.05640793 C-147.73286845 274.06682245 -144.78812249 274.05881722 -141.8427887 274.0460968 C-140.55553268 274.05715823 -140.55553268 274.05715823 -139.24227148 274.06844312 C-134.51484684 274.02538684 -131.65153513 273.5769645 -127.7265625 270.671875 C-121.90862545 268.68989975 -115.31529376 268.9774666 -109.2265625 268.609375 C-108.13491287 268.54259048 -108.13491287 268.54259048 -107.02120972 268.47445679 C-93.44518793 267.6701297 -79.88672414 267.47881667 -66.2890625 267.484375 C-64.87077148 267.4831514 -64.87077148 267.4831514 -63.42382812 267.48190308 C-60.69263342 267.48217035 -57.96163082 267.49103765 -55.23046875 267.50390625 C-54.43262466 267.50510468 -53.63478058 267.5063031 -52.8127594 267.50753784 C-46.69106582 267.55748084 -40.88280908 268.11221622 -34.7265625 268.671875 C-34.7265625 207.951875 -34.7265625 147.231875 -34.7265625 84.671875 C-37.6965625 84.341875 -40.6665625 84.011875 -43.7265625 83.671875 C-56.72037923 78.66508323 -65.19777897 70.16694206 -71.3515625 57.859375 C-75.84501862 47.44272672 -76.61146165 35.00101202 -72.7265625 24.296875 C-72.0665625 22.770625 -71.4065625 21.244375 -70.7265625 19.671875 C-76.6665625 19.671875 -82.6065625 19.671875 -88.7265625 19.671875 C-89.44822517 14.34961278 -89.78504308 9.21448025 -89.7578125 3.83984375 C-89.75330078 2.68121826 -89.74878906 1.52259277 -89.74414062 0.32885742 C-89.73543945 -0.98634888 -89.73543945 -0.98634888 -89.7265625 -2.328125 C-88.0408313 -2.34214355 -88.0408313 -2.34214355 -86.32104492 -2.35644531 C-82.10304885 -2.39668374 -77.88575651 -2.4625319 -73.66821289 -2.53564453 C-71.85189945 -2.56365965 -70.0354685 -2.58496974 -68.21899414 -2.59912109 C-54.73702352 -2.59796389 -54.73702352 -2.59796389 -41.91137695 -6.38183594 C-28.44552685 -12.21417866 -11.72484585 -7.66478596 0 0 Z " fill="#B42F15" transform="translate(476.7265625,73.328125)"/>
<path d="M0 0 C1.00969849 0.00848969 2.01939697 0.01697937 3.05969238 0.02572632 C6.25966682 0.059102 9.45704753 0.13435316 12.65625 0.2109375 C14.8359009 0.24105749 17.01559162 0.26842971 19.1953125 0.29296875 C24.51649814 0.35884035 29.83618873 0.45902728 35.15625 0.5859375 C35.15956015 1.29116169 35.16287029 1.99638588 35.16628075 2.7229805 C35.24919939 20.26346943 35.34175582 37.80388444 35.44377708 55.34427261 C35.49291388 63.82829447 35.53926577 72.31231107 35.578125 80.79638672 C35.7368075 115.0351259 35.97346956 149.27391878 36.83476639 183.5033493 C36.90950217 186.47852001 36.97609591 189.45368663 37.03525925 192.42920685 C37.11761311 196.51968657 37.23181189 200.60864286 37.35009766 204.69824219 C37.3817848 206.49209225 37.3817848 206.49209225 37.41411209 208.3221817 C37.64793422 215.1982947 38.63343799 219.66469818 42.15625 225.5859375 C42.48625 226.5759375 42.81625 227.5659375 43.15625 228.5859375 C51.94202315 234.1295633 64.19772273 234.31867091 74.21875 235.1484375 C76.05856445 235.31762695 76.05856445 235.31762695 77.93554688 235.49023438 C82.67171364 235.91402048 87.41286496 236.25400511 92.15625 236.5859375 C93.32434204 236.66925323 94.49243408 236.75256897 95.69592285 236.83840942 C119.30430531 238.4781982 142.84053574 238.95043377 166.5019722 238.90359116 C169.32682773 238.89835298 172.1516722 238.89643805 174.97653198 238.89492798 C203.33304625 238.86857872 231.53496609 238.28263956 259.79785156 235.78839111 C262.88542268 235.52334263 265.97518074 235.29289274 269.06544495 235.06178284 C272.45214379 234.80249399 275.83510312 234.5075061 279.21875 234.2109375 C280.91559937 234.07691528 280.91559937 234.07691528 282.64672852 233.94018555 C290.58492233 233.13495193 296.00297342 230.905176 301.53125 225.0859375 C307.19879956 212.87890767 305.77634801 196.9442941 306.21875 183.7734375 C306.33487463 180.4478308 306.45323649 177.1223364 306.57554626 173.79695129 C306.65072311 171.74133524 306.72220306 169.68557939 306.7893219 167.62968445 C306.82283249 166.69123184 306.85634308 165.75277924 306.89086914 164.78588867 C306.9181459 163.97238449 306.94542267 163.15888031 306.973526 162.32072449 C307.15625 159.5859375 307.15625 159.5859375 307.66574097 156.18403625 C308.49301168 149.76041936 308.28699644 143.28087578 308.26977539 136.81640625 C308.26949296 135.32756044 308.26965235 133.8387145 308.2702179 132.34986877 C308.27050368 128.32773118 308.26464245 124.30562367 308.25764394 120.28349304 C308.25137383 116.07278599 308.25080371 111.86207818 308.24961853 107.65136719 C308.24651598 99.68657594 308.23831712 91.7217985 308.22826904 83.75701332 C308.21707445 74.68566009 308.21158903 65.61430619 308.20657361 56.54294777 C308.19613358 37.89060299 308.17835254 19.23827186 308.15625 0.5859375 C313.76625 0.5859375 319.37625 0.5859375 325.15625 0.5859375 C324.82625 1.9471875 324.49625 3.3084375 324.15625 4.7109375 C321.37114269 18.89695173 323.05728479 32.57040179 330.45703125 45.05859375 C336.6580471 54.28171388 345.75759918 59.880022 356.15625 63.5859375 C358.13625 63.9159375 360.11625 64.2459375 362.15625 64.5859375 C362.15625 125.3059375 362.15625 186.0259375 362.15625 248.5859375 C344.00625 248.5859375 325.85625 248.5859375 307.15625 248.5859375 C285.76192873 247.47084156 285.76192873 247.47084156 264.15625 254.5859375 C261.29716752 254.69721046 258.46180312 254.74265043 255.60179138 254.74656677 C254.2392444 254.7541985 254.2392444 254.7541985 252.84917122 254.76198441 C249.78022709 254.77778304 246.71130662 254.78625372 243.64233398 254.79467773 C241.45142464 254.80421093 239.26051683 254.81410184 237.0696106 254.82432556 C229.84720666 254.85579676 222.62479095 254.87599885 215.40234375 254.89453125 C213.55896671 254.89947723 213.55896671 254.89947723 211.67834973 254.90452313 C200.08359148 254.93532755 188.4888297 254.96219617 176.89404202 254.97894192 C174.20580982 254.98289126 171.51757771 254.98689424 168.8293457 254.9909668 C167.82715692 254.99247934 167.82715692 254.99247934 166.8047219 254.99402244 C156.01314746 255.01098131 145.2218043 255.05203055 134.43034243 255.10298979 C123.33803003 255.1549356 112.24584203 255.18342592 101.15341049 255.1911388 C94.93091408 255.19608218 88.70882732 255.21103662 82.48644829 255.2508831 C76.62011871 255.28794939 70.75442926 255.2960935 64.8880043 255.28287697 C62.74515908 255.2829306 60.60228408 255.29309636 58.45954704 255.3146286 C46.80353292 255.42540607 37.08041343 254.78579707 26.35510349 249.97158909 C19.57917227 247.03645002 12.86576694 247.36871279 5.59375 247.3359375 C4.47677734 247.3153125 3.35980469 247.2946875 2.20898438 247.2734375 C-4.69923093 247.2413994 -10.75463964 248.02259349 -17.39819336 249.93847656 C-19.84375 250.5859375 -19.84375 250.5859375 -22.84375 250.5859375 C-22.93503301 220.6571413 -23.00580553 190.7283498 -23.04801132 160.79944435 C-23.05301404 157.2647335 -23.05819134 153.73002293 -23.06347656 150.1953125 C-23.06505043 149.1397826 -23.06505043 149.1397826 -23.06665608 148.06292886 C-23.08405345 136.67427081 -23.11558743 125.28569366 -23.15236118 113.89708358 C-23.18978927 102.20820173 -23.21198979 90.5193622 -23.22010398 78.83042288 C-23.22531994 72.26620645 -23.23758438 65.70217342 -23.26667023 59.13801575 C-23.29382705 52.95912207 -23.30219429 46.7804873 -23.29618073 40.60153961 C-23.29728082 38.33440494 -23.30523285 36.06726158 -23.3205719 33.80017853 C-23.34050343 30.70228392 -23.33567705 27.60536394 -23.32476807 24.50744629 C-23.33641943 23.61248522 -23.3480708 22.71752416 -23.36007524 21.79544306 C-23.29457878 14.90376438 -21.57103076 9.79957039 -17.08435059 4.51278687 C-11.47850897 0.21384883 -6.93878497 -0.22269407 0 0 Z " fill="#FEFEFE" transform="translate(79.84375,93.4140625)"/>
<path d="M0 0 C72.27 0 144.54 0 219 0 C218.01 2.31 217.02 4.62 216 7 C215.44582146 10.07536985 215.44582146 10.07536985 215.33227539 13.16088867 C215.2679129 14.28941254 215.20355042 15.4179364 215.13723755 16.58065796 C214.9252434 21.86259791 214.76784523 27.14022581 214.68359375 32.42578125 C214.6524221 34.09618721 214.6524221 34.09618721 214.62062073 35.80033875 C214.55603505 39.30433914 214.49667041 42.80840442 214.4375 46.3125 C214.3942279 48.71029276 214.3506111 51.10807932 214.30664062 53.50585938 C214.19981045 59.33717458 214.10006506 65.16854923 214 71 C200.8 71 187.6 71 174 71 C175.74812131 77.79453622 177.5448156 84.50970658 179.51757812 91.2331543 C180.16704232 93.51676982 180.77981769 95.81117291 181.35351562 98.11499023 C184.07497964 109.30746818 184.07497964 109.30746818 190 119 C195.66581424 122.15720809 201.7386451 122.74818711 208.10742188 123.27270508 C213.98299676 123.77312726 219.27683289 125.35038199 224 129 C224.87080383 131.0344696 224.87080383 131.0344696 225 133 C219.18423356 140.5915663 207.56736835 141.75482796 198.6875 143.125 C197.12890259 143.37310425 197.12890259 143.37310425 195.53881836 143.6262207 C149.95686069 150.63484 75.70420889 158.7477503 34 136 C32 134 32 134 31.875 131.375 C31.91625 130.59125 31.9575 129.8075 32 129 C38.25098697 125.07907244 44.59799025 123.17815974 51.75 121.6875 C52.56573486 121.51637695 53.38146973 121.34525391 54.22192383 121.16894531 C58.54476873 120.31843365 62.5713245 119.80713832 67 120 C67.26731934 118.70908447 67.53463867 117.41816895 67.81005859 116.08813477 C68.91221357 111.13786058 70.40879572 106.38813118 72.0390625 101.58984375 C72.29260498 100.83223755 72.54614746 100.07463135 72.80737305 99.29406738 C73.74160794 96.50687273 74.6837483 93.72233287 75.625 90.9375 C78.780625 81.5634375 78.780625 81.5634375 82 72 C65.17 71.67 48.34 71.34 31 71 C31 63.74 31 56.48 31 49 C27.54400678 30.06115713 19.39942215 16.76042143 4.7265625 4.47265625 C3.07623575 3.06502461 1.53378702 1.53378702 0 0 Z " fill="#514F4E" transform="translate(123,349)"/>
<path d="M0 0 C1.00969849 0.0028299 2.01939697 0.00565979 3.05969238 0.00857544 C6.25866967 0.0196972 9.4573585 0.04478687 12.65625 0.0703125 C14.83593343 0.08035265 17.01562129 0.08947668 19.1953125 0.09765625 C24.51582333 0.11790172 29.83571689 0.15706586 35.15625 0.1953125 C35.15625 7.4553125 35.15625 14.7153125 35.15625 22.1953125 C30.53109375 22.23398438 30.53109375 22.23398438 25.8125 22.2734375 C22.80720109 22.31191316 19.80207054 22.35705565 16.796875 22.40283203 C14.71753048 22.43095749 12.63808071 22.45221371 10.55859375 22.46630859 C7.55935108 22.48785488 4.56136255 22.53456526 1.5625 22.5859375 C0.64134399 22.58716614 -0.27981201 22.58839478 -1.22888184 22.58966064 C-8.00980704 22.74155114 -13.73606855 24.12721935 -18.68359375 29.01171875 C-19.04582031 29.58792969 -19.40804687 30.16414063 -19.78125 30.7578125 C-20.35166016 31.62599609 -20.35166016 31.62599609 -20.93359375 32.51171875 C-22.53338101 35.47098189 -22.97016978 37.95263768 -22.9824152 41.25015545 C-22.98788964 42.07820995 -22.99336409 42.90626445 -22.99900442 43.75941151 C-22.99998253 44.66893679 -23.00096064 45.57846206 -23.00196838 46.51554871 C-23.00690636 47.48183034 -23.01184434 48.44811197 -23.01693195 49.44367486 C-23.03234387 52.69576519 -23.04067758 55.94783571 -23.04907227 59.19995117 C-23.05864788 61.52548905 -23.06865778 63.85102517 -23.07907104 66.17655945 C-23.10616042 72.50261515 -23.12714814 78.82867834 -23.14707303 85.15476012 C-23.166697 91.09228307 -23.19085277 97.02978608 -23.21499526 102.96729211 C-23.26267042 114.72875151 -23.30593481 126.49022285 -23.34643555 138.25170898 C-23.38579086 149.6778252 -23.42721717 161.10393082 -23.47143555 172.5300293 C-23.47415982 173.23417208 -23.47688409 173.93831487 -23.47969092 174.66379531 C-23.4933704 178.19622436 -23.50709067 181.72865325 -23.52083123 185.26108205 C-23.63479481 214.57246976 -23.74153111 243.88388149 -23.84375 273.1953125 C-23.23127757 272.98652781 -22.61880514 272.77774311 -21.98777294 272.56263161 C-21.1814055 272.29024351 -20.37503805 272.01785542 -19.54423523 271.73721313 C-18.7461378 271.46655344 -17.94804037 271.19589375 -17.12575817 270.91703224 C-1.10678236 265.85078785 18.79192733 267.99699162 34.15625 274.1953125 C34.79984962 274.54650158 35.44344924 274.89769067 36.10655189 275.25952184 C39.59586674 276.85257021 43.37007637 276.48226999 47.14117432 276.4737854 C48.05930774 276.4795778 48.97744117 276.4853702 49.92339683 276.49133813 C53.00658377 276.50837284 56.08962133 276.51121764 59.17285156 276.51416016 C61.38031381 276.52345593 63.58777253 276.53362407 65.79522705 276.54460144 C71.79479135 276.57195501 77.79433211 276.58706674 83.79394245 276.60002947 C90.06136598 276.61563657 96.32874124 276.64243449 102.59613037 276.6680603 C113.11778223 276.70956688 123.63944077 276.7441491 134.16113281 276.7734375 C144.99839167 276.80362326 155.83562413 276.83797365 166.67285156 276.87792969 C167.34088768 276.88039124 168.00892379 276.88285278 168.69720343 276.88538893 C172.04855311 276.89776353 175.39990247 276.91022006 178.7512517 276.92271733 C206.55288194 277.02610101 234.35454326 277.11534047 262.15625 277.1953125 C262.15625 277.5253125 262.15625 277.8553125 262.15625 278.1953125 C189.88625 278.5253125 117.61625 278.8553125 43.15625 279.1953125 C45.79625 281.1753125 48.43625 283.1553125 51.15625 285.1953125 C63.80376641 295.93099503 72.01602774 310.63887616 74.15625 327.1953125 C75.25999314 347.51410758 71.36306209 365.29525933 57.6484375 381.08203125 C46.556994 392.66326784 32.38173773 401.46174364 15.96508789 402.37231445 C12.74454693 402.42734582 9.52444158 402.47193018 6.3034668 402.49047852 C4.9296633 402.5019014 3.55590068 402.52219635 2.18237305 402.55200195 C-16.57105936 402.95766532 -32.91849383 397.49602281 -46.66088867 384.52514648 C-60.29601101 371.05003396 -67.05397074 354.93017136 -67.28125 335.8828125 C-67.18879517 321.77220636 -63.96434463 308.97786203 -55.84375 297.1953125 C-55.13310552 296.64771963 -54.42246103 296.10012676 -53.69028187 295.53594017 C-48.99439883 291.58996601 -46.7291266 288.33440133 -46.01788902 282.2781105 C-45.60119608 275.86365218 -45.71014945 269.44944392 -45.79370117 263.02587891 C-45.7929252 260.55129064 -45.78813121 258.07670087 -45.77963257 255.60212708 C-45.76994613 250.2843644 -45.78736754 244.96775564 -45.82924461 239.65022659 C-45.88948647 231.94923271 -45.89581197 224.24890402 -45.88861076 216.54771177 C-45.87798672 204.03392081 -45.9044577 191.52051051 -45.95727539 179.00683594 C-46.00830065 166.88607848 -46.05189294 154.76537004 -46.07836914 142.64453125 C-46.08000827 141.89823344 -46.0816474 141.15193563 -46.0833362 140.38302274 C-46.10079352 132.22474904 -46.11328304 124.06648498 -46.11788654 115.90819359 C-46.11849461 114.83072089 -46.11849461 114.83072089 -46.11911497 113.73148107 C-46.12061665 110.8587936 -46.12198244 107.98610642 -46.12262575 105.11341862 C-46.12450816 96.72664771 -46.14187509 88.34027822 -46.188139 79.95362864 C-46.21994586 74.06550557 -46.23232135 68.17744595 -46.23794174 62.28923607 C-46.24377643 59.88185453 -46.25651814 57.47447789 -46.27682304 55.06717491 C-46.41112052 38.65034055 -46.22537433 25.17639117 -34.84375 12.1953125 C-24.78905935 2.84586067 -13.43261568 -0.14370257 0 0 Z " fill="#F9990F" transform="translate(80.84375,70.8046875)"/>
<path d="M0 0 C9.50198994 6.98771769 16.79573299 17.71281154 19.0625 29.5 C20.64867537 45.8317316 17.37784453 57.60729837 8.0234375 70.859375 C3.32041195 75.66928749 -2.49285097 80.02805556 -8.7265625 82.671875 C-9.7165625 82.671875 -10.7065625 82.671875 -11.7265625 82.671875 C-11.72564071 83.62954741 -11.72471891 84.58721983 -11.72376919 85.57391262 C-11.70160218 108.84068226 -11.68515224 132.10745053 -11.67475033 155.37422848 C-11.66958677 166.62571016 -11.66254294 177.87718489 -11.65112305 189.12866211 C-11.64117803 198.9316604 -11.63470951 208.73465365 -11.63247401 218.53765684 C-11.63116659 223.73167867 -11.62807879 228.92568607 -11.62083244 234.11970329 C-11.61407509 239.00250721 -11.61194495 243.88529068 -11.61345482 248.76809883 C-11.61317836 250.56568131 -11.61117155 252.36326444 -11.60735703 254.1608429 C-11.60242422 256.60403462 -11.60356267 259.04714787 -11.60630798 261.49034119 C-11.60339514 262.21114473 -11.6004823 262.93194827 -11.59748119 263.67459434 C-11.61244129 268.55775379 -11.61244129 268.55775379 -12.7265625 269.671875 C-14.34890766 269.77364573 -15.97603492 269.80147989 -17.6015625 269.796875 C-18.48585938 269.79945313 -19.37015625 269.80203125 -20.28125 269.8046875 C-25.10755285 269.61863954 -29.91651037 269.10915247 -34.7265625 268.671875 C-34.7265625 207.951875 -34.7265625 147.231875 -34.7265625 84.671875 C-37.6965625 84.341875 -40.6665625 84.011875 -43.7265625 83.671875 C-56.72037923 78.66508323 -65.19777897 70.16694206 -71.3515625 57.859375 C-75.84501862 47.44272672 -76.61146165 35.00101202 -72.7265625 24.296875 C-72.0665625 22.770625 -71.4065625 21.244375 -70.7265625 19.671875 C-76.6665625 19.671875 -82.6065625 19.671875 -88.7265625 19.671875 C-89.44822517 14.34961278 -89.78504308 9.21448025 -89.7578125 3.83984375 C-89.75330078 2.68121826 -89.74878906 1.52259277 -89.74414062 0.32885742 C-89.73833984 -0.54794678 -89.73253906 -1.42475098 -89.7265625 -2.328125 C-88.0408313 -2.34214355 -88.0408313 -2.34214355 -86.32104492 -2.35644531 C-82.10304885 -2.39668374 -77.88575651 -2.4625319 -73.66821289 -2.53564453 C-71.85189945 -2.56365965 -70.0354685 -2.58496974 -68.21899414 -2.59912109 C-54.73702352 -2.59796389 -54.73702352 -2.59796389 -41.91137695 -6.38183594 C-28.44552685 -12.21417866 -11.72484585 -7.66478596 0 0 Z " fill="#4269C3" transform="translate(476.7265625,73.328125)"/>
<path d="M0 0 C2.94082474 0.1179289 5.88168233 0.21867178 8.82324219 0.31591797 C24.95421868 0.93219847 24.95421868 0.93219847 31.17480469 6.88232422 C35.34264245 13.25666433 35.79925393 20.11006853 36.40917969 27.53857422 C36.49327087 28.54190796 36.57736206 29.5452417 36.66400146 30.57897949 C37.46153241 40.89824942 37.60304863 51.19315393 37.56054688 61.5390625 C37.54980739 64.63154687 37.5605381 67.72345069 37.57324219 70.81591797 C37.58180535 81.12923197 37.29094935 91.38071354 36.47167969 101.66357422 C36.40257385 102.59890991 36.33346802 103.53424561 36.26226807 104.4979248 C35.63753377 111.45979275 34.50454197 117.53186487 29.86230469 123.00732422 C25.31335488 126.77962406 21.35743089 127.58920914 15.54980469 128.19482422 C14.79828125 128.27716309 14.04675781 128.35950195 13.27246094 128.44433594 C-0.06131149 129.85420928 -13.30227056 130.28155853 -26.70019531 130.13232422 C-26.70019531 129.80232422 -26.70019531 129.47232422 -26.70019531 129.13232422 C-25.62125 129.06239258 -24.54230469 128.99246094 -23.43066406 128.92041016 C-19.396317 128.65434056 -15.36384668 128.365617 -11.33154297 128.0703125 C-9.59205969 127.94604064 -7.85213611 127.8277707 -6.11181641 127.71582031 C-3.59818708 127.55304661 -1.08697656 127.36815123 1.42480469 127.17919922 C2.19284424 127.13422302 2.96088379 127.08924683 3.75219727 127.04290771 C9.98688239 126.53952492 15.53097766 124.71656278 20.17480469 120.38232422 C28.48704211 103.75784938 25.50470124 79.30833141 25.54980469 61.19482422 C25.55756927 59.77008286 25.55756927 59.77008286 25.56549072 58.31655884 C25.620702 45.45468847 24.9181231 32.89363118 23.29980469 20.13232422 C22.89794952 20.95289307 22.89794952 20.95289307 22.48797607 21.79003906 C22.13294006 22.50885254 21.77790405 23.22766602 21.41210938 23.96826172 C21.06170593 24.68030762 20.71130249 25.39235352 20.35028076 26.12597656 C13.04125007 40.08579626 -1.97853444 52.53466827 -14.21191406 62.14013672 C-16.7138718 64.143274 -19.04358789 66.26010055 -21.38769531 68.44482422 C-41.58435753 86.87958052 -41.58435753 86.87958052 -51.03222656 86.71435547 C-56.227457 85.58098895 -59.96234243 81.94790288 -63.95361328 78.59179688 C-65.83774646 77.01738422 -67.75138697 75.48513791 -69.67285156 73.95654297 C-76.47938772 68.52240248 -83.14843012 62.98092991 -89.56347656 57.08544922 C-91.46931879 55.34336309 -93.41522833 53.67277608 -95.38769531 52.00732422 C-106.11703218 42.5917837 -116.25158327 33.0295483 -122.70019531 20.13232422 C-122.97987433 14.1617852 -121.60536485 10.15141823 -117.75878906 5.64013672 C-110.41419818 0.26060715 -101.70186868 0.37908428 -92.95019531 -0.05517578 C-92.22510773 -0.09470367 -91.50002014 -0.13423157 -90.75296021 -0.17495728 C-60.5608403 -1.79935485 -30.19926827 -1.21698544 0 0 Z " fill="#912010" transform="translate(460.7001953125,341.86767578125)"/>
<path d="M0 0 C0.84732193 0.00359528 1.69464386 0.00719055 2.56764221 0.01089478 C3.89922363 0.01067574 3.89922363 0.01067574 5.25770569 0.01045227 C8.20666404 0.01115174 11.15556006 0.01894568 14.10450745 0.02676392 C16.14332037 0.02862798 18.18213374 0.03005194 20.22094727 0.03105164 C25.59844693 0.03487776 30.97591978 0.04470884 36.35340881 0.05575562 C41.83619321 0.06596771 47.31898192 0.07054882 52.80177307 0.07559204 C63.56806093 0.08633103 74.33432883 0.10340858 85.1006012 0.12442017 C85.32133301 1.00978706 85.32133301 1.00978706 85.54652405 1.91304016 C87.11135713 8.100253 88.82137249 14.23380811 90.61817932 20.35757446 C91.26764351 22.64118999 91.88041888 24.93559307 92.45411682 27.2394104 C95.17558084 38.43188834 95.17558084 38.43188834 101.1006012 48.12442017 C106.76641543 51.28162825 112.8392463 51.87260728 119.20802307 52.39712524 C125.08359796 52.89754742 130.37743408 54.47480216 135.1006012 58.12442017 C135.97140503 60.15888977 135.97140503 60.15888977 136.1006012 62.12442017 C130.28483476 69.71598647 118.66796955 70.87924812 109.7881012 72.24942017 C108.22950378 72.49752441 108.22950378 72.49752441 106.63941956 72.75064087 C61.05746188 79.75926017 -13.19518992 87.87217047 -54.8993988 65.12442017 C-56.8993988 63.12442017 -56.8993988 63.12442017 -57.0243988 60.49942017 C-56.9831488 59.71567017 -56.9418988 58.93192017 -56.8993988 58.12442017 C-50.64841184 54.20349261 -44.30140855 52.30257991 -37.1493988 50.81192017 C-36.33366394 50.64079712 -35.51792908 50.46967407 -34.67747498 50.29336548 C-30.35463008 49.44285381 -26.3280743 48.93155849 -21.8993988 49.12442017 C-21.49733215 47.18695923 -21.49733215 47.18695923 -21.08714294 45.21035767 C-19.98866356 40.27680241 -18.50912773 35.53546708 -16.89549255 30.74942017 C-16.61214554 29.89888062 -16.32879852 29.04834106 -16.03686523 28.17202759 C-15.44315787 26.39322781 -14.84726164 24.61515721 -14.24925232 22.83779907 C-13.33064008 20.10580645 -12.42020853 17.37118302 -11.51072693 14.63613892 C-10.93112627 12.90290626 -10.35106498 11.16982756 -9.77049255 9.43692017 C-9.36110695 8.20739624 -9.36110695 8.20739624 -8.94345093 6.95303345 C-6.60037582 0.01182863 -6.60037582 0.01182863 0 0 Z " fill="#393939" transform="translate(211.89939880371094,419.8755798339844)"/>
<path d="M0 0 C1.00969849 0.0028299 2.01939697 0.00565979 3.05969238 0.00857544 C6.25866967 0.0196972 9.4573585 0.04478687 12.65625 0.0703125 C14.83593343 0.08035265 17.01562129 0.08947668 19.1953125 0.09765625 C24.51582333 0.11790172 29.83571689 0.15706586 35.15625 0.1953125 C35.15625 7.4553125 35.15625 14.7153125 35.15625 22.1953125 C30.53109375 22.23398438 30.53109375 22.23398438 25.8125 22.2734375 C22.80720109 22.31191316 19.80207054 22.35705565 16.796875 22.40283203 C14.71753048 22.43095749 12.63808071 22.45221371 10.55859375 22.46630859 C7.55935108 22.48785488 4.56136255 22.53456526 1.5625 22.5859375 C0.64134399 22.58716614 -0.27981201 22.58839478 -1.22888184 22.58966064 C-8.00980704 22.74155114 -13.73606855 24.12721935 -18.68359375 29.01171875 C-19.04582031 29.58792969 -19.40804687 30.16414063 -19.78125 30.7578125 C-20.16152344 31.33660156 -20.54179688 31.91539063 -20.93359375 32.51171875 C-22.53653947 35.47682436 -22.97019807 37.96191317 -22.9824152 41.26577282 C-22.99062687 42.51307967 -22.99062687 42.51307967 -22.99900442 43.78558463 C-22.99998253 44.69900085 -23.00096064 45.61241707 -23.00196838 46.55351257 C-23.00690636 47.52387776 -23.01184434 48.49424294 -23.01693195 49.49401313 C-23.03234416 52.759923 -23.04067766 56.02581315 -23.04907227 59.29174805 C-23.05864786 61.62713801 -23.06865775 63.96252622 -23.07907104 66.2979126 C-23.10616066 72.65082699 -23.12714825 79.00374885 -23.14707303 85.35668921 C-23.16669688 91.31940347 -23.19085269 97.28209788 -23.21499526 103.2447953 C-23.26267062 115.05616906 -23.30593496 126.8675547 -23.34643555 138.67895508 C-23.38579076 150.15357386 -23.42721704 161.62818208 -23.47143555 173.1027832 C-23.47415982 173.80991298 -23.47688409 174.51704277 -23.47969092 175.24560072 C-23.4933704 178.79301384 -23.50709067 182.3404268 -23.52083123 185.88783967 C-23.63479512 215.3236416 -23.74153136 244.75946745 -23.84375 274.1953125 C-24.7615625 274.63101562 -25.679375 275.06671875 -26.625 275.515625 C-27.86480027 276.11674028 -29.10437128 276.71832855 -30.34375 277.3203125 C-30.94445313 277.60390625 -31.54515625 277.8875 -32.1640625 278.1796875 C-37.17502387 280.63186008 -41.47578845 283.73853872 -45.84375 287.1953125 C-45.93508968 255.16888992 -46.00583471 223.14250455 -46.04801132 191.11598207 C-46.05301387 187.33106466 -46.05819119 183.5461475 -46.06347656 179.76123047 C-46.0645258 179.00775266 -46.06557505 178.25427484 -46.06665608 177.47796437 C-46.0840398 165.29339527 -46.11556621 153.10890201 -46.15236118 140.92437783 C-46.18982732 128.41282732 -46.21199782 115.9013164 -46.22010398 103.3897121 C-46.22558003 95.67543578 -46.24284699 87.96137386 -46.27541587 80.24716356 C-46.29914974 74.32214568 -46.30155556 68.39723657 -46.29618073 62.47216988 C-46.2972781 60.04868567 -46.30519367 57.62519309 -46.3205719 55.20175743 C-46.419813 38.75086628 -46.24758883 25.20172746 -34.84375 12.1953125 C-24.78905935 2.84586067 -13.43261568 -0.14370257 0 0 Z " fill="#51504F" transform="translate(80.84375,70.8046875)"/>
<path d="M0 0 C3.48931485 1.59304837 7.26352449 1.22274814 11.03462243 1.21426356 C12.41182257 1.22295216 12.41182257 1.22295216 13.81684494 1.23181629 C16.90003188 1.248851 19.98306944 1.2516958 23.06629968 1.25463831 C25.27376192 1.26393409 27.48122064 1.27410223 29.68867517 1.2850796 C35.68823947 1.31243317 41.68778023 1.3275449 47.68739057 1.34050763 C53.95481409 1.35611473 60.22218936 1.38291264 66.48957849 1.40853846 C77.01123035 1.45004504 87.53288888 1.48462725 98.05458093 1.51391566 C108.89183978 1.54410142 119.72907225 1.5784518 130.56629968 1.61840785 C131.56835385 1.62210017 131.56835385 1.62210017 132.59065154 1.62586708 C135.94200122 1.63824169 139.29335059 1.65069822 142.64469981 1.66319549 C170.44633005 1.76657917 198.24799138 1.85581863 226.04969811 1.93579066 C226.04969811 2.26579066 226.04969811 2.59579066 226.04969811 2.93579066 C153.77969811 3.26579066 81.50969811 3.59579066 7.04969811 3.93579066 C9.68969811 5.91579066 12.32969811 7.89579066 15.04969811 9.93579066 C27.69721452 20.67147319 35.90947586 35.37935432 38.04969811 51.93579066 C39.15344126 72.25458574 35.25651021 90.03573749 21.54188561 105.82250941 C10.45044211 117.403746 -3.72481416 126.2022218 -20.14146399 127.11279261 C-23.36200495 127.16782398 -26.5821103 127.21240834 -29.80308509 127.23095667 C-31.17688859 127.24237956 -32.5506512 127.26267451 -33.92417884 127.29248011 C-52.67761125 127.69814348 -69.02504572 122.23650097 -82.76744056 109.26562464 C-96.4025629 95.79051212 -103.16052263 79.67064952 -103.38780189 60.62329066 C-103.27309223 43.11611678 -97.89566148 27.1802121 -85.58311439 14.34594691 C-63.50463375 -5.86536252 -27.6456603 -15.08523894 0 0 Z M-67.28623939 21.03735316 C-77.03924528 32.16402186 -83.38299538 45.31167374 -83.26280189 60.24829066 C-83.25716224 60.99103236 -83.25152259 61.73377406 -83.24571204 62.49902308 C-82.92584476 77.08782163 -76.87091391 89.92262204 -66.77842689 100.39282191 C-54.86968397 111.10082141 -41.07985086 115.98677888 -25.23155189 115.31469691 C-13.80201589 114.49055089 -4.10012416 110.84730931 5.04969811 103.93579066 C6.04936608 103.19135706 6.04936608 103.19135706 7.06922936 102.43188441 C14.94031545 96.13844521 19.36414601 88.18887892 23.04969811 78.93579066 C23.37196374 78.16750941 23.69422936 77.39922816 24.02626061 76.60766566 C28.86215127 63.32026517 26.45926551 49.10049197 20.98719811 36.48657191 C17.76991952 30.08552804 13.03990454 25.01263261 8.04969811 19.93579066 C7.47219811 19.34540003 6.89469811 18.75500941 6.29969811 18.14672816 C1.55706342 13.70050813 -3.94797317 11.29325124 -9.95030189 8.93579066 C-11.1220597 8.45239222 -11.1220597 8.45239222 -12.31748939 7.95922816 C-30.61710517 1.36643729 -53.50681093 7.62213867 -67.28623939 21.03735316 Z " fill="#F6AC42" transform="translate(116.95030188560486,346.06420934200287)"/>
<path d="M0 0 C3.69663917 0.01709052 7.39262958 0.00689928 11.08924675 -0.01032829 C85.16071988 -0.30182494 85.16071988 -0.30182494 100.43652344 12.39111328 C101.42871094 14.29736328 101.42871094 14.29736328 101.43652344 16.39111328 C95.14197133 23.85990638 84.30800939 25.09901561 75.12402344 26.51611328 C74.0849585 26.68151611 73.04589355 26.84691895 71.9753418 27.01733398 C26.39338412 34.02595328 -47.85926767 42.13886358 -89.56347656 19.39111328 C-91.56347656 17.39111328 -91.56347656 17.39111328 -91.68847656 14.76611328 C-91.64722656 13.98236328 -91.60597656 13.19861328 -91.56347656 12.39111328 C-66.86496316 -3.10101338 -28.31063435 -0.13193779 0 0 Z " fill="#504F4E" transform="translate(246.5634765625,465.60888671875)"/>
<path d="M0 0 C0.02332621 24.10373158 0.0409778 48.20746147 0.05181217 72.31120205 C0.05697572 83.5021496 0.06401954 94.69309015 0.07543945 105.8840332 C0.08538449 115.63429378 0.091853 125.38454929 0.09408849 135.1348148 C0.09539591 140.30089098 0.09848369 145.46695267 0.10573006 150.63302422 C0.11248744 155.48956334 0.11461754 160.3460819 0.11310768 165.20262527 C0.11338414 166.99053242 0.11539092 168.77844021 0.11920547 170.56634331 C0.12413833 172.99639799 0.12299981 175.42637377 0.12025452 177.85643005 C0.12316736 178.57334265 0.1260802 179.29025524 0.12908131 180.02889246 C0.11412121 184.88587879 0.11412121 184.88587879 -1 186 C-2.64323523 186.10139746 -4.2911458 186.1296181 -5.9375 186.125 C-6.83339844 186.12757813 -7.72929687 186.13015625 -8.65234375 186.1328125 C-13.11404743 185.95580209 -17.55694642 185.44430536 -22 185 C-22 124.61 -22 64.22 -22 2 C-17.38 1.67 -12.76 1.34 -8 1 C-4 0 -4 0 0 0 Z " fill="#514F4E" transform="translate(465,157)"/>
<path d="M0 0 C1.29693535 -0.02409439 1.29693535 -0.02409439 2.62007141 -0.04867554 C6.57613345 -0.09313499 10.5320278 -0.1341907 14.48828125 -0.15722656 C16.57465774 -0.17378639 18.66097749 -0.20107668 20.74707031 -0.23925781 C23.75510082 -0.29403155 26.7618016 -0.31590132 29.77026367 -0.33056641 C30.70062943 -0.35323578 31.63099518 -0.37590515 32.58955383 -0.39926147 C37.19184159 -0.3842552 39.15328782 -0.32551789 42.87841797 2.60058594 C46.22120405 7.07928659 46.00527145 10.71431634 46.05151367 16.14599609 C46.05958542 17.038974 46.06765717 17.9319519 46.07597351 18.85198975 C46.08981812 20.74505673 46.10053859 22.63814871 46.10839844 24.53125 C46.12558222 27.41764119 46.16946084 30.30287831 46.21362305 33.18896484 C46.22375262 35.02880018 46.2322679 36.86864524 46.23901367 38.70849609 C46.25652176 39.56807922 46.27402985 40.42766235 46.29206848 41.31329346 C46.27200326 46.89577557 45.45696275 49.90433403 41.81323242 54.19287109 C39.52321573 55.33787944 38.17412326 55.3427524 35.62646484 55.38574219 C34.76184128 55.40180511 33.89721771 55.41786804 33.00639343 55.43441772 C29.0503314 55.47887718 25.09443704 55.51993289 21.13818359 55.54296875 C19.05180711 55.55952858 16.96548736 55.58681887 14.87939453 55.625 C11.87136402 55.67977373 8.86466325 55.70164351 5.85620117 55.71630859 C4.92583542 55.73897797 3.99546967 55.76164734 3.03691101 55.78500366 C-1.56537675 55.76999738 -3.52682298 55.71126008 -7.25195312 52.78515625 C-10.59473921 48.3064556 -10.37880661 44.67142584 -10.42504883 39.23974609 C-10.43312057 38.34676819 -10.44119232 37.45379028 -10.44950867 36.53375244 C-10.46335328 34.64068546 -10.47407374 32.74759348 -10.48193359 30.85449219 C-10.49911737 27.968101 -10.542996 25.08286388 -10.5871582 22.19677734 C-10.59728778 20.35694201 -10.60580305 18.51709694 -10.61254883 16.67724609 C-10.63005692 15.81766296 -10.647565 14.95807983 -10.66560364 14.07244873 C-10.64553842 8.48996661 -9.83049791 5.48140815 -6.18676758 1.19287109 C-3.89675088 0.04786275 -2.54765842 0.04298979 0 0 Z " fill="#446AC4" transform="translate(144.186767578125,103.80712890625)"/>
<path d="M0 0 C1.26690422 -0.01441132 1.26690422 -0.01441132 2.55940247 -0.02911377 C3.93124947 -0.03548859 3.93124947 -0.03548859 5.33081055 -0.04199219 C6.74042305 -0.0505423 6.74042305 -0.0505423 8.17851257 -0.05926514 C10.16994092 -0.06872193 12.16138496 -0.07525181 14.15283203 -0.07910156 C17.19485943 -0.08879495 20.23620779 -0.11980691 23.27807617 -0.15136719 C25.21231695 -0.15789843 27.14656256 -0.16314843 29.08081055 -0.16699219 C29.98930252 -0.17933899 30.89779449 -0.19168579 31.83381653 -0.20440674 C36.6339815 -0.18753933 40.09924897 -0.11192144 43.9050293 3.16113281 C45.57588091 5.9527531 46.16036442 8.04596105 46.19555664 11.28369141 C46.20831635 12.08487396 46.22107605 12.88605652 46.23422241 13.71151733 C46.23644806 14.56887482 46.23867371 15.4262323 46.2409668 16.30957031 C46.2476236 17.19971832 46.2542804 18.08986633 46.26113892 19.00698853 C46.27125276 20.88810158 46.27595633 22.76925041 46.27563477 24.65039062 C46.28000345 27.51916041 46.3163232 30.38638556 46.35424805 33.25488281 C46.36011749 35.08560674 46.36408603 36.91633794 46.3659668 38.74707031 C46.38033783 39.60037933 46.39470886 40.45368835 46.40951538 41.33285522 C46.36718115 46.88833907 45.52409973 49.8895675 41.9050293 54.16113281 C39.61074224 55.30827634 38.27056519 55.30516755 35.71826172 55.33813477 C34.42132637 55.35738762 34.42132637 55.35738762 33.09819031 55.37702942 C32.16175186 55.38441635 31.22531342 55.39180328 30.26049805 55.39941406 C29.29856033 55.40748581 28.33662262 55.41555756 27.34553528 55.4238739 C25.30703537 55.43771891 23.26851224 55.4484392 21.22998047 55.45629883 C18.11535593 55.4735067 15.00179412 55.51738858 11.88745117 55.56152344 C9.90764127 55.57165073 7.92782235 55.58016672 5.94799805 55.58691406 C4.55244942 55.61317619 4.55244942 55.61317619 3.12870789 55.63996887 C-1.09965008 55.62581645 -3.46898811 55.53672237 -7.16015625 53.32202148 C-9.80386226 50.36941052 -10.21847053 47.97609215 -10.27197266 44.15209961 C-10.28480789 43.35084152 -10.29764313 42.54958344 -10.31086731 41.7240448 C-10.31825424 40.86152603 -10.32564117 39.99900726 -10.33325195 39.11035156 C-10.3413237 38.2187886 -10.34939545 37.32722565 -10.35771179 36.40864563 C-10.37153977 34.52155495 -10.38226768 32.63443939 -10.39013672 30.74731445 C-10.40734416 27.86979482 -10.45124058 24.993426 -10.49536133 22.11621094 C-10.50548925 20.28093291 -10.51400504 18.44564513 -10.52075195 16.61035156 C-10.53826004 15.75390549 -10.55576813 14.89745941 -10.57380676 14.01506042 C-10.5536971 8.44239863 -9.73000951 5.44324658 -6.0949707 1.16113281 C-3.81873492 0.02301492 -2.52912968 0.02319941 0 0 Z " fill="#446BC4" transform="translate(144.094970703125,253.8388671875)"/>
<path d="M0 0 C1.26690422 -0.01441132 1.26690422 -0.01441132 2.55940247 -0.02911377 C3.93124947 -0.03548859 3.93124947 -0.03548859 5.33081055 -0.04199219 C6.74042305 -0.0505423 6.74042305 -0.0505423 8.17851257 -0.05926514 C10.16994092 -0.06872193 12.16138496 -0.07525181 14.15283203 -0.07910156 C17.19485943 -0.08879495 20.23620779 -0.11980691 23.27807617 -0.15136719 C25.21231695 -0.15789843 27.14656256 -0.16314843 29.08081055 -0.16699219 C29.98930252 -0.17933899 30.89779449 -0.19168579 31.83381653 -0.20440674 C36.6339815 -0.18753933 40.09924897 -0.11192144 43.9050293 3.16113281 C45.57588091 5.9527531 46.16036442 8.04596105 46.19555664 11.28369141 C46.20831635 12.08487396 46.22107605 12.88605652 46.23422241 13.71151733 C46.23644806 14.56887482 46.23867371 15.4262323 46.2409668 16.30957031 C46.2476236 17.19971832 46.2542804 18.08986633 46.26113892 19.00698853 C46.27125276 20.88810158 46.27595633 22.76925041 46.27563477 24.65039062 C46.28000345 27.51916041 46.3163232 30.38638556 46.35424805 33.25488281 C46.36011749 35.08560674 46.36408603 36.91633794 46.3659668 38.74707031 C46.38033783 39.60037933 46.39470886 40.45368835 46.40951538 41.33285522 C46.36718115 46.88833907 45.52409973 49.8895675 41.9050293 54.16113281 C39.6150126 55.30614116 38.26592014 55.31101412 35.71826172 55.35400391 C34.85363815 55.37006683 33.98901459 55.38612976 33.09819031 55.40267944 C29.14212827 55.4471389 25.18623392 55.48819461 21.22998047 55.51123047 C19.14360398 55.5277903 17.05728423 55.55508059 14.97119141 55.59326172 C11.9631609 55.64803545 8.95646012 55.66990523 5.94799805 55.68457031 C5.01763229 55.70723969 4.08726654 55.72990906 3.12870789 55.75326538 C-1.47357987 55.7382591 -3.4350261 55.67952179 -7.16015625 52.75341797 C-10.50294233 48.27471732 -10.28700973 44.63968756 -10.33325195 39.20800781 C-10.3413237 38.31502991 -10.34939545 37.422052 -10.35771179 36.50201416 C-10.3715564 34.60894718 -10.38227687 32.7158552 -10.39013672 30.82275391 C-10.4073205 27.93636272 -10.45119912 25.0511256 -10.49536133 22.16503906 C-10.5054909 20.32520373 -10.51400618 18.48535866 -10.52075195 16.64550781 C-10.53826004 15.78592468 -10.55576813 14.92634155 -10.57380676 14.04071045 C-10.55374154 8.45822833 -9.73870103 5.44966987 -6.0949707 1.16113281 C-3.81873492 0.02301492 -2.52912968 0.02319941 0 0 Z " fill="#446AC4" transform="translate(144.094970703125,178.8388671875)"/>
<path d="M0 0 C10.05937365 7.85702557 17.08363552 18.1188697 19 31 C20.01338937 46.61009394 16.66505134 57.55784393 7.75 70.1875 C-0.14877711 78.26579477 -9.17196911 82.29299228 -20 85 C-24.62 85 -29.24 85 -34 85 C-34 145.39 -34 205.78 -34 268 C-34.33 268 -34.66 268 -35 268 C-35 207.28 -35 146.56 -35 84 C-37.97 83.67 -40.94 83.34 -44 83 C-55.62607197 78.52022915 -64.39036929 70.90294255 -70.22265625 59.9453125 C-71 58 -71 58 -71 55 C-70.21625 55.268125 -69.4325 55.53625 -68.625 55.8125 C-49.72674418 62.00330794 -32.35420336 64.20878328 -14 55 C-4.23848194 49.81985062 2.34467104 42.45502693 6 32 C8.46915333 23.87027067 7.89363919 15.90896271 4.0625 8.375 C3.04538377 6.58122055 2.02521787 4.78916138 1 3 C0.505 1.515 0.505 1.515 0 0 Z " fill="#2D5799" transform="translate(477,74)"/>
<path d="M0 0 C2.71529931 2.71529931 2.80052614 5.0715462 3.625 8.8125 C7.21811812 23.34416128 16.32489623 35.49702837 29.08618164 43.33349609 C34.99407052 46.77324687 40.92771311 49.23610602 47.57421875 50.91796875 C50.69588513 52.31040287 51.52489683 53.98565873 53 57 C53.40508789 56.51644043 53.81017578 56.03288086 54.22753906 55.53466797 C56.40588303 53.64857015 57.51279213 53.57958528 60.359375 53.4453125 C61.22103271 53.39060791 62.08269043 53.33590332 62.97045898 53.27954102 C63.88770752 53.22854248 64.80495605 53.17754395 65.75 53.125 C77.57355538 52.24703834 87.41439119 49.47641602 98 44 C92.92529562 54.63381237 83.03802752 61.18177485 72.3515625 65.4609375 C57.35842104 69.96847043 42.52230735 69.54216245 28.328125 62.71484375 C15.44508766 55.53315057 5.440788 44.70903493 1.0625 30.4375 C0.6871794 28.96355885 0.33081442 27.48456387 0 26 C-0.25801392 25.06607422 -0.25801392 25.06607422 -0.52124023 24.11328125 C-1.30907203 20.63573306 -1.14317652 17.10995107 -1.125 13.5625 C-1.12886719 12.81162109 -1.13273437 12.06074219 -1.13671875 11.28710938 C-1.12986606 7.39135683 -0.95301756 3.8045066 0 0 Z " fill="#E0860E" transform="translate(35,393)"/>
<path d="M0 0 C14.30124575 -0.58861835 14.30124575 -0.58861835 21 3 C27.8828802 9.58362454 28.3692119 17.3915368 29.109375 26.40625 C29.19346619 27.40958374 29.27755737 28.41291748 29.36419678 29.44665527 C30.16172772 39.7659252 30.30324394 50.06082971 30.26074219 60.40673828 C30.2500027 63.49922265 30.26073342 66.59112647 30.2734375 69.68359375 C30.28200067 79.99690775 29.99114466 90.24838933 29.171875 100.53125 C29.10276917 101.46658569 29.03366333 102.40192139 28.96246338 103.36560059 C28.33772908 110.32746853 27.20473728 116.39954065 22.5625 121.875 C18.0135502 125.64729984 14.05762621 126.45688492 8.25 127.0625 C7.49847656 127.14483887 6.74695313 127.22717773 5.97265625 127.31201172 C-7.36111618 128.72188506 -20.60207525 129.14923431 -34 129 C-34 128.67 -34 128.34 -34 128 C-32.92105469 127.93006836 -31.84210938 127.86013672 -30.73046875 127.78808594 C-26.69612169 127.52201634 -22.66365137 127.23329279 -18.63134766 126.93798828 C-16.89186438 126.81371642 -15.1519408 126.69544648 -13.41162109 126.58349609 C-10.89799177 126.42072239 -8.38678125 126.23582701 -5.875 126.046875 C-5.10696045 126.0018988 -4.3389209 125.95692261 -3.54760742 125.9105835 C2.68707771 125.40720071 8.23117298 123.58423856 12.875 119.25 C25.14547285 94.70905429 19.41321181 50.88468605 17.1875 24.1875 C17.11756836 23.3313208 17.04763672 22.4751416 16.97558594 21.59301758 C16.33482426 15.41707062 15.12883356 9.31130501 10.8125 4.625 C7.23176079 2.55612846 4.04802715 1.82332756 0 1 C0 0.67 0 0.34 0 0 Z " fill="#7F1B10" transform="translate(468,343)"/>
<path d="M0 0 C-2.21676155 2.21676155 -4.49101401 3.2473424 -7.30639648 4.5612793 C-25.29569234 13.01288914 -36.91544759 25.93875235 -43.96484375 44.546875 C-49.38753645 62.23934705 -46.43876141 80.59509262 -38.25 96.8125 C-29.85640285 110.9859919 -17.78517608 121.73827464 -2 127 C2.95114148 128.25745258 7.96187423 129.16371192 13 130 C13 130.33 13 130.66 13 131 C-3.6843396 131.99773459 -19.00534938 127.08575912 -31.77075195 116.14086914 C-45.22196655 104.00602044 -54.35013487 88.41586621 -55.3203125 70.09765625 C-55.90468272 51.63763736 -52.09065395 35.31496252 -39.9375 20.8125 C-29.90274599 10.35254455 -15.05276444 -0.72314165 0 0 Z " fill="#F9990F" transform="translate(69,342)"/>
<path d="M0 0 C2.61580479 0.3269756 4.64078137 0.82039068 7 2 C7.99 1.34 8.98 0.68 10 0 C12.04296875 -0.1953125 12.04296875 -0.1953125 14.1875 -0.125 C16.0746875 -0.063125 16.0746875 -0.063125 18 0 C18 0.66 18 1.32 18 2 C18.99 1.34 19.98 0.68 21 0 C23.54760742 0.11352539 23.54760742 0.11352539 26 1 C27.30200195 2.82592773 27.30200195 2.82592773 28.23828125 5.18359375 C28.58310547 6.02857422 28.92792969 6.87355469 29.28320312 7.74414062 C29.62287109 8.63294922 29.96253906 9.52175781 30.3125 10.4375 C30.67150391 11.32244141 31.03050781 12.20738281 31.40039062 13.11914062 C34 19.62063988 34 19.62063988 34 22 C34.66 22 35.32 22 36 22 C36.09796875 21.34515625 36.1959375 20.6903125 36.296875 20.015625 C37.2174459 16.0673987 38.67460156 12.47732566 40.25 8.75 C40.53746094 8.0178125 40.82492187 7.285625 41.12109375 6.53125 C43.34946535 1.27657461 43.34946535 1.27657461 46.609375 -0.109375 C49 0 49 0 51 2 C50.70741238 7.80691675 48.74664287 12.62745635 46.47265625 17.92578125 C46.12367783 18.75458298 45.7746994 19.5833847 45.41514587 20.43730164 C44.68021009 22.17772948 43.94125216 23.91646382 43.19848633 25.65356445 C42.06032232 28.31759716 40.93648468 30.98734146 39.81445312 33.65820312 C39.0971891 35.35191633 38.37911836 37.04528817 37.66015625 38.73828125 C37.15537498 39.93666374 37.15537498 39.93666374 36.64039612 41.15925598 C34.23150536 46.76849464 34.23150536 46.76849464 32 49 C28.46428571 48.46428571 28.46428571 48.46428571 27 47 C26.78308882 43.81863606 26.74933745 41.56030453 28.0625 38.625 C30.72135379 31.18020938 26.34404943 23.28343235 23.4375 16.5 C23.01275391 15.48679687 22.58800781 14.47359375 22.15039062 13.4296875 C21.1090724 10.94924408 20.05881459 8.47301316 19 6 C18.38511719 6.20496094 17.77023437 6.40992188 17.13671875 6.62109375 C13.7578125 7.74739583 10.37890625 8.87369792 7 10 C6.97494385 10.69150146 6.9498877 11.38300293 6.92407227 12.09545898 C6.80847839 15.20967866 6.68558758 18.32356789 6.5625 21.4375 C6.52318359 22.52611328 6.48386719 23.61472656 6.44335938 24.73632812 C6.40146484 25.77080078 6.35957031 26.80527344 6.31640625 27.87109375 C6.26141968 29.30859985 6.26141968 29.30859985 6.20532227 30.77514648 C6 33 6 33 5 34 C2.5625 34.1875 2.5625 34.1875 0 34 C-2.83259575 31.16740425 -2.25838261 29.2730534 -2.265625 25.3125 C-2.26753845 24.65419189 -2.2694519 23.99588379 -2.27142334 23.31762695 C-2.2727845 21.9256146 -2.26909283 20.53358953 -2.26074219 19.14160156 C-2.250041 17.00817411 -2.26063906 14.87558869 -2.2734375 12.7421875 C-2.27211589 11.39062314 -2.26955347 10.0390593 -2.265625 8.6875 C-2.26336914 7.45386719 -2.26111328 6.22023438 -2.25878906 4.94921875 C-2 2 -2 2 0 0 Z " fill="#466CC5" transform="translate(290,51)"/>
<path d="M0 0 C2.07282499 0.02368245 4.14435762 0.02051147 6.21728516 0.01391602 C41.32133242 0.08476016 41.32133242 0.08476016 49.57275391 8.33618164 C22.41245084 18.82751439 -13.4047102 19.74502359 -40.42724609 8.33618164 C-39.42724609 6.33618164 -39.42724609 6.33618164 -35.86474609 4.89868164 C-24.03956847 1.22226796 -12.31329156 -0.14945428 0 0 Z " fill="#3A3A3A" transform="translate(247.42724609375,379.663818359375)"/>
<path d="M0 0 C0.33 0 0.66 0 1 0 C1.14547545 4.06212212 1.23413226 8.12357287 1.3125 12.1875 C1.35439453 13.33798828 1.39628906 14.48847656 1.43945312 15.67382812 C1.45556641 16.78564453 1.47167969 17.89746094 1.48828125 19.04296875 C1.51446533 20.06414795 1.54064941 21.08532715 1.56762695 22.13745117 C0.75035204 26.25897734 -0.56744791 27.59078716 -4 30 C-7.31855876 30.71736279 -10.55222196 30.70126621 -13.9375 30.6640625 C-14.89519287 30.66884613 -15.85288574 30.67362976 -16.83959961 30.67855835 C-18.86020555 30.68195401 -20.88086668 30.67277495 -22.90136719 30.65185547 C-25.99018111 30.6250851 -29.0753613 30.65161452 -32.1640625 30.68359375 C-34.13021634 30.68028959 -36.09636791 30.67388324 -38.0625 30.6640625 C-38.98345459 30.67418365 -39.90440918 30.68430481 -40.85327148 30.69473267 C-45.36381346 30.61249063 -47.38323525 30.46894915 -51.0703125 27.66552734 C-53.2264288 24.68722803 -53.74625742 22.63697704 -54 19 C-52.22496094 18.92652344 -52.22496094 18.92652344 -50.4140625 18.8515625 C-31.18771906 17.98041334 -13.78018556 14.64144715 0 0 Z " fill="#255299" transform="translate(188,204)"/>
<path d="M0 0 C0.33 0 0.66 0 1 0 C1.14547545 4.06212212 1.23413226 8.12357287 1.3125 12.1875 C1.35439453 13.33798828 1.39628906 14.48847656 1.43945312 15.67382812 C1.45556641 16.78564453 1.47167969 17.89746094 1.48828125 19.04296875 C1.51446533 20.06414795 1.54064941 21.08532715 1.56762695 22.13745117 C0.75028432 26.25931888 -0.56598549 27.59220217 -4 30 C-7.32007859 30.70693134 -10.55315434 30.67762783 -13.9375 30.62890625 C-15.37403931 30.63252419 -15.37403931 30.63252419 -16.83959961 30.63621521 C-18.86023101 30.63523766 -20.88088949 30.62186601 -22.90136719 30.59692383 C-25.98986009 30.56261265 -29.07549116 30.57627041 -32.1640625 30.59570312 C-34.13022048 30.58880443 -36.0963711 30.57913184 -38.0625 30.56640625 C-38.98345459 30.57136612 -39.90440918 30.57632599 -40.85327148 30.58143616 C-45.01422481 30.50520469 -47.42111319 30.33957124 -51.0703125 28.19897461 C-53.65324646 25.25559326 -53.77846466 22.83994584 -54 19 C-53.1478894 18.98598145 -53.1478894 18.98598145 -52.27856445 18.97167969 C-34.31391812 18.60123717 -16.14075877 16.56257108 -2.75 3.0625 C-2.22921875 2.47597656 -1.7084375 1.88945312 -1.171875 1.28515625 C-0.78515625 0.86105469 -0.3984375 0.43695313 0 0 Z " fill="#255299" transform="translate(188,279)"/>
<path d="M0 0 C0.14547545 4.06212212 0.23413226 8.12357287 0.3125 12.1875 C0.35439453 13.33798828 0.39628906 14.48847656 0.43945312 15.67382812 C0.45556641 16.78564453 0.47167969 17.89746094 0.48828125 19.04296875 C0.51446533 20.06414795 0.54064941 21.08532715 0.56762695 22.13745117 C-0.24964796 26.25897734 -1.56744791 27.59078716 -5 30 C-8.31855876 30.71736279 -11.55222196 30.70126621 -14.9375 30.6640625 C-15.89519287 30.66884613 -16.85288574 30.67362976 -17.83959961 30.67855835 C-19.86020555 30.68195401 -21.88086668 30.67277495 -23.90136719 30.65185547 C-26.99018111 30.6250851 -30.0753613 30.65161452 -33.1640625 30.68359375 C-35.13021634 30.68028959 -37.09636791 30.67388324 -39.0625 30.6640625 C-39.98345459 30.67418365 -40.90440918 30.68430481 -41.85327148 30.69473267 C-46.37253989 30.61233152 -48.39341917 30.45655903 -52.1015625 27.66552734 C-54.35526252 24.50118877 -54.44222023 22.803094 -54 19 C-52.35064453 18.92652344 -52.35064453 18.92652344 -50.66796875 18.8515625 C-32.14183376 17.95855951 -16.23002373 15.01254713 -2.50390625 1.46875 C-1 0 -1 0 0 0 Z " fill="#255299" transform="translate(189,129)"/>
<path d="M0 0 C2.0625 1.5625 2.0625 1.5625 4 4 C3.75 7.75 3.75 7.75 3 11 C3.845625 11.165 4.69125 11.33 5.5625 11.5 C10.17533751 13.51287455 13.42996655 16.64818617 16 21 C15.69140625 23.2578125 15.69140625 23.2578125 15 25 C14.443125 24.071875 13.88625 23.14375 13.3125 22.1875 C10.92609432 18.89813 9.73558759 17.49423504 6 16 C1.20742246 15.28111337 -2.08378756 15.53356458 -6.4375 17.75 C-9.39412515 20.34606111 -10.70087707 22.26823565 -11.37109375 26.1484375 C-11.39300781 26.88320313 -11.41492188 27.61796875 -11.4375 28.375 C-11.49744141 29.46941406 -11.49744141 29.46941406 -11.55859375 30.5859375 C-10.71802793 34.2185926 -8.83527584 36.6820849 -6 39 C-3.22946575 39.94261196 -0.90080439 40.58022544 1.9375 41.0625 C9.17784168 42.34020735 13.44963504 44.42948905 17.875 50.625 C19.84608584 56.53825752 19.84085312 62.37851675 17.9375 68.3125 C14.58170868 72.96730731 11.21178604 76.43699992 5.5625 77.875 C4.716875 77.91625 3.87125 77.9575 3 78 C3.2475 79.0725 3.495 80.145 3.75 81.25 C4 85 4 85 2.0625 87.4375 C1.381875 87.953125 0.70125 88.46875 0 89 C-1.5625 87.4375 -1.5625 87.4375 -3 85 C-2.6875 81.25 -2.6875 81.25 -2 78 C-2.886875 77.773125 -3.77375 77.54625 -4.6875 77.3125 C-9.66268416 75.34120062 -12.11344292 72.44804323 -14.875 67.9375 C-16.07626949 64.80085189 -15.95787834 64.05077691 -15 61 C-14.78085938 61.53109375 -14.56171875 62.0621875 -14.3359375 62.609375 C-12.08982849 67.61290239 -10.1710995 70.61333869 -5 73 C0.28025739 73.91876479 4.55318187 73.10243125 9 70 C12.28102593 65.29719617 12.61595345 61.54358109 12 56 C9.93228896 52.72018249 8.22880989 51.15253993 5 49 C3.11177079 48.69788333 1.21378047 48.45449111 -0.6875 48.25 C-8.08635434 47.1034463 -12.49169041 44.29215634 -17 38.375 C-18.73270086 32.52713459 -19.23906937 26.40331054 -17.12109375 20.5859375 C-14.33959325 15.68388712 -11.12774606 13.23756192 -6 11 C-4.68 11 -3.36 11 -2 11 C-2.3403125 9.39125 -2.3403125 9.39125 -2.6875 7.75 C-3 4 -3 4 -1.5625 1.5625 C-1.046875 1.046875 -0.53125 0.53125 0 0 Z " fill="#FEFAF3" transform="translate(88,362)"/>
<path d="M0 0 C3.25 1.75 3.25 1.75 4.078125 3.734375 C4.13484375 4.39953125 4.1915625 5.0646875 4.25 5.75 C2.25 7.75 2.25 7.75 0.32641602 7.9453125 C-0.82322632 7.91050781 -0.82322632 7.91050781 -1.99609375 7.875 C-2.83333984 7.85953125 -3.67058594 7.8440625 -4.53320312 7.828125 C-6.29883151 7.77615654 -8.06445653 7.72407372 -9.83007812 7.671875 C-11.08788086 7.64867187 -11.08788086 7.64867187 -12.37109375 7.625 C-13.1386499 7.60179687 -13.90620605 7.57859375 -14.69702148 7.5546875 C-17.06224171 7.61625783 -17.06224171 7.61625783 -19.75 9.75 C-19.80167527 12.17267086 -19.80167527 12.17267086 -18.75 14.75 C-15.49562559 16.55798578 -12.35068227 17.56828766 -8.79296875 18.64453125 C2.4306262 22.11817161 2.4306262 22.11817161 5.25 26.75 C6.06751983 30.88609611 6.22128528 34.77450451 4.328125 38.625 C1.56367874 42.21518995 -1.49775397 44.35835585 -5.75 45.75 C-13.0976194 46.50575514 -20.0433383 46.02814406 -26.75 42.75 C-27.41 42.09 -28.07 41.43 -28.75 40.75 C-28.375 38.125 -28.375 38.125 -27.75 35.75 C-25.16151814 34.79130301 -24.10170216 34.59786264 -21.51953125 35.71484375 C-18.22906662 36.94470711 -15.62867376 36.98179932 -12.125 36.9375 C-10.99835938 36.93105469 -9.87171875 36.92460938 -8.7109375 36.91796875 C-5.69271774 36.8764556 -5.69271774 36.8764556 -2.75 35.75 C-2.75 34.1 -2.75 32.45 -2.75 30.75 C-7.08938876 28.41958752 -11.12007777 26.5540014 -15.875 25.25 C-20.87150076 23.82791901 -24.88614451 22.20690041 -28.125 17.9375 C-29.4488721 13.30394765 -29.31321778 9.89896427 -27.1875 5.5625 C-20.03782855 -2.68712091 -10.14515844 -3.30860122 0 0 Z " fill="#486DC6" transform="translate(191.75,40.25)"/>
<path d="M0 0 C4.16006057 4.16006057 5.54641012 7.8874102 5.73828125 13.703125 C5.73696171 15.67715547 5.71962515 17.65123051 5.6875 19.625 C5.69233398 21.13320312 5.69233398 21.13320312 5.69726562 22.671875 C5.64229646 30.10770354 5.64229646 30.10770354 3.375 32.375 C0.2836614 32.61279528 -1.65604944 32.36465019 -4.625 31.375 C-5.181875 31.684375 -5.73875 31.99375 -6.3125 32.3125 C-9.70375066 33.8706422 -12.98836934 33.84587847 -16.625 33.375 C-20.26707936 31.75629806 -22.79148143 29.94553617 -24.625 26.375 C-25.01893831 23.27273577 -25.26049198 21.33474505 -24.625 18.375 C-22.04030792 15.0723379 -19.51186947 12.90784993 -15.625 11.375 C-12.609375 11.1796875 -12.609375 11.1796875 -9.375 11.25 C-8.29734375 11.26804687 -7.2196875 11.28609375 -6.109375 11.3046875 C-4.87960938 11.33949219 -4.87960938 11.33949219 -3.625 11.375 C-3.97286708 9.39963255 -3.97286708 9.39963255 -4.625 7.375 C-8.64755768 5.36372116 -13.69636049 6.20302972 -18 7 C-18.86625 7.12375 -19.7325 7.2475 -20.625 7.375 C-21.285 6.715 -21.945 6.055 -22.625 5.375 C-22.5625 2.875 -22.5625 2.875 -21.625 0.375 C-15.10754033 -3.04902772 -6.61556039 -2.96559604 0 0 Z " fill="#486EC6" transform="translate(225.625,52.625)"/>
<path d="M0 0 C1.1034375 -0.00773437 2.206875 -0.01546875 3.34375 -0.0234375 C7.93529243 0.55618791 10.31403583 2.37895173 13.79296875 5.30078125 C16.50985223 10.19365836 15.95812334 15.07088199 15.8125 20.5625 C15.80283203 21.66787109 15.79316406 22.77324219 15.78320312 23.91210938 C15.66890537 32.03718927 15.66890537 32.03718927 14.5 34.375 C12.52 34.375 10.54 34.375 8.5 34.375 C8.5 33.715 8.5 33.055 8.5 32.375 C7.324375 32.87 6.14875 33.365 4.9375 33.875 C0.95110928 35.34441033 -2.2185019 35.93000901 -6.5 35.375 C-9.61141288 33.7312347 -11.78893717 32.34463114 -13.875 29.5 C-14.75151896 26.51983554 -14.93422592 24.47661374 -14.5 21.375 C-12.28263372 17.98373392 -10.47603696 15.88625745 -6.875 14 C-2.07235932 13.1106221 2.6310148 13.21905385 7.5 13.375 C6.1910428 10.25302522 6.1910428 10.25302522 3.5 8.375 C-1.37575476 8.21247484 -5.68617178 8.55312689 -10.5 9.375 C-11.5 8.375 -11.5 8.375 -11.875 6 C-11.5 3.375 -11.5 3.375 -9.3828125 1.734375 C-6.02371172 0.15040878 -3.7003726 -0.02593719 0 0 Z " fill="#466CC5" transform="translate(265.5,50.625)"/>
<path d="M0 0 C-4.21501046 13.88116425 -14.6201641 24.8024306 -25.75 33.6875 C-26.28061035 34.12199463 -26.8112207 34.55648926 -27.35791016 35.00415039 C-29.96050907 36.99286748 -31.92131505 37.9861888 -35.16015625 38.5546875 C-38 38 -38 38 -40.01171875 36.05859375 C-40.56472656 35.19363281 -41.11773437 34.32867187 -41.6875 33.4375 C-42.27015625 32.52742188 -42.8528125 31.61734375 -43.453125 30.6796875 C-48 22.8030303 -48 22.8030303 -48 18 C-42.37777778 19.78888889 -42.37777778 19.78888889 -39.875 21.1875 C-37.37491484 22.27087024 -36.54260864 21.96990775 -34 21 C-32.29796869 19.54233378 -30.65902488 18.01001699 -29.0625 16.4375 C-21.66174192 9.531445 -10.62457726 0 0 0 Z " fill="#F9FAFD" transform="translate(473,93)"/>
<path d="M0 0 C12.54 0 25.08 0 38 0 C33 5 33 5 30.625 6.6875 C26.62867541 10.20807166 23.9286481 14.58120853 21 19 C20.34 19.99 19.68 20.98 19 22 C17.12060547 22.34057617 17.12060547 22.34057617 14.8671875 22.29296875 C14.06152344 22.28330078 13.25585938 22.27363281 12.42578125 22.26367188 C11.58402344 22.23853516 10.74226563 22.21339844 9.875 22.1875 C8.60076172 22.16719727 8.60076172 22.16719727 7.30078125 22.14648438 C5.20025163 22.11108219 3.10004707 22.05727401 1 22 C-0.01960657 14.48040153 0 7.76083877 0 0 Z " fill="#515050" transform="translate(387,71)"/>
<path d="M0 0 C3.60897916 0.0106481 7.21745266 0.00009458 10.82641602 -0.01269531 C22.00713866 -0.01996726 33.11813959 0.19164892 44.26196289 1.15136719 C45.19524918 1.22885193 46.12853546 1.30633667 47.09010315 1.38616943 C49.26204269 1.59871508 51.42308316 1.91833987 53.57836914 2.26074219 C54.07336914 3.25074219 54.07336914 3.25074219 54.57836914 4.26074219 C52.4957645 4.57806213 50.41222884 4.88927165 48.32836914 5.19824219 C46.58813477 5.45927734 46.58813477 5.45927734 44.81274414 5.72558594 C33.9940659 7.1591168 23.26661713 7.41906305 12.37158203 7.39111328 C9.91245246 7.38578892 7.45350856 7.39107041 4.99438477 7.39746094 C-9.9351289 7.40465543 -24.69426531 6.89886158 -39.42163086 4.26074219 C-39.09163086 3.60074219 -38.76163086 2.94074219 -38.42163086 2.26074219 C-26.07890417 -0.91214421 -12.61865386 -0.04417166 0 0 Z " fill="#8E9EEB" transform="translate(315.421630859375,183.7392578125)"/>
<path d="M0 0 C3.62432918 0.00316217 7.2478412 -0.02039065 10.87207031 -0.0456543 C24.29796823 -0.08037585 37.09209883 0.64743172 50.26269531 3.31567383 C50.26269531 3.64567383 50.26269531 3.97567383 50.26269531 4.31567383 C48.03423122 4.6331452 45.80486885 4.94431106 43.57519531 5.25317383 C41.71314453 5.51420898 41.71314453 5.51420898 39.81347656 5.78051758 C27.97012011 7.250476 16.17805251 7.51543134 4.26269531 7.50317383 C3.45031403 7.50356659 2.63793274 7.50395935 1.80093384 7.50436401 C-10.80977769 7.49707163 -23.22429518 6.97786318 -35.73730469 5.31567383 C-37.25150349 5.12587888 -38.76582278 4.93704224 -40.28027344 4.74926758 C-41.42109375 4.60618164 -42.56191406 4.4630957 -43.73730469 4.31567383 C-32.94633865 -2.87830353 -12.42591184 -0.02262609 0 0 Z " fill="#8C9DEA" transform="translate(319.7373046875,258.684326171875)"/>
<path d="M0 0 C3.17620029 0.02376882 6.35156397 0.02050578 9.52783203 0.01391602 C18.80639333 0.02624639 28.01598713 0.18534029 37.24267578 1.23071289 C38.28146881 1.3465699 38.28146881 1.3465699 39.34124756 1.46476746 C42.73028201 1.9066733 44.50959007 2.39954117 47.41455078 4.33618164 C45.83285748 4.6568793 44.24903669 4.96707914 42.66455078 5.27368164 C41.78283203 5.44770508 40.90111328 5.62172852 39.99267578 5.80102539 C28.17622736 7.56833263 16.33814437 7.52241889 4.41748047 7.52148438 C1.31740396 7.52366207 -1.78231074 7.54184649 -4.88232422 7.56079102 C-14.28297105 7.58790087 -23.59802273 7.44556762 -32.95263672 6.44946289 C-33.70247833 6.37173141 -34.45231995 6.29399994 -35.22488403 6.21391296 C-40.32871473 5.59291613 -40.32871473 5.59291613 -42.58544922 3.33618164 C-28.31818934 0.86382603 -14.47448589 -0.11548196 0 0 Z " fill="#8D9EEB" transform="translate(252.58544921875,146.663818359375)"/>
<path d="M0 0 C3.38706448 0.0107047 6.77359619 0.00005085 10.16064453 -0.01269531 C23.40433428 -0.01992795 36.37959449 0.63046632 49.52392578 2.26074219 C49.52392578 2.92074219 49.52392578 3.58074219 49.52392578 4.26074219 C47.62924244 4.58014053 45.73307584 4.89073798 43.83642578 5.19824219 C42.78068359 5.37226562 41.72494141 5.54628906 40.63720703 5.72558594 C28.83278606 7.38280064 16.98012381 7.46015029 5.08642578 7.44824219 C4.25330872 7.44863495 3.42019165 7.44902771 2.56182861 7.44943237 C-28.5249064 7.43190044 -28.5249064 7.43190044 -40.47607422 4.26074219 C-40.47607422 3.60074219 -40.47607422 2.94074219 -40.47607422 2.26074219 C-26.96534985 0.34775783 -13.63548771 -0.05112079 0 0 Z " fill="#8D9DEA" transform="translate(317.47607421875,108.7392578125)"/>
<path d="M0 0 C0.98067444 -0.00570007 1.96134888 -0.01140015 2.97174072 -0.01727295 C5.04251038 -0.02667304 7.11329466 -0.03323693 9.18408203 -0.03710938 C12.27795301 -0.04671916 15.37113084 -0.07775104 18.46484375 -0.109375 C31.7617918 -0.17789133 44.47741419 0.93589157 57.578125 3.203125 C46.07632298 9.3127146 29.55770349 7.51517656 16.90698242 7.46386719 C13.78088834 7.45317719 10.65537328 7.46380601 7.52929688 7.4765625 C-2.10412046 7.48378345 -11.65614875 7.27966619 -21.24609375 6.3125 C-22.0340181 6.23501526 -22.82194244 6.15753052 -23.63374329 6.07769775 C-27.25901201 5.66280378 -29.33429289 5.26151307 -32.421875 3.203125 C-30.44310669 2.88811243 -28.46383494 2.5762619 -26.484375 2.265625 C-25.38222656 2.09160156 -24.28007812 1.91757812 -23.14453125 1.73828125 C-15.39777056 0.6246336 -7.82925986 0.03633507 0 0 Z " fill="#8D9DEA" transform="translate(242.421875,277.796875)"/>
<path d="M0 0 C1.06852203 -0.00058914 1.06852203 -0.00058914 2.15863037 -0.00119019 C16.54461196 0.00825497 30.6479341 1.09306457 44.875 3.1875 C44.545 3.8475 44.215 4.5075 43.875 5.1875 C30.94649386 8.63258566 16.58746652 7.49068544 3.35986328 7.44824219 C-0.61571507 7.43752503 -4.59084164 7.44818115 -8.56640625 7.4609375 C-36.53091294 7.47758408 -36.53091294 7.47758408 -45.125 5.1875 C-45.455 4.5275 -45.785 3.8675 -46.125 3.1875 C-43.93850348 2.86805441 -41.75071241 2.5574719 -39.5625 2.25 C-38.34433594 2.07597656 -37.12617188 1.90195312 -35.87109375 1.72265625 C-23.95879892 0.25981355 -11.98755866 -0.01419953 0 0 Z " fill="#8D9EEB" transform="translate(256.125,296.8125)"/>
<path d="M0 0 C0.91335114 -0.00322266 1.82670227 -0.00644531 2.76773071 -0.00976562 C14.69074892 -0.03541486 26.25384367 0.62217497 38.0625 2.3125 C39.0663826 2.45514786 39.0663826 2.45514786 40.09054565 2.60067749 C41.74809232 2.83634972 43.40532994 3.07419399 45.0625 3.3125 C45.0625 3.6425 45.0625 3.9725 45.0625 4.3125 C30.67213853 6.8165309 16.70490141 7.76278871 2.10473633 7.64868164 C-1.13290178 7.62494206 -4.3697176 7.62817152 -7.60742188 7.63476562 C-17.23206318 7.62222412 -26.78635913 7.433933 -36.36328125 6.41796875 C-37.10966354 6.34073074 -37.85604584 6.26349274 -38.62504578 6.18391418 C-43.68107135 5.56892865 -43.68107135 5.56892865 -45.9375 3.3125 C-30.60371175 0.6206751 -15.53007005 0.00267078 0 0 Z " fill="#8C9DEA" transform="translate(255.9375,221.6875)"/>
<path d="M0 0 C2.8959019 -0.00218522 5.79142099 -0.02040208 8.68725586 -0.03930664 C37.81416842 -0.12920932 37.81416842 -0.12920932 45.09936523 4.18530273 C43.20468189 4.50470107 41.30851529 4.81529852 39.41186523 5.12280273 C38.35612305 5.29682617 37.30038086 5.47084961 36.21264648 5.65014648 C24.2685393 7.31559242 12.28824004 7.37162122 0.25366211 7.37060547 C-2.63125462 7.37278807 -5.51578545 7.39099748 -8.40063477 7.40991211 C-17.18235416 7.43708583 -25.8709176 7.28888739 -34.60375977 6.29858398 C-35.65379181 6.18198677 -35.65379181 6.18198677 -36.72503662 6.06303406 C-40.14631064 5.62087584 -41.97148586 5.13806867 -44.90063477 3.18530273 C-43.00595142 2.8659044 -41.10978482 2.55530694 -39.21313477 2.24780273 C-38.15739258 2.0737793 -37.10165039 1.89975586 -36.01391602 1.72045898 C-24.04516882 0.05179099 -12.06021711 -0.00101577 0 0 Z " fill="#8C9DEA" transform="translate(254.900634765625,202.814697265625)"/>
<path d="M0 0 C3.22260291 0.01073794 6.44465002 0.00003348 9.66723633 -0.01269531 C40.36905072 -0.0350927 40.36905072 -0.0350927 47.66137695 4.26074219 C33.97745523 7.37898099 20.30999219 7.46140554 6.34887695 7.44824219 C5.02634415 7.44883133 5.02634415 7.44883133 3.67709351 7.44943237 C-28.3091723 7.43236955 -28.3091723 7.43236955 -42.33862305 4.26074219 C-31.24736229 -2.40275443 -12.46001871 -0.04931281 0 0 Z " fill="#8C9DEA" transform="translate(252.338623046875,127.7392578125)"/>
<path d="M0 0 C4.55555556 0.55555556 4.55555556 0.55555556 6 2 C6.10312037 3.37059593 6.13848953 4.74639659 6.14526367 6.12084961 C6.15483345 7.43242287 6.15483345 7.43242287 6.16459656 8.77049255 C6.16570938 9.72150345 6.1668222 10.67251434 6.16796875 11.65234375 C6.17129715 12.62281143 6.17462555 13.59327911 6.17805481 14.59315491 C6.1831283 16.6502332 6.18546301 18.70731975 6.18530273 20.7644043 C6.18748826 23.92054744 6.20563691 27.07634071 6.22460938 30.23242188 C6.22754333 32.2265613 6.22952811 34.22070239 6.23046875 36.21484375 C6.23765427 37.16383041 6.24483978 38.11281708 6.25224304 39.09056091 C6.24916641 39.96809525 6.24608978 40.84562958 6.24291992 41.74975586 C6.24434494 42.5239537 6.24576996 43.29815155 6.24723816 44.09580994 C6 46 6 46 4 48 C1.4375 48.1875 1.4375 48.1875 -1 48 C-2.55569176 46.44430824 -2.13484055 44.95075083 -2.14526367 42.78735352 C-2.15164352 41.89295059 -2.15802338 40.99854767 -2.16459656 40.07704163 C-2.16570938 39.10415695 -2.1668222 38.13127228 -2.16796875 37.12890625 C-2.17129715 36.13624252 -2.17462555 35.1435788 -2.17805481 34.12083435 C-2.1831284 32.0166775 -2.185463 29.91251257 -2.18530273 27.80834961 C-2.1874883 24.57978117 -2.20563699 21.35155473 -2.22460938 18.12304688 C-2.22754332 16.08333451 -2.22952811 14.04362051 -2.23046875 12.00390625 C-2.23765427 11.03304581 -2.24483978 10.06218536 -2.25224304 9.06190491 C-2.24916641 8.16434982 -2.24608978 7.26679474 -2.24291992 6.34204102 C-2.24434494 5.55007828 -2.24576996 4.75811554 -2.24723816 3.94215393 C-2 2 -2 2 0 0 Z " fill="#476DC6" transform="translate(240,37)"/>
<path d="M0 0 C0.88171875 -0.020625 1.7634375 -0.04125 2.671875 -0.0625 C9.11786754 -0.10030641 14.56303206 1.08629354 20.625 3.25 C16.16529288 7.70970712 8.9895036 7.5000379 3.01098633 7.52783203 C2.12048584 7.51864746 1.22998535 7.50946289 0.3125 7.5 C-0.61087158 7.49468262 -1.53424316 7.48936523 -2.4855957 7.48388672 C-19.376138 7.248862 -19.376138 7.248862 -23.375 3.25 C-16.0645605 -0.17676851 -7.92178217 0.04592337 0 0 Z " fill="#8C9DEA" transform="translate(349.375,277.75)"/>
<path d="M0 0 C1.45889648 -0.00483398 1.45889648 -0.00483398 2.94726562 -0.00976562 C19.36084182 0.11084182 19.36084182 0.11084182 23.5625 4.3125 C16.71223317 7.52356258 9.18392066 7.50801069 1.75 7.5 C0.57630859 7.4987915 0.57630859 7.4987915 -0.62109375 7.49755859 C-16.41862834 7.33137166 -16.41862834 7.33137166 -20.4375 3.3125 C-13.53090903 0.46784986 -7.42357183 -0.12250119 0 0 Z " fill="#8C9DEA" transform="translate(346.4375,202.6875)"/>
<path d="M0 0 C1.52669312 0.00193359 1.52669312 0.00193359 3.08422852 0.00390625 C10.3868656 0.09723814 16.89931716 0.81483394 23.8125 3.3125 C17.51014405 7.51407063 10.47750319 7.67040334 3.125 7.625 C2.25520508 7.62371094 1.38541016 7.62242187 0.48925781 7.62109375 C-6.73156033 7.5143164 -13.26252919 6.43548375 -20.1875 4.3125 C-15.02905105 -0.84594895 -6.79730441 -0.03539975 0 0 Z " fill="#8C9DEA" transform="translate(346.1875,127.6875)"/>
<path d="M0 0 C1.13308594 -0.00773437 2.26617187 -0.01546875 3.43359375 -0.0234375 C9.96077598 -0.00831077 15.84988198 0.38973537 22.125 2.25 C22.62 3.24 22.62 3.24 23.125 4.25 C10.80536048 8.23786019 -7.80047209 10.28726396 -19.875 4.25 C-19.875 3.59 -19.875 2.93 -19.875 2.25 C-13.28671063 -0.15615786 -6.95771394 -0.04717094 0 0 Z " fill="#8E9EEB" transform="translate(229.875,108.75)"/>
<path d="M0 0 C1.11761719 -0.00257813 2.23523438 -0.00515625 3.38671875 -0.0078125 C4.54042969 -0.00007812 5.69414062 0.00765625 6.8828125 0.015625 C8.02878906 0.00789062 9.17476562 0.00015625 10.35546875 -0.0078125 C16.56062267 0.00646864 22.1117715 0.24818447 28.0078125 2.265625 C28.5028125 3.255625 28.5028125 3.255625 29.0078125 4.265625 C21.90610673 7.05973874 14.99017689 7.59268305 7.4453125 7.640625 C6.57173096 7.65416016 5.69814941 7.66769531 4.7980957 7.68164062 C-1.55733694 7.63878297 -7.01086198 6.37837965 -12.9921875 4.265625 C-11.9921875 2.265625 -11.9921875 2.265625 -9.30419922 1.15722656 C-6.04120723 0.27882123 -3.3678672 0.00754523 0 0 Z " fill="#8D9EEB" transform="translate(222.9921875,183.734375)"/>
<path d="M0 0 C1.63485352 -0.01160156 1.63485352 -0.01160156 3.30273438 -0.0234375 C9.7273007 -0.00798454 15.50846142 0.43150574 21.6875 2.25 C22.1825 3.24 22.1825 3.24 22.6875 4.25 C9.73961496 8.98703111 -6.37958668 9.03574766 -19.3125 4.25 C-18.3125 2.25 -18.3125 2.25 -16.01953125 1.140625 C-10.66876454 -0.14491221 -5.48277307 -0.03849811 0 0 Z " fill="#8C9DEA" transform="translate(229.3125,258.75)"/>
<path d="M0 0 C0.66 0.33 1.32 0.66 2 1 C-1.67871008 7.58022789 -5.84801579 13.26998275 -11.125 18.625 C-11.62741211 19.14545898 -12.12982422 19.66591797 -12.64746094 20.20214844 C-15.94367135 23.44634764 -17.23626243 24.04725249 -22 25 C-24.64 21.37 -27.28 17.74 -30 14 C-29.67 13.34 -29.34 12.68 -29 12 C-28.27683594 12.54140625 -28.27683594 12.54140625 -27.5390625 13.09375 C-26.90742188 13.5578125 -26.27578125 14.021875 -25.625 14.5 C-24.99851563 14.9640625 -24.37203125 15.428125 -23.7265625 15.90625 C-22.05905387 17.17838101 -22.05905387 17.17838101 -20 17 C-19.195625 16.01 -18.39125 15.02 -17.5625 14 C-12.73896753 8.13773653 -6.26452543 4.17635029 0 0 Z " fill="#F3F6FB" transform="translate(175,194)"/>
<path d="M0 0 C0.66 0.33 1.32 0.66 2 1 C-3.32360945 10.39353613 -9.91987347 18.94658231 -19 25 C-20.953125 24.94140625 -20.953125 24.94140625 -23 24 C-24.921875 21.71484375 -24.921875 21.71484375 -26.75 18.9375 C-27.36359375 18.01839844 -27.9771875 17.09929687 -28.609375 16.15234375 C-29.06828125 15.44207031 -29.5271875 14.73179687 -30 14 C-29.67 13.34 -29.34 12.68 -29 12 C-28.27683594 12.54140625 -28.27683594 12.54140625 -27.5390625 13.09375 C-26.90742188 13.5578125 -26.27578125 14.021875 -25.625 14.5 C-24.99851563 14.9640625 -24.37203125 15.428125 -23.7265625 15.90625 C-22.05905387 17.17838101 -22.05905387 17.17838101 -20 17 C-18.824375 15.5459375 -18.824375 15.5459375 -17.625 14.0625 C-13.04727791 8.49407686 -6.46094541 3.23047271 0 0 Z " fill="#F3F6FB" transform="translate(175,119)"/>
<path d="M0 0 C-3.22250069 8.9046879 -10.63198028 17.1680692 -18 23 C-19.65 23.33 -21.3 23.66 -23 24 C-25.64 20.37 -28.28 16.74 -31 13 C-30.67 12.34 -30.34 11.68 -30 11 C-29.27683594 11.54140625 -29.27683594 11.54140625 -28.5390625 12.09375 C-27.90742188 12.5578125 -27.27578125 13.021875 -26.625 13.5 C-25.99851563 13.9640625 -25.37203125 14.428125 -24.7265625 14.90625 C-23.05905387 16.17838101 -23.05905387 16.17838101 -21 16 C-19.89634128 14.6204266 -18.79305861 13.2405511 -17.69140625 11.859375 C-13.58520437 7.34539788 -6.5201133 0 0 0 Z " fill="#F5F7FB" transform="translate(176,270)"/>
<path d="M0 0 C2.0625 1.5625 2.0625 1.5625 3 4 C2.67272727 10.32727273 2.67272727 10.32727273 0 13 C-6.96019496 13.55239643 -6.96019496 13.55239643 -10 11.9375 C-11.58433618 8.86784865 -11.36248449 6.38318857 -11 3 C-8.85023976 -1.16516046 -4.12934638 -0.75547293 0 0 Z " fill="#FEFBF6" transform="translate(129,400)"/>
<path d="M0 0 C2.54685809 0.0785782 3.81954973 0.17584047 6.0625 1.4375 C7.54799091 4.22279546 7.44300713 6.20502511 7.0625 9.3125 C6.0625 11.6875 6.0625 11.6875 4.0625 13.3125 C1.28686297 13.87919256 -1.16120769 13.872376 -3.9375 13.3125 C-6 11.75 -6 11.75 -6.9375 9.3125 C-6.62815348 3.33180065 -6.4509419 0.51197952 0 0 Z " fill="#FEFBF7" transform="translate(51.9375,399.6875)"/>
<path d="M0 0 C1.49080078 0.02707031 1.49080078 0.02707031 3.01171875 0.0546875 C3.77097656 0.07789062 4.53023438 0.10109375 5.3125 0.125 C5 2.5 5 2.5 4.3125 5.125 C1.10869983 7.26086678 0.29310033 7.35632175 -3.375 7.25 C-4.18324219 7.23195313 -4.99148438 7.21390625 -5.82421875 7.1953125 C-6.74654297 7.16050781 -6.74654297 7.16050781 -7.6875 7.125 C-8.0175 5.475 -8.3475 3.825 -8.6875 2.125 C-5.26655758 -0.15562828 -4.00562778 -0.09425007 0 0 Z " fill="#CAD4FB" transform="translate(267.6875,70.875)"/>
<path d="M0 0 C1.09054688 0.02320312 2.18109375 0.04640625 3.3046875 0.0703125 C4.40039062 0.08835937 5.49609375 0.10640625 6.625 0.125 C7.46804687 0.14820312 8.31109375 0.17140625 9.1796875 0.1953125 C8.375 5.03125 8.375 5.03125 6.6171875 6.5078125 C3.07311576 7.50742248 -0.14249969 7.31790626 -3.8203125 7.1953125 C-4.4453125 4.8203125 -4.4453125 4.8203125 -4.8203125 2.1953125 C-2.8203125 0.1953125 -2.8203125 0.1953125 0 0 Z " fill="#CAD5FB" transform="translate(213.8203125,70.8046875)"/>
<path d="M0 0 C-1.2065625 0.9590625 -1.2065625 0.9590625 -2.4375 1.9375 C-6.45503783 5.17112801 -6.34021146 6.81594715 -7 12 C-8.5625 10.875 -8.5625 10.875 -10 9 C-9.9276293 5.5262062 -9.64541231 3.69151319 -7.25 1.125 C-4.63695229 -0.18152386 -2.88466476 -0.24038873 0 0 Z " fill="#E38B15" transform="translate(125,398)"/>
<path d="M0 0 C-0.78375 0.495 -1.5675 0.99 -2.375 1.5 C-5.90031449 4.85744237 -6.13336821 7.27291749 -7 12 C-9 10 -9 10 -9.375 7.125 C-9 4 -9 4 -7.3125 1.625 C-4.61209763 -0.27258004 -3.22939919 -0.35882213 0 0 Z " fill="#E28912" transform="translate(52,398)"/>
<path d="M0 0 C2.6465335 2.6465335 3.59941997 5.56221264 5 9 C4.01 9 3.02 9 2 9 C0.50178941 5.62902617 0 3.79557881 0 0 Z " fill="#FDDFB3" transform="translate(72,423)"/>
</svg>
