<?xml version="1.0" encoding="UTF-8"?>
<svg version="1.1" xmlns="http://www.w3.org/2000/svg" width="512" height="512">
<path d="M0 0 C0.66682108 -0.03586212 1.33364216 -0.07172424 2.02066994 -0.1086731 C15.30715691 -0.81711989 28.59928168 -1.25004646 41.89996433 -1.5860424 C50.34008332 -1.80485112 58.75986669 -2.10663271 67.1875 -2.62207031 C127.40738776 -6.23280023 127.40738776 -6.23280023 146.99731445 10.80322266 C156.12727093 18.9706342 164.21963859 28.37417916 171.44876671 38.24772263 C177.67856042 46.66073059 185.27865588 51.83850218 195.00561523 55.70263672 C195.96209961 56.09193359 196.91858398 56.48123047 197.90405273 56.88232422 C210.55921926 61.2699321 226.5056075 60.08290502 238.63061523 54.82763672 C239.55874023 54.42673828 240.48686523 54.02583984 241.44311523 53.61279297 C251.89305229 48.49173006 259.85939059 40.52595494 266.53286362 31.16205311 C276.60967108 17.12962299 288.67811283 2.16741667 306.51855469 -1.15496826 C325.9803247 -4.25319634 346.22149455 -2.911936 365.81252432 -1.95044196 C374.28299785 -1.54306873 382.75406935 -1.36849601 391.23216581 -1.20478904 C403.74376493 -0.95609315 416.25257986 -0.62381116 428.75489044 -0.07543373 C430.72189416 0.01029803 432.68919309 0.08917194 434.65649414 0.16778564 C447.0387192 0.75406723 456.7611496 2.31082484 465.44311523 11.70263672 C471.51465402 18.59621283 472.07553904 25.19497 472.05053711 34.02026367 C472.05900665 35.12688354 472.0674762 36.23350342 472.07620239 37.37365723 C472.09954467 41.02119535 472.10059507 44.66831088 472.09936523 48.31591797 C472.10646905 50.86028715 472.11416837 53.40465473 472.12243652 55.94902039 C472.13587547 61.27929766 472.13763487 66.60941992 472.1315918 71.93969727 C472.12495798 78.07980005 472.14779651 84.21930104 472.18490553 90.35928184 C472.21943292 96.28971455 472.22592885 102.21996357 472.22181702 108.15050316 C472.22350585 110.66260761 472.23312542 113.17472016 472.2509613 115.68676186 C472.27320505 119.20726239 472.26341925 122.72632869 472.24584961 126.24682617 C472.26574448 127.78940346 472.26574448 127.78940346 472.28604126 129.36314392 C472.18229581 138.35283165 469.32924071 145.22351897 463.13061523 151.76513672 C455.55276377 158.69252883 447.39777938 160.14532214 437.36433411 160.079319 C436.57999398 160.08222588 435.79565386 160.08513276 434.98754585 160.08812773 C432.37345349 160.09539531 429.75959825 160.08849961 427.14550781 160.081604 C425.24674517 160.08390971 423.34798341 160.08708698 421.44922352 160.09105849 C416.24218489 160.09939992 411.03521967 160.09528415 405.82818079 160.08908606 C400.20847739 160.08455993 394.58878659 160.09154613 388.96908569 160.0970459 C377.96426972 160.1059398 366.95948103 160.10401789 355.95466399 160.09822062 C347.01092158 160.09370413 338.06718682 160.09309117 329.1234436 160.09526825 C327.85059535 160.09557472 326.57774709 160.09588118 325.26632768 160.09619693 C322.68057306 160.09683638 320.09481845 160.09748481 317.50906384 160.09814212 C293.95283641 160.10368282 270.39662727 160.09793658 246.84040292 160.08745692 C225.34305687 160.07796594 203.84573451 160.0788152 182.34838867 160.08837891 C158.1877672 160.09909155 134.02716258 160.10329608 109.86653805 160.09715438 C107.29028766 160.09651728 104.71403726 160.09588854 102.13778687 160.09526825 C100.87021744 160.0949597 99.60264802 160.09465115 98.2966674 160.09433325 C89.363516 160.09260629 80.430373 160.09552143 71.4972229 160.10022736 C60.61093952 160.10583611 49.72468497 160.10431981 38.83840489 160.09366587 C33.28393036 160.08840912 27.72950393 160.08635252 22.17502975 160.09296417 C17.08992208 160.09892559 12.00490707 160.09564524 6.91980779 160.08500907 C5.08076423 160.08277588 3.24171284 160.08390952 1.40267432 160.08876064 C-1.09936252 160.09485413 -3.60108318 160.08859186 -6.10310364 160.079319 C-7.17077837 160.0863425 -7.17077837 160.0863425 -8.26002228 160.09350789 C-18.65136305 160.01668745 -25.69285894 157.42710564 -33.09594727 150.12451172 C-39.76850044 142.82743386 -40.81656142 136.25552608 -40.78930664 126.63500977 C-40.79777618 125.52838989 -40.80624573 124.42177002 -40.81497192 123.28161621 C-40.8383142 119.63407808 -40.8393646 115.98696255 -40.83813477 112.33935547 C-40.84523858 109.79498629 -40.8529379 107.25061871 -40.86120605 104.70625305 C-40.874645 99.37597578 -40.8764044 94.04585351 -40.87036133 88.71557617 C-40.86372751 82.57547339 -40.88656604 76.4359724 -40.92367506 70.2959916 C-40.95820245 64.36555889 -40.96469838 58.43530987 -40.96058655 52.50477028 C-40.96227538 49.99266583 -40.97189495 47.48055328 -40.98973083 44.96851158 C-41.01197458 41.44801105 -41.00218878 37.92894475 -40.98461914 34.40844727 C-40.99788239 33.38006241 -41.01114563 32.35167755 -41.02481079 31.29212952 C-40.92207933 22.39030561 -38.05087716 15.59453245 -32.11938477 8.95263672 C-23.08406502 0.60628471 -11.64090751 0.61363909 0 0 Z M318.19311523 88.89013672 C314.84406887 93.64450499 313.90621155 98.0427559 314.63061523 103.82763672 C316.5472097 110.00461287 320.30307133 114.2553393 325.63061523 117.82763672 C330.88805194 119.58011562 336.75359517 119.93271727 341.98999023 117.92138672 C347.37696288 114.76210953 350.63593881 110.81166598 352.63061523 104.82763672 C353.36549925 97.93659313 352.79358514 93.41478055 348.63061523 87.82763672 C344.20926122 83.27303642 340.12474782 81.07296124 333.81811523 80.45263672 C326.99975756 80.68376749 322.31190874 83.55241626 318.19311523 88.89013672 Z M397.75561523 87.82763672 C393.65291278 93.61968725 392.91510287 97.77313204 393.63061523 104.82763672 C395.70549072 110.61544729 399.26733095 114.23379383 404.31811523 117.64013672 C409.9062852 119.64344293 415.16357276 119.60161083 420.81811523 117.82763672 C425.49174649 114.5041656 429.79411848 110.33712699 431.63061523 104.82763672 C432.41407209 98.31595434 431.44957662 93.2094346 427.63061523 87.82763672 C423.34177396 83.19803819 419.05170797 81.06577699 412.81811523 80.45263672 C406.71481393 80.63688732 401.73143055 83.23387943 397.75561523 87.82763672 Z " fill="#000000" transform="translate(40.369384765625,333.17236328125)"/>
<path d="M0 0 C1.24068741 -0.00788544 1.24068741 -0.00788544 2.50643921 -0.01593018 C5.2167295 -0.02903946 7.92642339 -0.02042453 10.63671875 -0.01025391 C12.5342622 -0.01227725 14.4318049 -0.01519086 16.3293457 -0.01895142 C20.29678791 -0.02336249 24.26402682 -0.01698299 28.23144531 -0.00292969 C33.30200893 0.01416141 38.37209605 0.0043137 43.44264221 -0.01364708 C47.35814974 -0.02451784 51.27354539 -0.02102349 55.1890564 -0.0132637 C57.05805519 -0.01127079 58.92706433 -0.01368882 60.79605103 -0.02070236 C63.41378462 -0.02837124 66.03075998 -0.01663717 68.6484375 0 C69.41127045 -0.00607269 70.17410339 -0.01214539 70.96005249 -0.0184021 C77.10306856 0.05346906 82.61876524 1.26247012 87.56640625 5.14990234 C88.10523438 5.78541016 88.6440625 6.42091797 89.19921875 7.07568359 C89.75351562 7.69830078 90.3078125 8.32091797 90.87890625 8.96240234 C95.25724124 16.31090513 94.59800167 24.79585461 94.55126953 33.05615234 C94.55070455 34.42677299 94.55102367 35.79739423 94.55215454 37.16801453 C94.55272567 40.8678898 94.54101048 44.56763399 94.52700663 48.26747894 C94.51445903 52.14185411 94.5133256 56.01623265 94.51095581 59.890625 C94.50475284 67.21795102 94.48835812 74.54521699 94.46825683 81.87251663 C94.44586091 90.21836319 94.43489513 98.56421271 94.42486596 106.91008186 C94.40399078 124.06948378 94.36883793 141.22882732 94.32421875 158.38818359 C95.36325348 158.38152176 96.40228821 158.37485992 97.47280884 158.36799622 C107.27185853 158.30714177 117.0708698 158.26219011 126.87006569 158.23274708 C131.90776072 158.21710117 136.94530302 158.19588241 141.98291016 158.16186523 C146.84584425 158.12923362 151.70863157 158.11132249 156.57166672 158.10355186 C158.42559494 158.0980152 160.27951527 158.0872034 162.13338089 158.07099342 C164.73313921 158.04916858 167.33229349 158.04621877 169.93212891 158.04760742 C170.69601929 158.03682159 171.45990967 158.02603577 172.24694824 158.0149231 C177.86032553 158.04729839 181.95309973 159.25012328 186.15234375 163.03662109 C186.6215625 163.60638672 187.09078125 164.17615234 187.57421875 164.76318359 C188.05375 165.32779297 188.53328125 165.89240234 189.02734375 166.47412109 C191.64409807 170.33619826 192.66154224 174.00190315 192.82421875 178.63818359 C192.9015625 179.94529297 192.9015625 179.94529297 192.98046875 181.27880859 C190.76049213 191.79726923 180.21285207 199.93107785 172.90258789 207.21386719 C171.5331549 208.58900997 170.1643515 209.96477997 168.79612732 211.34112549 C165.09659555 215.05853026 161.3876375 218.76639006 157.67630315 222.47200727 C154.5743976 225.5708144 151.47710548 228.67421238 148.3797664 231.77758276 C141.0738797 239.09749204 133.76025018 246.40960004 126.44165039 253.71679688 C118.89653755 261.25041334 111.36432253 268.79675008 103.83835512 276.34948862 C97.36729653 282.84270074 90.88851011 289.32812928 84.40342993 295.8073374 C80.53399399 299.67340389 76.66750743 303.54230577 72.80836678 307.41865158 C69.1819525 311.06052859 65.54596757 314.6925713 61.90241432 318.31729889 C60.56827387 319.64775258 59.23752295 320.98161531 57.91046524 322.31913376 C56.09628105 324.14652169 54.27016325 325.96110222 52.44056702 327.77304077 C51.66019179 328.56782351 51.66019179 328.56782351 50.8640514 329.37866247 C46.1828214 333.96762134 41.07749529 336.81455085 34.38671875 336.82568359 C33.22849609 336.8546875 33.22849609 336.8546875 32.046875 336.88427734 C25.06405042 335.61194058 19.89248857 331.5469153 15.03619385 326.60136414 C14.16650282 325.7399747 14.16650282 325.7399747 13.27924228 324.86118346 C11.35528829 322.95075065 9.44584425 321.02646847 7.53613281 319.10180664 C6.15313224 317.7225923 4.76927446 316.34423706 3.3846283 314.9666748 C-0.36194206 311.23403571 -4.09586639 307.48898123 -7.82720852 303.74112678 C-11.73880288 299.81565508 -15.66057437 295.90037352 -19.58087158 291.9835968 C-26.16136479 285.40580342 -32.73373519 278.81997857 -39.30126953 272.22924805 C-46.88890753 264.61499636 -54.48890583 257.0132576 -62.09572959 249.41817635 C-69.420855 242.10383825 -76.73745733 234.78103215 -84.05011749 227.45423317 C-87.15895127 224.33964846 -90.2706737 221.22799284 -93.384758 218.11865807 C-97.05245217 214.45574387 -100.71259572 210.78544574 -104.36709404 207.10936737 C-105.70768819 205.76321937 -107.05082118 204.41959415 -108.39669228 203.078722 C-110.23673402 201.24465791 -112.06724506 199.40156852 -113.89569092 197.55595398 C-114.4272063 197.03044864 -114.95872169 196.5049433 -115.5063436 195.96351355 C-119.56717586 191.83332897 -123.10508223 187.40533502 -124.20703125 181.57958984 C-124.12094498 174.33758204 -123.08378576 168.93560647 -117.95703125 163.59912109 C-112.66788567 158.87026636 -108.64593235 158.24207062 -101.62426758 158.2746582 C-100.80452957 158.27451218 -99.98479156 158.27436615 -99.14021301 158.2742157 C-96.42938597 158.27491263 -93.71862755 158.28269482 -91.0078125 158.29052734 C-89.12879982 158.2923923 -87.24978665 158.29381584 -85.37077332 158.29481506 C-80.4240281 158.29863412 -75.47731223 158.30845921 -70.53057861 158.31951904 C-65.4832804 158.32974629 -60.43597746 158.3343155 -55.38867188 158.33935547 C-45.48436211 158.350082 -35.58007412 158.36715112 -25.67578125 158.38818359 C-25.67854663 157.68011094 -25.68131201 156.97203829 -25.68416119 156.24250889 C-25.75050018 138.98984313 -25.80010029 121.73720989 -25.83121777 104.48444462 C-25.84666707 96.14103163 -25.86771943 87.79770394 -25.90209961 79.4543457 C-25.93206141 72.17975014 -25.95137032 64.90521637 -25.95804673 57.63056082 C-25.96194754 53.78095849 -25.97107428 49.9315329 -25.99297142 46.08198738 C-26.01344394 42.45324402 -26.01959351 38.824749 -26.01510429 35.19595337 C-26.01631375 33.24029867 -26.03239927 31.28467056 -26.04904175 29.3290863 C-26.01564198 19.75668883 -24.81577267 12.40870408 -18.6640625 4.89599609 C-13.02171845 0.61712615 -6.82042937 -0.05429547 0 0 Z " fill="#000000" transform="translate(221.67578125,18.61181640625)"/>
</svg>
