<?xml version="1.0" encoding="UTF-8"?>
<svg version="1.1" xmlns="http://www.w3.org/2000/svg" width="512" height="512">
<path d="M0 0 C0.84278789 -0.00445784 1.68557577 -0.00891569 2.55390269 -0.01350862 C3.47995245 -0.01332426 4.40600222 -0.01313989 5.3601141 -0.01294994 C6.34384139 -0.01662663 7.32756867 -0.02030332 8.34110588 -0.02409142 C11.65278062 -0.03514532 14.96442401 -0.03897503 18.27611446 -0.04278088 C20.64453894 -0.04904431 23.01296244 -0.055691 25.38138485 -0.0626936 C32.50074526 -0.08193442 39.62010626 -0.09252474 46.73948541 -0.10142139 C50.09388392 -0.10580593 53.44828085 -0.1111724 56.80267811 -0.11641026 C67.95721674 -0.13342389 79.1117544 -0.14791658 90.26630402 -0.155159 C93.16085022 -0.15706883 96.05539642 -0.15898917 98.94994259 -0.16094494 C99.66935175 -0.16142868 100.38876092 -0.16191242 101.12997036 -0.16241082 C112.77575393 -0.17070552 124.42143459 -0.19603233 136.06717325 -0.22852562 C148.02962985 -0.26162976 159.99203422 -0.27961088 171.95453686 -0.28280324 C178.66855205 -0.28496549 185.38239442 -0.29411716 192.09636784 -0.31926441 C198.41567112 -0.34255026 204.73470488 -0.34677604 211.05403996 -0.33650303 C213.37032117 -0.33600767 215.68661568 -0.34232816 218.00285625 -0.35605907 C221.17214975 -0.3737918 224.34047744 -0.36666428 227.5097723 -0.35352612 C228.42020701 -0.36449536 229.33064173 -0.37546461 230.26866537 -0.38676625 C240.59074463 -0.28389945 248.30420006 3.5633596 255.6801672 10.64984608 C265.99521948 22.30237406 265.17356262 37.59977043 265.13335323 52.23895741 C265.1356602 54.07202401 265.1388383 55.9050897 265.14280772 57.73815346 C265.15113194 62.75438798 265.14704124 67.77054609 265.14083529 72.78678083 C265.13630208 78.20471328 265.14329887 83.62263277 265.14879513 89.04056263 C265.15768149 99.646055 265.15577048 110.25151904 265.14996985 120.85701251 C265.14545039 129.47746338 265.14484168 138.09790632 265.14701748 146.71835804 C265.14732395 147.94595209 265.14763041 149.17354614 265.14794616 150.43834001 C265.14858562 152.93228809 265.14923405 155.42623617 265.14989135 157.92018425 C265.15559242 181.29786731 265.14904023 204.67553467 265.13829061 228.05321515 C265.12924765 248.10594106 265.13090741 268.15864401 265.14012814 288.21136951 C265.15083468 311.50624663 265.15504312 334.80111 265.14890361 358.09598923 C265.14826652 360.58068752 265.14763778 363.06538582 265.14701748 365.55008411 C265.14670893 366.77255637 265.14640038 367.99502864 265.14608248 369.25454551 C265.14435669 377.86317323 265.14726813 386.47179222 265.15197659 395.08041859 C265.15758968 405.5735363 265.15605992 416.0666241 265.1454151 426.5597384 C265.14016419 431.91194858 265.13809179 437.26410891 265.1447134 442.6163187 C265.15068692 447.51887736 265.14737456 452.42134009 265.1367583 457.32389009 C265.13453023 459.09426923 265.1356472 460.86465653 265.14050987 462.63503039 C265.17748503 477.21916238 265.1034859 491.57745038 254.69188595 502.94672108 C249.17117081 508.07916614 241.38844338 512.24971226 233.7587719 512.26844215 C232.91598401 512.2729 232.07319612 512.27735784 231.20486921 512.28195077 C230.27881944 512.28176641 229.35276968 512.28158205 228.3986578 512.2813921 C227.41493051 512.28506879 226.43120322 512.28874547 225.41766602 512.29253358 C222.10599127 512.30358747 218.79434788 512.30741718 215.48265743 512.31122303 C213.11423295 512.31748647 210.74580946 512.32413316 208.37738705 512.33113575 C201.25802664 512.35037657 194.13866563 512.3609669 187.01928648 512.36986354 C183.66488798 512.37424808 180.31049105 512.37961455 176.95609379 512.38485241 C165.80155515 512.40186605 154.6470175 512.41635873 143.49246788 512.42360115 C140.59792168 512.42551099 137.70337548 512.42743133 134.80882931 512.42938709 C134.08942014 512.42987083 133.37001098 512.43035457 132.62880153 512.43085297 C120.98301797 512.43914768 109.33733731 512.46447448 97.69159865 512.49696777 C85.72914205 512.53007191 73.76673767 512.54805303 61.80423504 512.55124539 C55.09021984 512.55340765 48.37637748 512.56255931 41.66240406 512.58770657 C35.34310077 512.61099241 29.02406702 512.6152182 22.70473194 512.60494518 C20.38845072 512.60444982 18.07215622 512.61077031 15.75591564 512.62450123 C12.58662215 512.64223395 9.41829445 512.63510644 6.2489996 512.62196827 C5.33856488 512.63293752 4.42813017 512.64390676 3.49010652 512.65520841 C-6.83197274 512.5523416 -14.54542817 508.70508256 -21.9213953 501.61859608 C-32.23644758 489.9660681 -31.41479072 474.66867172 -31.37458134 460.02948475 C-31.3768883 458.19641814 -31.3800664 456.36335246 -31.38403583 454.5302887 C-31.39236004 449.51405417 -31.38826934 444.49789606 -31.38206339 439.48166132 C-31.37753019 434.06372887 -31.38452697 428.64580938 -31.39002323 423.22787952 C-31.39890959 412.62238715 -31.39699858 402.01692312 -31.39119795 391.41142964 C-31.3866785 382.79097877 -31.38606979 374.17053583 -31.38824558 365.55008411 C-31.38855205 364.32249006 -31.38885851 363.09489601 -31.38917427 361.83010215 C-31.38981373 359.33615406 -31.39046215 356.84220598 -31.39111945 354.3482579 C-31.39682053 330.97057485 -31.39026833 307.59290749 -31.37951872 284.21522701 C-31.37047575 264.16250109 -31.37213552 244.10979815 -31.38135624 224.05707264 C-31.39206279 200.76219552 -31.39627123 177.46733216 -31.39013171 154.17245293 C-31.38949462 151.68775463 -31.38886588 149.20305634 -31.38824558 146.71835804 C-31.38793703 145.49588578 -31.38762848 144.27341352 -31.38731058 143.01389664 C-31.3855848 134.40526892 -31.38849623 125.79664994 -31.39320469 117.18802357 C-31.39881778 106.69490585 -31.39728802 96.20181805 -31.3866432 85.70870376 C-31.3813923 80.35649357 -31.37931989 75.00433325 -31.38594151 69.65212345 C-31.39191503 64.74956479 -31.38860266 59.84710206 -31.3779864 54.94455206 C-31.37575833 53.17417292 -31.3768753 51.40378563 -31.38173798 49.63341177 C-31.41871313 35.04927977 -31.344714 20.69099178 -20.93311405 9.32172108 C-15.41239891 4.18927601 -7.62967148 0.0187299 0 0 Z M-10.12061405 24.13422108 C-14.25119507 29.88753036 -14.26970667 35.87427195 -14.2492485 42.75303936 C-14.25100154 43.50382682 -14.25275458 44.25461429 -14.25456074 45.02815288 C-14.25921584 47.5461019 -14.2567565 50.06399305 -14.25432682 52.58194447 C-14.25619503 54.4045835 -14.25849578 56.22722213 -14.26119214 58.04986012 C-14.26731518 63.0603593 -14.26717596 68.07084182 -14.26599777 73.08134389 C-14.26579389 78.48430753 -14.27131125 83.88726579 -14.27605534 89.29022694 C-14.28436502 99.87600527 -14.28711031 110.46177804 -14.28766771 121.04755937 C-14.28814269 129.65051484 -14.2901965 138.25346848 -14.29336834 146.85642338 C-14.30217548 171.23963767 -14.30678758 195.62284755 -14.30603787 220.00606345 C-14.30599791 221.32082128 -14.30595795 222.63557912 -14.30591679 223.99017811 C-14.30587591 225.30653834 -14.30583502 226.62289858 -14.30579291 227.97914852 C-14.30538633 249.31937489 -14.31495855 270.6595805 -14.32905515 291.9998021 C-14.34341044 313.90419231 -14.35032582 335.80857391 -14.34946138 357.71296895 C-14.34912913 370.01371164 -14.35188828 382.31443583 -14.36263943 394.61517429 C-14.37173324 405.0869034 -14.37392887 415.55860562 -14.36713 426.03033696 C-14.36385925 431.37404169 -14.36382816 436.71769483 -14.37248325 442.06139469 C-14.38032453 446.95289014 -14.37894114 451.84429286 -14.37019912 456.73578598 C-14.3686589 458.50558962 -14.37049986 460.2754001 -14.3760592 462.04519568 C-14.38311745 464.45148277 -14.37782715 466.85744443 -14.36950302 469.26372051 C-14.3744712 469.95011 -14.37943938 470.63649949 -14.38455811 471.34368867 C-14.3305442 478.73393233 -12.97113958 485.36602855 -8.12061405 491.13422108 C-1.33659895 496.30063647 5.91275291 496.28278456 14.05098629 496.26793385 C14.96518404 496.2701994 15.87938179 496.27246496 16.82128251 496.27479917 C19.87956297 496.28112096 22.9377989 496.28031097 25.99608517 496.27948475 C28.1908591 496.28247735 30.38563252 496.28588012 32.58040524 496.28966236 C38.53907755 496.29849574 44.49773551 496.30084018 50.45641375 496.30147815 C54.17958094 496.30218897 57.90274448 496.30432389 61.62591076 496.30697536 C73.94554448 496.31574887 86.26517053 496.32039535 98.58480726 496.31964489 C99.58019647 496.31958496 99.58019647 496.31958496 100.59569454 496.31952381 C101.26010076 496.31948293 101.92450697 496.31944205 102.60904671 496.31939993 C113.37650885 496.31899348 124.14393601 496.32856381 134.91138802 496.34266218 C145.97670085 496.35703585 157.04199578 496.3637488 168.10731804 496.3630684 C174.31591141 496.36281345 180.52446518 496.36566324 186.73305035 496.37624645 C192.57217895 496.38592825 198.41123011 496.38600599 204.25036144 496.37872982 C206.39170857 496.37768412 208.53306052 496.38004599 210.67439938 496.38609028 C213.6009633 496.3938151 216.52726009 496.38916205 219.45381832 496.38145924 C220.29799529 496.3866028 221.14217226 496.39174636 222.01193035 496.39704579 C229.78370978 496.35194746 236.73555261 495.30062638 242.87938595 490.13422108 C247.69198943 483.81479605 248.03083646 477.18698108 248.0080204 469.51540279 C248.01064996 468.3892216 248.01064996 468.3892216 248.01333264 467.24028927 C248.01798774 464.72234025 248.01552839 462.20444911 248.01309872 459.68649769 C248.01496693 457.86385866 248.01726768 456.04122003 248.01996404 454.21858203 C248.02608708 449.20808285 248.02594785 444.19760034 248.02476966 439.18709826 C248.02456579 433.78413462 248.03008315 428.38117636 248.03482723 422.97821522 C248.04313692 412.39243688 248.04588221 401.80666411 248.04643961 391.22088279 C248.04691458 382.61792731 248.0489684 374.01497367 248.05214024 365.41201878 C248.06094738 341.02880449 248.06555947 316.6455946 248.06480976 292.26237871 C248.06476981 290.94762087 248.06472985 289.63286303 248.06468868 288.27826405 C248.0646478 286.96190381 248.06460692 285.64554357 248.0645648 284.28929363 C248.06415823 262.94906726 248.07373045 241.60886166 248.08782705 220.26864006 C248.10218234 198.36424985 248.10909771 176.45986824 248.10823327 154.55547321 C248.10790103 142.25473052 248.11066018 129.95400632 248.12141132 117.65326786 C248.13050513 107.18153876 248.13270076 96.70983653 248.1259019 86.23810519 C248.12263115 80.89440046 248.12260005 75.55074733 248.13125515 70.20704746 C248.13909643 65.31555202 248.13771303 60.42414929 248.12897102 55.53265618 C248.1274308 53.76285253 248.12927176 51.99304205 248.13483109 50.22324647 C248.14188934 47.81695938 248.13659905 45.41099773 248.12827492 43.00472164 C248.1332431 42.31833215 248.13821128 41.63194266 248.14333001 40.92475349 C248.0893161 33.53450983 246.72991148 26.9024136 241.87938595 21.13422108 C235.2138777 16.16683041 228.71623693 15.98574921 220.75884151 15.99377918 C219.37763422 15.9893225 219.37763422 15.9893225 217.96852374 15.98477578 C214.88183579 15.97610148 211.79518668 15.9745816 208.70848751 15.97308826 C206.49577915 15.96845921 204.28307159 15.96343443 202.07036495 15.9580431 C196.05785209 15.94492589 190.0453504 15.9384755 184.03282547 15.93403244 C180.27598642 15.93110074 176.51915041 15.92699575 172.76231289 15.92252827 C162.35314877 15.91042149 151.9439868 15.90003864 141.53481579 15.89665318 C140.53620507 15.89632383 140.53620507 15.89632383 139.5174204 15.89598782 C138.85012178 15.89576955 138.18282317 15.89555127 137.49530339 15.89532638 C136.14318768 15.89488292 134.79107197 15.89443635 133.43895626 15.8939867 C132.76826562 15.89376527 132.09757499 15.89354384 131.40656039 15.8933157 C120.54269637 15.88936896 109.67889947 15.87191733 98.81506136 15.84862718 C87.6514682 15.8248883 76.48789948 15.81270794 65.32427859 15.81128526 C59.06028257 15.81023739 52.79638127 15.80433334 46.53240871 15.78646564 C40.63909359 15.7699821 34.74594437 15.76783095 28.8526144 15.77660465 C26.6923341 15.77737486 24.53204488 15.77303453 22.37178707 15.7631464 C19.41694958 15.75041683 16.46269878 15.7563094 13.50786495 15.7667284 C12.23327274 15.75464379 12.23327274 15.75464379 10.93293118 15.74231505 C2.55985447 15.8111075 -4.66284455 17.39227051 -10.12061405 24.13422108 Z " fill="#2193b0" transform="translate(139.12061405181885,-0.13422107696533203)"/>
<path d="M0 0 C5.53726954 4.10246841 9.32875496 9.28535275 11 16 C12.14078745 26.14948006 10.65317919 33.25928985 5.25 41.75 C-0.59946347 47.59946347 -7.31877096 50.85476557 -15.59765625 51.06640625 C-23.51853197 50.69877067 -30.4228436 48.5970295 -36.109375 42.87890625 C-42.12876775 35.50390646 -43.54032885 28.99026933 -43.37109375 19.54296875 C-42.60591916 12.23756507 -39.46688565 7.06073493 -34.1875 2.0625 C-24.11195981 -5.89286134 -11.13935058 -6.52530415 0 0 Z M-24 16 C-26.46938219 19.70407329 -26.66289195 22.70378886 -26 27 C-23.98399796 30.70944375 -22.48735217 31.78339903 -18.625 33.5 C-14.2496517 34.10349632 -12.6134179 33.46369402 -9 31 C-6.12541961 28.41287765 -5.9976757 26.98169613 -5.5 23.0625 C-5.61806694 19.5467288 -6.00264887 18.99672377 -8.375 16.0625 C-13.75401357 11.8361322 -18.45121688 11.83841266 -24 16 Z " fill="#2193b0" transform="translate(272,436)"/>
<path d="M0 0 C1.78227493 -0.01925285 1.78227493 -0.01925285 3.60055542 -0.03889465 C4.89011139 -0.04628159 6.17966736 -0.05366852 7.50830078 -0.0612793 C8.82774689 -0.06935104 10.14719299 -0.07742279 11.50662231 -0.08573914 C14.30259066 -0.10076493 17.0985336 -0.11060385 19.89453125 -0.11816406 C23.4748431 -0.12923259 27.05453411 -0.16363772 30.63462639 -0.20333576 C33.38844964 -0.22948317 36.14212447 -0.2378541 38.89606094 -0.24144554 C40.85705662 -0.24868244 42.8179509 -0.27512844 44.77877808 -0.30183411 C46.57050949 -0.29744576 46.57050949 -0.29744576 48.3984375 -0.29296875 C49.4494162 -0.29883499 50.5003949 -0.30470123 51.58322144 -0.31074524 C55.03897358 0.30320479 56.18949195 1.44699336 58.32861328 4.17700195 C59.50452302 7.86151913 59.66342667 9.4595447 58.01611328 12.98950195 C56.32861328 15.17700195 56.32861328 15.17700195 54.32861328 16.17700195 C52.44052184 16.28853346 50.54852606 16.3362618 48.65722656 16.35400391 C47.46904327 16.36683914 46.28085999 16.37967438 45.05667114 16.39289856 C43.76711517 16.40028549 42.4775592 16.40767242 41.14892578 16.4152832 C39.82947968 16.42335495 38.51003357 16.4314267 37.15060425 16.43974304 C34.3546359 16.45476883 31.55869297 16.46460776 28.76269531 16.47216797 C25.18238346 16.48323649 21.60269245 16.51764162 18.02260017 16.55733967 C15.26877692 16.58348708 12.51510209 16.59185801 9.76116562 16.59544945 C7.80016995 16.60268635 5.83927566 16.62913235 3.87844849 16.65583801 C2.68396088 16.65291245 1.48947327 16.64998688 0.25878906 16.64697266 C-0.79218964 16.6528389 -1.84316833 16.65870514 -2.92599487 16.66474915 C-6.38174702 16.05079912 -7.53226539 14.90701054 -9.67138672 12.17700195 C-10.84729646 8.49248477 -11.0062001 6.8944592 -9.35888672 3.36450195 C-6.56137679 -0.2618998 -4.39670812 0.04124511 0 0 Z " fill="#2193b0" transform="translate(231.67138671875,34.822998046875)"/>
</svg>
